GeoramaSemiCondensed-ExtraBold.ufo
<glyph name="exclam" format="2">
  <advance width="226.856"/>
  <unicode hex="0021"/>
  <outline>
    <contour>
      <point x="38.068" y="259.7" type="line"/>
      <point x="188.61599999999999" y="259.7" type="line"/>
      <point x="203.06399999999996" y="740.0" type="line"/>
      <point x="25.684" y="740.0" type="line"/>
    </contour>
    <contour>
      <point x="19.363999999999997" y="93.712" type="curve" smooth="yes"/>
      <point x="19.363999999999997" y="24.907999999999998"/>
      <point x="46.536" y="-8.772"/>
      <point x="113.428" y="-8.772" type="curve" smooth="yes"/>
      <point x="180.46" y="-8.772"/>
      <point x="207.49200000000002" y="24.907999999999998"/>
      <point x="207.49200000000002" y="93.712" type="curve" smooth="yes"/>
      <point x="207.49200000000002" y="163.37599999999998"/>
      <point x="180.46" y="197.05599999999998"/>
      <point x="113.428" y="197.05599999999998" type="curve" smooth="yes"/>
      <point x="46.396" y="197.05599999999998"/>
      <point x="19.363999999999997" y="163.37599999999998"/>
    </contour>
  </outline>
</glyph>
<glyph name="numbersign" format="2">
  <advance width="526.512"/>
  <unicode hex="0023"/>
  <outline>
    <contour>
      <point x="51.42400000000001" y="406.9239999999999" type="line"/>
      <point x="102.47200000000001" y="406.9239999999999" type="line"/>
      <point x="89.07600000000001" y="286.00399999999996" type="line"/>
      <point x="35.507999999999996" y="286.00399999999996" type="line"/>
      <point x="35.507999999999996" y="146.00400000000002" type="line"/>
      <point x="76.644" y="146.00400000000002" type="line"/>
      <point x="62.696" y="0.0" type="line"/>
      <point x="204.816" y="0.0" type="line"/>
      <point x="218.764" y="146.00400000000002" type="line"/>
      <point x="270.632" y="146.00400000000002" type="line"/>
      <point x="256.68399999999997" y="0.0" type="line"/>
      <point x="398.804" y="0.0" type="line"/>
      <point x="412.752" y="146.00400000000002" type="line"/>
      <point x="475.26" y="146.00400000000002" type="line"/>
      <point x="475.26" y="286.00399999999996" type="line"/>
      <point x="425.18399999999997" y="286.00399999999996" type="line"/>
      <point x="438.58" y="406.9239999999999" type="line"/>
      <point x="491.176" y="406.9239999999999" type="line"/>
      <point x="491.176" y="547.9559999999999" type="line"/>
      <point x="450.924" y="547.9559999999999" type="line"/>
      <point x="465.556" y="700.0" type="line"/>
      <point x="323.436" y="700.0" type="line"/>
      <point x="308.80400000000003" y="547.9559999999999" type="line"/>
      <point x="256.936" y="547.9559999999999" type="line"/>
      <point x="271.568" y="700.0" type="line"/>
      <point x="129.44799999999998" y="700.0" type="line"/>
      <point x="114.81600000000002" y="547.9559999999999" type="line"/>
      <point x="51.42400000000001" y="547.9559999999999" type="line"/>
    </contour>
    <contour>
      <point x="244.59199999999998" y="406.9239999999999" type="line"/>
      <point x="296.46" y="406.9239999999999" type="line"/>
      <point x="283.064" y="286.00399999999996" type="line"/>
      <point x="231.196" y="286.00399999999996" type="line"/>
    </contour>
  </outline>
</glyph>
<glyph name="dollar" format="2">
  <advance width="526.512"/>
  <unicode hex="0024"/>
  <outline>
    <contour>
      <point x="231.96799999999996" y="-10.0" type="curve" smooth="yes"/>
      <point x="373.808" y="-11.92"/>
      <point x="498.80800000000005" y="41.160000000000004"/>
      <point x="498.80800000000005" y="201.04799999999997" type="curve" smooth="yes"/>
      <point x="498.80800000000005" y="325.2"/>
      <point x="423.22400000000005" y="379.15999999999997"/>
      <point x="333.80800000000005" y="416.568" type="curve" smooth="yes"/>
      <point x="260.096" y="445.84"/>
      <point x="217.344" y="465.54400000000004"/>
      <point x="217.344" y="508.664" type="curve" smooth="yes"/>
      <point x="217.344" y="540.2319999999999"/>
      <point x="239.59199999999998" y="553.44"/>
      <point x="293.48" y="553.44" type="curve" smooth="yes"/>
      <point x="344.536" y="553.44"/>
      <point x="400.28000000000003" y="544.4079999999999"/>
      <point x="443.43999999999994" y="528.736" type="curve"/>
      <point x="475.808" y="675.44" type="line"/>
      <point x="429.27200000000005" y="694.976"/>
      <point x="353.136" y="710.0"/>
      <point x="275.656" y="710.0" type="curve" smooth="yes"/>
      <point x="130.848" y="709.9440000000001"/>
      <point x="40.007999999999996" y="636.1680000000001"/>
      <point x="40.007999999999996" y="503.248" type="curve" smooth="yes"/>
      <point x="40.007999999999996" y="390.256"/>
      <point x="102.37599999999999" y="330.624"/>
      <point x="176.848" y="291.60799999999995" type="curve" smooth="yes"/>
      <point x="263.664" y="252.24000000000004"/>
      <point x="322.904" y="233.60000000000002"/>
      <point x="322.904" y="190.59199999999996" type="curve" smooth="yes"/>
      <point x="322.904" y="158.79200000000003"/>
      <point x="296.648" y="141.45599999999996"/>
      <point x="242.79199999999997" y="141.45599999999996" type="curve" smooth="yes"/>
      <point x="190.58399999999997" y="141.45599999999996"/>
      <point x="127.288" y="153.95200000000003"/>
      <point x="60.16" y="177.83999999999997" type="curve"/>
      <point x="27.904" y="32.888" type="line"/>
      <point x="82.504" y="8.744"/>
      <point x="161.328" y="-9.168000000000001"/>
    </contour>
    <contour>
      <point x="190.99200000000002" y="-105.0" type="line"/>
      <point x="339.16" y="-105.0" type="line"/>
      <point x="339.16" y="18.576" type="line"/>
      <point x="190.99200000000002" y="8.872" type="line"/>
    </contour>
    <contour>
      <point x="190.99200000000002" y="680.352" type="line"/>
      <point x="339.16" y="691.784" type="line"/>
      <point x="339.16" y="803.624" type="line"/>
      <point x="190.99200000000002" y="803.624" type="line"/>
    </contour>
  </outline>
</glyph>
<glyph name="ampersand" format="2">
  <advance width="617.4759999999999"/>
  <unicode hex="0026"/>
  <outline>
    <contour>
      <point x="424.068" y="-1.96" type="line"/>
      <point x="617.352" y="-0.4199999999999997" type="line"/>
      <point x="298.92" y="432.09200000000004" type="line" smooth="yes"/>
      <point x="270.524" y="469.03599999999994"/>
      <point x="259.53200000000004" y="493.81199999999995"/>
      <point x="259.53200000000004" y="515.004" type="curve" smooth="yes"/>
      <point x="259.53200000000004" y="544.676"/>
      <point x="273.02000000000004" y="559.144"/>
      <point x="299.85999999999996" y="559.144" type="curve" smooth="yes"/>
      <point x="325.996" y="559.144"/>
      <point x="337.636" y="542.952"/>
      <point x="337.636" y="512.3919999999999" type="curve" smooth="yes"/>
      <point x="337.636" y="491.088"/>
      <point x="333.964" y="476.33199999999994"/>
      <point x="319.47200000000004" y="463.68800000000005" type="curve"/>
      <point x="382.06000000000006" y="376.872" type="line"/>
      <point x="453.28799999999995" y="407.544"/>
      <point x="489.648" y="462.82800000000003"/>
      <point x="489.648" y="544.1920000000001" type="curve" smooth="yes"/>
      <point x="489.648" y="655.844"/>
      <point x="420.12" y="710.0"/>
      <point x="296.13599999999997" y="710.0" type="curve" smooth="yes"/>
      <point x="150.376" y="710.0"/>
      <point x="83.58800000000001" y="636.9440000000001"/>
      <point x="83.58800000000001" y="519.8919999999999" type="curve" smooth="yes"/>
      <point x="83.58800000000001" y="461.44399999999996"/>
      <point x="106.32799999999997" y="406.436"/>
      <point x="146.89600000000002" y="353.03200000000004" type="curve" smooth="yes"/>
    </contour>
    <contour>
      <point x="242.53599999999997" y="-10.0" type="curve" smooth="yes"/>
      <point x="318.572" y="-10.0"/>
      <point x="372.14" y="14.268"/>
      <point x="412.41200000000003" y="57.772" type="curve"/>
      <point x="336.208" y="161.02399999999997" type="line"/>
      <point x="323.13599999999997" y="142.17600000000002"/>
      <point x="304.21999999999997" y="129.248"/>
      <point x="266.34000000000003" y="129.248" type="curve" smooth="yes"/>
      <point x="215.624" y="129.248"/>
      <point x="179.84" y="162.84399999999997"/>
      <point x="179.84" y="209.952" type="curve" smooth="yes"/>
      <point x="179.84" y="247.636"/>
      <point x="194.64800000000002" y="269.0920000000001"/>
      <point x="222.952" y="288.10799999999995" type="curve"/>
      <point x="146.59599999999998" y="397.564" type="line"/>
      <point x="54.239999999999995" y="349.728"/>
      <point x="16.948000000000004" y="280.28400000000005"/>
      <point x="16.948000000000004" y="192.044" type="curve" smooth="yes"/>
      <point x="16.948000000000004" y="68.136"/>
      <point x="103.44399999999999" y="-10.0"/>
    </contour>
    <contour>
      <point x="505.56800000000004" y="125.64" type="line"/>
      <point x="543.4639999999999" y="179.34399999999997"/>
      <point x="564.896" y="238.29599999999996"/>
      <point x="564.896" y="303.23599999999993" type="curve" smooth="yes"/>
      <point x="564.896" y="324.5160000000001"/>
      <point x="563.7559999999999" y="342.23199999999997"/>
      <point x="561.62" y="360.66" type="curve"/>
      <point x="425.09200000000004" y="360.24" type="line"/>
      <point x="426.368" y="348.84000000000003"/>
      <point x="427.08" y="336.7079999999999"/>
      <point x="426.36400000000003" y="322.73199999999997" type="curve" smooth="yes"/>
      <point x="425.072" y="298.052"/>
      <point x="419.09999999999997" y="278.932"/>
      <point x="407.41599999999994" y="261.892" type="curve"/>
    </contour>
  </outline>
</glyph>
<glyph name="quotesingle" format="2">
  <advance width="206.664"/>
  <unicode hex="0027"/>
  <outline>
    <contour>
      <point x="30.080000000000002" y="427.0" type="line"/>
      <point x="174.51999999999998" y="427.0" type="line"/>
      <point x="183.13199999999998" y="700.0" type="line"/>
      <point x="23.532" y="700.0" type="line"/>
    </contour>
  </outline>
</glyph>
<glyph name="parenleft" format="2">
  <advance width="282.632"/>
  <unicode hex="0028"/>
  <outline>
    <contour>
      <point x="26.220000000000002" y="265.0" type="curve" smooth="yes"/>
      <point x="26.220000000000002" y="-9.047999999999998"/>
      <point x="95.52799999999999" y="-196.3"/>
      <point x="269.08000000000004" y="-220.112" type="curve"/>
      <point x="269.08000000000004" y="-79.152" type="line"/>
      <point x="196.16" y="-44.952000000000005"/>
      <point x="167.188" y="29.984"/>
      <point x="167.188" y="265.0" type="curve" smooth="yes"/>
      <point x="167.188" y="500.01599999999996"/>
      <point x="196.16" y="574.952"/>
      <point x="269.08000000000004" y="609.1519999999999" type="curve"/>
      <point x="269.08000000000004" y="750.112" type="line"/>
      <point x="95.52799999999999" y="726.3000000000001"/>
      <point x="26.220000000000002" y="539.048"/>
    </contour>
  </outline>
</glyph>
<glyph name="parenright" format="2">
  <advance width="282.632"/>
  <unicode hex="0029"/>
  <outline>
    <contour>
      <point x="13.552000000000001" y="-79.152" type="curve"/>
      <point x="13.552000000000001" y="-220.112" type="line"/>
      <point x="187.10399999999998" y="-196.3"/>
      <point x="256.412" y="-9.047999999999998"/>
      <point x="256.412" y="265.0" type="curve" smooth="yes"/>
      <point x="256.412" y="539.048"/>
      <point x="187.10399999999998" y="726.3000000000001"/>
      <point x="13.552000000000001" y="750.112" type="curve"/>
      <point x="13.552000000000001" y="609.1519999999999" type="line"/>
      <point x="86.47200000000001" y="574.952"/>
      <point x="115.444" y="500.01599999999996"/>
      <point x="115.444" y="265.0" type="curve" smooth="yes"/>
      <point x="115.444" y="29.984"/>
      <point x="86.47200000000001" y="-44.952000000000005"/>
    </contour>
  </outline>
</glyph>
<glyph name="asterisk" format="2">
  <advance width="353.352"/>
  <unicode hex="002A"/>
  <outline>
    <contour>
      <point x="110.556" y="396.252" type="line"/>
      <point x="176.70399999999998" y="471.46799999999996" type="line"/>
      <point x="242.73999999999998" y="396.224" type="line"/>
      <point x="306.53200000000004" y="440.596" type="line"/>
      <point x="257.844" y="528.928" type="line"/>
      <point x="346.452" y="572.0" type="line"/>
      <point x="322.136" y="645.764" type="line"/>
      <point x="226.49600000000004" y="624.9879999999999" type="line"/>
      <point x="216.34799999999998" y="725.5680000000001" type="line"/>
      <point x="137.06" y="725.5680000000001" type="line"/>
      <point x="126.912" y="624.9879999999999" type="line"/>
      <point x="31.216" y="645.764" type="line"/>
      <point x="6.8999999999999995" y="572.0" type="line"/>
      <point x="95.564" y="528.928" type="line"/>
      <point x="46.736000000000004" y="440.652" type="line"/>
    </contour>
  </outline>
</glyph>
<glyph name="plus" format="2">
  <advance width="480.584"/>
  <unicode hex="002B"/>
  <outline>
    <contour>
      <point x="162.69600000000003" y="137.188" type="line"/>
      <point x="317.716" y="137.188" type="line"/>
      <point x="317.716" y="248.9" type="line"/>
      <point x="435.236" y="248.9" type="line"/>
      <point x="435.236" y="397.04" type="line"/>
      <point x="317.716" y="397.04" type="line"/>
      <point x="317.716" y="508.58000000000004" type="line"/>
      <point x="162.69600000000003" y="508.58000000000004" type="line"/>
      <point x="162.69600000000003" y="397.04" type="line"/>
      <point x="45.348" y="397.04" type="line"/>
      <point x="45.348" y="248.9" type="line"/>
      <point x="162.69600000000003" y="248.9" type="line"/>
    </contour>
  </outline>
</glyph>
<glyph name="comma" format="2">
  <advance width="220.948"/>
  <unicode hex="002C"/>
  <outline>
    <contour>
      <point x="27.364000000000004" y="100.05199999999999" type="line"/>
      <point x="32.9" y="65.25999999999999"/>
      <point x="33.688" y="34.720000000000006"/>
      <point x="33.688" y="19.444000000000003" type="curve" smooth="yes"/>
      <point x="33.688" y="-34.36"/>
      <point x="15.867999999999997" y="-96.6"/>
      <point x="-17.916" y="-153.63199999999998" type="curve"/>
      <point x="113.572" y="-184.624" type="line"/>
      <point x="171.46" y="-112.67600000000002"/>
      <point x="197.82400000000004" y="-51.2"/>
      <point x="197.82400000000004" y="21.735999999999997" type="curve" smooth="yes"/>
      <point x="197.82400000000004" y="55.11599999999999"/>
      <point x="192.504" y="80.752"/>
      <point x="186.596" y="101.94800000000001" type="curve"/>
    </contour>
  </outline>
</glyph>
<glyph name="hyphen" format="2">
  <advance width="333.304"/>
  <unicode hex="002D"/>
  <outline>
    <contour>
      <point x="34.636" y="236.94" type="line"/>
      <point x="298.668" y="236.94" type="line"/>
      <point x="298.668" y="395.228" type="line"/>
      <point x="34.636" y="395.228" type="line"/>
    </contour>
  </outline>
</glyph>
<glyph name="period" format="2">
  <advance width="223.70000000000002"/>
  <unicode hex="002E"/>
  <outline>
    <contour>
      <point x="17.8" y="95.77600000000001" type="curve" smooth="yes"/>
      <point x="17.8" y="26.972"/>
      <point x="44.971999999999994" y="-6.707999999999999"/>
      <point x="111.864" y="-6.707999999999999" type="curve" smooth="yes"/>
      <point x="178.896" y="-6.707999999999999"/>
      <point x="205.92800000000003" y="26.972"/>
      <point x="205.92800000000003" y="95.77600000000001" type="curve" smooth="yes"/>
      <point x="205.92800000000003" y="165.44"/>
      <point x="178.896" y="199.12"/>
      <point x="111.864" y="199.12" type="curve" smooth="yes"/>
      <point x="44.831999999999994" y="199.12"/>
      <point x="17.8" y="165.44"/>
    </contour>
  </outline>
</glyph>
<glyph name="slash" format="2">
  <advance width="412.916"/>
  <unicode hex="002F"/>
  <outline>
    <contour>
      <point x="-4.656000000000001" y="-210.0" type="line"/>
      <point x="139.3" y="-210.0" type="line"/>
      <point x="417.572" y="740.0" type="line"/>
      <point x="272.928" y="740.0" type="line"/>
    </contour>
  </outline>
</glyph>
<glyph name="zero" format="2">
  <advance width="526.512"/>
  <unicode hex="0030"/>
  <outline>
    <contour>
      <point x="20.536" y="350.0" type="curve" smooth="yes"/>
      <point x="20.536" y="79.43199999999999"/>
      <point x="102.83200000000001" y="-10.0"/>
      <point x="263.256" y="-10.0" type="curve" smooth="yes"/>
      <point x="421.6720000000001" y="-10.0"/>
      <point x="505.976" y="82.184"/>
      <point x="505.976" y="350.0" type="curve" smooth="yes"/>
      <point x="505.976" y="618.616"/>
      <point x="431.992" y="710.0"/>
      <point x="263.256" y="710.0" type="curve" smooth="yes"/>
      <point x="100.768" y="710.0"/>
      <point x="20.536" y="624.12"/>
    </contour>
    <contour>
      <point x="199.32" y="341.056" type="curve" smooth="yes"/>
      <point x="199.32" y="543.6880000000001"/>
      <point x="224.04799999999997" y="561.008"/>
      <point x="263.256" y="561.008" type="curve" smooth="yes"/>
      <point x="302.52000000000004" y="561.008"/>
      <point x="327.248" y="544.376"/>
      <point x="327.248" y="341.056" type="curve" smooth="yes"/>
      <point x="327.248" y="160.55200000000002"/>
      <point x="304.584" y="138.99200000000002"/>
      <point x="263.256" y="138.99200000000002" type="curve" smooth="yes"/>
      <point x="221.98399999999998" y="138.99200000000002"/>
      <point x="199.32" y="159.86400000000003"/>
    </contour>
  </outline>
</glyph>
<glyph name="one" format="2">
  <advance width="526.512"/>
  <unicode hex="0031"/>
  <outline>
    <contour>
      <point x="75.20400000000001" y="0.0" type="line"/>
      <point x="486.13599999999997" y="0.0" type="line"/>
      <point x="486.13599999999997" y="148.99999999999997" type="line"/>
      <point x="378.016" y="148.99999999999997" type="line"/>
      <point x="378.016" y="700.28" type="line"/>
      <point x="288.96000000000004" y="700.28" type="line"/>
      <point x="57.3" y="620.044" type="line"/>
      <point x="89.65599999999999" y="455.43199999999996" type="line"/>
      <point x="201.15200000000002" y="494.936" type="line"/>
      <point x="201.15200000000002" y="148.99999999999997" type="line"/>
      <point x="75.20400000000001" y="148.99999999999997" type="line"/>
    </contour>
  </outline>
</glyph>
<glyph name="two" format="2">
  <advance width="526.824"/>
  <unicode hex="0032"/>
  <outline>
    <contour>
      <point x="49.391999999999996" y="129.512" type="curve"/>
      <point x="50.306" y="0.0" type="line"/>
      <point x="483.926" y="0.0" type="line"/>
      <point x="483.926" y="149.13999999999996" type="line"/>
      <point x="280.534" y="149.13999999999996" type="line"/>
      <point x="417.238" y="306.12999999999994"/>
      <point x="454.48199999999997" y="379.618"/>
      <point x="454.48199999999997" y="497.768" type="curve" smooth="yes"/>
      <point x="454.48199999999997" y="631.746"/>
      <point x="378.55" y="710.0"/>
      <point x="244.78199999999998" y="710.0" type="curve" smooth="yes"/>
      <point x="167.766" y="710.0"/>
      <point x="92.738" y="687.266"/>
      <point x="32.604" y="645.398" type="curve"/>
      <point x="90.472" y="483.346" type="line"/>
      <point x="130.47799999999998" y="506.65999999999997"/>
      <point x="165.312" y="517.0699999999999"/>
      <point x="200.56799999999998" y="517.0699999999999" type="curve" smooth="yes"/>
      <point x="246.75000000000003" y="517.0699999999999"/>
      <point x="273.254" y="490.48799999999994"/>
      <point x="273.254" y="439.96799999999996" type="curve" smooth="yes"/>
      <point x="273.254" y="372.382"/>
      <point x="199.642" y="270.454"/>
    </contour>
  </outline>
</glyph>
<glyph name="three" format="2">
  <advance width="526.6800000000001"/>
  <unicode hex="0033"/>
  <outline>
    <contour>
      <point x="23.52" y="39.629999999999995" type="line"/>
      <point x="90.67" y="3.5600000000000005"/>
      <point x="147.85000000000002" y="-10.0"/>
      <point x="230.97" y="-10.0" type="curve" smooth="yes"/>
      <point x="391.86" y="-10.0"/>
      <point x="480.98" y="69.72"/>
      <point x="480.98" y="205.66" type="curve" smooth="yes"/>
      <point x="480.98" y="281.90000000000003"/>
      <point x="444.49" y="341.61000000000007"/>
      <point x="376.72" y="372.15000000000003" type="curve"/>
      <point x="434.3" y="407.34"/>
      <point x="468.1" y="466.41"/>
      <point x="468.1" y="531.57" type="curve" smooth="yes"/>
      <point x="468.1" y="642.22"/>
      <point x="387.78" y="710.0"/>
      <point x="238.91000000000003" y="710.0" type="curve" smooth="yes"/>
      <point x="155.75" y="710.0"/>
      <point x="78.49" y="691.06"/>
      <point x="27.66" y="656.18" type="curve"/>
      <point x="75.57" y="515.28" type="line"/>
      <point x="110.46000000000001" y="530.08"/>
      <point x="157.56" y="538.8599999999999"/>
      <point x="199.42" y="538.8599999999999" type="curve" smooth="yes"/>
      <point x="263.74" y="538.8599999999999"/>
      <point x="294.02" y="517.2800000000001"/>
      <point x="294.02" y="479.97" type="curve" smooth="yes"/>
      <point x="294.02" y="443.78999999999996"/>
      <point x="268.0" y="421.57"/>
      <point x="209.57999999999998" y="421.57" type="curve" smooth="yes"/>
      <point x="134.13" y="421.57" type="line"/>
      <point x="134.13" y="284.04" type="line"/>
      <point x="212.04" y="284.04" type="line" smooth="yes"/>
      <point x="274.64000000000004" y="284.04"/>
      <point x="304.25" y="261.78000000000003"/>
      <point x="304.25" y="219.42" type="curve" smooth="yes"/>
      <point x="304.25" y="175.67"/>
      <point x="274.72" y="152.04"/>
      <point x="209.9" y="152.04" type="curve" smooth="yes"/>
      <point x="162.24" y="152.04"/>
      <point x="117.29" y="161.09"/>
      <point x="76.65" y="180.04999999999998" type="curve"/>
    </contour>
  </outline>
</glyph>
<glyph name="four" format="2">
  <advance width="526.68"/>
  <unicode hex="0034"/>
  <outline>
    <contour>
      <point x="19.060000000000002" y="94.74" type="line"/>
      <point x="255.2" y="94.74" type="line"/>
      <point x="255.2" y="0.0" type="line"/>
      <point x="435.88000000000005" y="0.0" type="line"/>
      <point x="435.88000000000005" y="94.74" type="line"/>
      <point x="506.38000000000005" y="94.74" type="line"/>
      <point x="506.38000000000005" y="238.78" type="line"/>
      <point x="435.88000000000005" y="238.78" type="line"/>
      <point x="435.88000000000005" y="699.86" type="line"/>
      <point x="254.76" y="700.7" type="line"/>
      <point x="18.36" y="239.8" type="line"/>
    </contour>
    <contour>
      <point x="139.94" y="238.78" type="line"/>
      <point x="262.08" y="486.34" type="line"/>
      <point x="262.08" y="238.78" type="line"/>
    </contour>
  </outline>
</glyph>
<glyph name="five" format="2">
  <advance width="526.68"/>
  <unicode hex="0035"/>
  <outline>
    <contour>
      <point x="33.16799999999999" y="33.182" type="line"/>
      <point x="92.648" y="3.5520000000000005"/>
      <point x="151.42000000000002" y="-10.000000000000002"/>
      <point x="228.02399999999997" y="-10.000000000000002" type="curve" smooth="yes"/>
      <point x="384.962" y="-10.000000000000002"/>
      <point x="493.92599999999993" y="72.46"/>
      <point x="493.92599999999993" y="232.26000000000002" type="curve" smooth="yes"/>
      <point x="493.92599999999993" y="367.012"/>
      <point x="418.20799999999997" y="424.47"/>
      <point x="289.794" y="428.99199999999996" type="curve" smooth="yes"/>
      <point x="236.79999999999998" y="430.28399999999993" type="line"/>
      <point x="246.69000000000003" y="545.2180000000001" type="line"/>
      <point x="468.514" y="545.2180000000001" type="line"/>
      <point x="468.514" y="700.0" type="line"/>
      <point x="111.59400000000001" y="700.0" type="line"/>
      <point x="69.46000000000001" y="305.196" type="line"/>
      <point x="78.312" y="293.47999999999996" type="line"/>
      <point x="199.868" y="293.47999999999996" type="line" smooth="yes"/>
      <point x="289.26800000000003" y="293.47999999999996"/>
      <point x="316.558" y="271.164"/>
      <point x="316.558" y="224.66" type="curve" smooth="yes"/>
      <point x="316.558" y="181.912"/>
      <point x="287.658" y="153.32399999999998"/>
      <point x="208.88599999999997" y="153.32399999999998" type="curve" smooth="yes"/>
      <point x="151.202" y="153.32399999999998"/>
      <point x="103.26999999999998" y="164.36199999999997"/>
      <point x="67.99399999999999" y="178.898" type="curve"/>
    </contour>
  </outline>
</glyph>
<glyph name="six" format="2">
  <advance width="526.68"/>
  <unicode hex="0036"/>
  <outline>
    <contour>
      <point x="268.48999999999995" y="-10.0" type="curve" smooth="yes"/>
      <point x="427.81999999999994" y="-10.0"/>
      <point x="507.53000000000003" y="73.0"/>
      <point x="507.53000000000003" y="239.90000000000003" type="curve" smooth="yes"/>
      <point x="507.53000000000003" y="376.44"/>
      <point x="444.51" y="454.95000000000005"/>
      <point x="329.45" y="454.95000000000005" type="curve" smooth="yes"/>
      <point x="271.07" y="454.95000000000005"/>
      <point x="225.31" y="439.56"/>
      <point x="188.13" y="407.89000000000004" type="curve"/>
      <point x="185.29999999999998" y="278.13" type="line"/>
      <point x="212.94000000000005" y="303.83000000000004"/>
      <point x="239.25" y="318.92"/>
      <point x="267.75" y="318.92" type="curve" smooth="yes"/>
      <point x="309.17999999999995" y="318.92"/>
      <point x="334.09" y="289.46999999999997"/>
      <point x="334.09" y="232.73000000000002" type="curve" smooth="yes"/>
      <point x="334.09" y="164.4"/>
      <point x="311.48" y="136.41000000000003"/>
      <point x="275.43999999999994" y="136.41000000000003" type="curve" smooth="yes"/>
      <point x="228.67999999999998" y="136.41000000000003"/>
      <point x="204.51000000000002" y="165.77999999999997"/>
      <point x="204.51000000000002" y="354.8" type="curve" smooth="yes"/>
      <point x="204.51000000000002" y="484.8400000000001"/>
      <point x="222.89" y="551.6100000000001"/>
      <point x="338.17" y="551.6100000000001" type="curve" smooth="yes"/>
      <point x="377.65000000000003" y="551.6100000000001"/>
      <point x="413.79" y="542.0500000000001"/>
      <point x="450.8500000000001" y="526.5600000000001" type="curve"/>
      <point x="497.17999999999995" y="670.9100000000001" type="line"/>
      <point x="456.40000000000003" y="693.55"/>
      <point x="381.7200000000001" y="710.0"/>
      <point x="309.57000000000005" y="710.0" type="curve" smooth="yes"/>
      <point x="122.02999999999997" y="710.0"/>
      <point x="23.99" y="578.8399999999999"/>
      <point x="23.99" y="326.34000000000003" type="curve" smooth="yes"/>
      <point x="23.99" y="95.26000000000002"/>
      <point x="104.68" y="-10.0"/>
    </contour>
  </outline>
</glyph>
<glyph name="seven" format="2">
  <advance width="526.68"/>
  <unicode hex="0037"/>
  <outline>
    <contour>
      <point x="122.22599999999998" y="0.0" type="curve"/>
      <point x="309.304" y="0.0" type="line"/>
      <point x="310.806" y="118.64"/>
      <point x="333.58799999999997" y="204.12"/>
      <point x="390.624" y="340.90799999999996" type="curve" smooth="yes"/>
      <point x="490.60600000000005" y="579.5859999999999" type="line"/>
      <point x="490.60600000000005" y="700.0" type="line"/>
      <point x="40.39000000000001" y="700.0" type="line"/>
      <point x="40.39000000000001" y="545.39" type="line"/>
      <point x="296.342" y="545.39" type="line"/>
      <point x="206.136" y="362.516" type="line" smooth="yes"/>
      <point x="145.15200000000002" y="238.598"/>
      <point x="122.22599999999998" y="133.548"/>
    </contour>
  </outline>
</glyph>
<glyph name="eight" format="2">
  <advance width="526.824"/>
  <unicode hex="0038"/>
  <outline>
    <contour>
      <point x="269.194" y="410.53" type="curve"/>
      <point x="370.04" y="354.24199999999996" type="line"/>
      <point x="450.04200000000003" y="404.42999999999995"/>
      <point x="485.866" y="465.492"/>
      <point x="485.866" y="532.308" type="curve" smooth="yes"/>
      <point x="485.866" y="644.7040000000001"/>
      <point x="405.582" y="710.0"/>
      <point x="267.476" y="710.0" type="curve" smooth="yes"/>
      <point x="120.764" y="710.0"/>
      <point x="38.618" y="640.324"/>
      <point x="38.618" y="513.0360000000001" type="curve" smooth="yes"/>
      <point x="38.618" y="278.524"/>
      <point x="330.234" y="309.56"/>
      <point x="330.234" y="182.326" type="curve" smooth="yes"/>
      <point x="330.234" y="148.7"/>
      <point x="310.43399999999997" y="131.11599999999999"/>
      <point x="270.078" y="131.11599999999999" type="curve" smooth="yes"/>
      <point x="219.54399999999998" y="131.11599999999999"/>
      <point x="191.42199999999997" y="154.718"/>
      <point x="191.42199999999997" y="198.72" type="curve" smooth="yes"/>
      <point x="191.42199999999997" y="243.554"/>
      <point x="207.786" y="266.904"/>
      <point x="245.64999999999998" y="296.70200000000006" type="curve"/>
      <point x="143.218" y="366.47200000000004" type="line"/>
      <point x="58.42799999999999" y="327.262"/>
      <point x="19.358" y="263.426"/>
      <point x="19.358" y="186.61800000000002" type="curve" smooth="yes"/>
      <point x="19.358" y="61.019999999999996"/>
      <point x="105.72" y="-10.0"/>
      <point x="262.648" y="-10.0" type="curve" smooth="yes"/>
      <point x="426.424" y="-10.0"/>
      <point x="507.75" y="58.798"/>
      <point x="507.75" y="192.35399999999998" type="curve" smooth="yes"/>
      <point x="507.75" y="433.548"/>
      <point x="205.09799999999998" y="395.766"/>
      <point x="205.09799999999998" y="516.184" type="curve" smooth="yes"/>
      <point x="205.09799999999998" y="545.4780000000001"/>
      <point x="222.83999999999997" y="566.098"/>
      <point x="262.834" y="566.098" type="curve" smooth="yes"/>
      <point x="306.17" y="566.098"/>
      <point x="326.27" y="545.9900000000001"/>
      <point x="326.27" y="504.508" type="curve" smooth="yes"/>
      <point x="326.27" y="462.404"/>
      <point x="311.28200000000004" y="438.79999999999995"/>
    </contour>
  </outline>
</glyph>
<glyph name="nine" format="2">
  <advance width="526.68"/>
  <unicode hex="0039"/>
  <outline>
    <contour>
      <point x="222.09" y="-10.0" type="curve" smooth="yes"/>
      <point x="409.62999999999994" y="-10.0"/>
      <point x="506.89" y="119.94"/>
      <point x="506.89" y="371.08000000000004" type="curve" smooth="yes"/>
      <point x="506.89" y="603.3800000000001"/>
      <point x="429.0999999999999" y="710.0"/>
      <point x="263.94999999999993" y="710.0" type="curve" smooth="yes"/>
      <point x="104.48" y="710.0"/>
      <point x="23.349999999999998" y="626.2800000000001"/>
      <point x="23.349999999999998" y="459.38" type="curve" smooth="yes"/>
      <point x="23.349999999999998" y="322.2"/>
      <point x="88.31" y="245.05"/>
      <point x="203.20999999999995" y="245.05" type="curve" smooth="yes"/>
      <point x="258.23" y="245.05"/>
      <point x="307.45" y="261.1"/>
      <point x="342.75" y="291.68999999999994" type="curve"/>
      <point x="346.84000000000003" y="422.85" type="line"/>
      <point x="321.67" y="396.84000000000003"/>
      <point x="292.93" y="381.44"/>
      <point x="260.24999999999994" y="381.44" type="curve" smooth="yes"/>
      <point x="222.7" y="381.44"/>
      <point x="197.01" y="410.39"/>
      <point x="197.01" y="467.41" type="curve" smooth="yes"/>
      <point x="197.01" y="533.58"/>
      <point x="218.66" y="563.59"/>
      <point x="257.14000000000004" y="563.59" type="curve" smooth="yes"/>
      <point x="309.06" y="563.59"/>
      <point x="326.72999999999996" y="524.8599999999999"/>
      <point x="326.72999999999996" y="345.56000000000006" type="curve" smooth="yes"/>
      <point x="326.72999999999996" y="215.51999999999998"/>
      <point x="307.91" y="147.31000000000003"/>
      <point x="192.77" y="147.31000000000003" type="curve" smooth="yes"/>
      <point x="153.15" y="147.31000000000003"/>
      <point x="116.73" y="156.87"/>
      <point x="80.03" y="172.36" type="curve"/>
      <point x="33.699999999999996" y="29.369999999999997" type="line"/>
      <point x="74.48" y="6.729999999999999"/>
      <point x="149.93999999999997" y="-10.0"/>
    </contour>
  </outline>
</glyph>
<glyph name="less" format="2">
  <advance width="480.584"/>
  <unicode hex="003C"/>
  <outline>
    <contour>
      <point x="449.57199999999995" y="89.816" type="line"/>
      <point x="449.57199999999995" y="227.452" type="line"/>
      <point x="189.012" y="309.92400000000004" type="line"/>
      <point x="449.57199999999995" y="393.08" type="line"/>
      <point x="449.57199999999995" y="530.12" type="line"/>
      <point x="31.012" y="383.048" type="line"/>
      <point x="31.012" y="236.284" type="line"/>
    </contour>
  </outline>
</glyph>
<glyph name="equal" format="2">
  <advance width="466.824"/>
  <unicode hex="003D"/>
  <outline>
    <contour>
      <point x="421.476" y="271.648" type="line"/>
      <point x="45.348" y="271.648" type="line"/>
      <point x="45.348" y="123.50800000000001" type="line"/>
      <point x="421.476" y="123.50800000000001" type="line"/>
    </contour>
    <contour>
      <point x="421.476" y="497.396" type="line"/>
      <point x="45.348" y="497.396" type="line"/>
      <point x="45.348" y="349.25600000000003" type="line"/>
      <point x="421.476" y="349.25600000000003" type="line"/>
    </contour>
  </outline>
</glyph>
<glyph name="greater" format="2">
  <advance width="480.584"/>
  <unicode hex="003E"/>
  <outline>
    <contour>
      <point x="449.57199999999995" y="236.172" type="line"/>
      <point x="449.57199999999995" y="382.936" type="line"/>
      <point x="31.012" y="530.12" type="line"/>
      <point x="31.012" y="392.828" type="line"/>
      <point x="291.572" y="309.81199999999995" type="line"/>
      <point x="31.012" y="227.22799999999998" type="line"/>
      <point x="31.012" y="89.816" type="line"/>
    </contour>
  </outline>
</glyph>
<glyph name="question" format="2">
  <advance width="423.376"/>
  <unicode hex="003F"/>
  <outline>
    <contour>
      <point x="121.61599999999999" y="259.616" type="line"/>
      <point x="272.852" y="259.616" type="line"/>
      <point x="273.19599999999997" y="327.99199999999996" type="line"/>
      <point x="373.212" y="371.608"/>
      <point x="411.664" y="448.08"/>
      <point x="411.664" y="546.4599999999999" type="curve" smooth="yes"/>
      <point x="411.664" y="681.66"/>
      <point x="324.33200000000005" y="749.312"/>
      <point x="192.87999999999997" y="749.312" type="curve" smooth="yes"/>
      <point x="126.71600000000001" y="749.312"/>
      <point x="55.28" y="726.164"/>
      <point x="9.144" y="692.6320000000001" type="curve"/>
      <point x="65.636" y="542.9240000000001" type="line"/>
      <point x="105.34400000000001" y="568.428"/>
      <point x="135.0" y="575.656"/>
      <point x="164.156" y="575.656" type="curve" smooth="yes"/>
      <point x="206.13600000000002" y="575.656"/>
      <point x="229.872" y="552.964"/>
      <point x="229.872" y="518.304" type="curve" smooth="yes"/>
      <point x="229.872" y="482.404"/>
      <point x="215.256" y="445.104"/>
      <point x="117.65999999999998" y="405.816" type="curve"/>
    </contour>
    <contour>
      <point x="103.34" y="93.712" type="curve" smooth="yes"/>
      <point x="103.34" y="24.907999999999998"/>
      <point x="130.048" y="-8.772"/>
      <point x="197.516" y="-8.772" type="curve" smooth="yes"/>
      <point x="263.748" y="-8.772"/>
      <point x="291.58" y="24.907999999999998"/>
      <point x="291.58" y="93.712" type="curve" smooth="yes"/>
      <point x="291.58" y="163.37599999999998"/>
      <point x="263.748" y="197.05599999999998"/>
      <point x="197.516" y="197.05599999999998" type="curve" smooth="yes"/>
      <point x="129.796" y="197.05599999999998"/>
      <point x="103.34" y="163.37599999999998"/>
    </contour>
  </outline>
</glyph>
<glyph name="at" format="2">
  <advance width="825.9599999999999"/>
  <unicode hex="0040"/>
  <outline>
    <contour>
      <point x="409.6" y="-124.576" type="curve" smooth="yes"/>
      <point x="469.45599999999996" y="-124.576"/>
      <point x="551.2" y="-108.968"/>
      <point x="598.4" y="-86.25600000000001" type="curve"/>
      <point x="576.6320000000001" y="-16.831999999999997" type="line"/>
      <point x="526.624" y="-34.12800000000001"/>
      <point x="468.5040000000001" y="-44.73599999999999"/>
      <point x="412.88800000000003" y="-44.73599999999999" type="curve" smooth="yes"/>
      <point x="245.976" y="-44.73599999999999"/>
      <point x="116.352" y="31.528000000000002"/>
      <point x="116.352" y="262.28800000000007" type="curve" smooth="yes"/>
      <point x="116.352" y="479.50399999999996"/>
      <point x="225.576" y="634.456"/>
      <point x="430.46400000000006" y="634.456" type="curve" smooth="yes"/>
      <point x="633.344" y="634.456"/>
      <point x="717.288" y="529.296"/>
      <point x="717.288" y="332.91200000000003" type="curve" smooth="yes"/>
      <point x="717.288" y="219.928"/>
      <point x="677.656" y="145.2"/>
      <point x="638.4159999999999" y="145.92" type="curve" smooth="yes"/>
      <point x="607.424" y="145.92"/>
      <point x="587.3919999999999" y="168.06399999999996"/>
      <point x="593.2719999999999" y="242.816" type="curve" smooth="yes"/>
      <point x="616.0480000000001" y="513.944" type="line"/>
      <point x="557.744" y="538.0640000000001"/>
      <point x="501.67199999999997" y="550.536"/>
      <point x="434.112" y="550.536" type="curve" smooth="yes"/>
      <point x="280.032" y="550.536"/>
      <point x="205.42399999999998" y="423.08"/>
      <point x="205.42399999999998" y="253.31999999999996" type="curve" smooth="yes"/>
      <point x="205.42399999999998" y="105.43199999999999"/>
      <point x="263.64799999999997" y="49.112"/>
      <point x="338.384" y="49.112" type="curve" smooth="yes"/>
      <point x="396.648" y="49.112"/>
      <point x="438.62399999999997" y="80.552"/>
      <point x="474.4080000000001" y="143.56" type="curve"/>
      <point x="491.03200000000004" y="83.03999999999999"/>
      <point x="529.1440000000001" y="40.48800000000001"/>
      <point x="607.696" y="40.48800000000001" type="curve" smooth="yes"/>
      <point x="732.8799999999999" y="39.04800000000001"/>
      <point x="802.9359999999999" y="170.568"/>
      <point x="802.9359999999999" y="345.44" type="curve" smooth="yes"/>
      <point x="802.9359999999999" y="589.7600000000001"/>
      <point x="655.1279999999999" y="710.0"/>
      <point x="444.93600000000004" y="710.0" type="curve" smooth="yes"/>
      <point x="170.16" y="710.0"/>
      <point x="24.456" y="528.88"/>
      <point x="24.456" y="271.52" type="curve" smooth="yes"/>
      <point x="24.456" y="-4.791999999999998"/>
      <point x="181.072" y="-124.576"/>
    </contour>
    <contour>
      <point x="399.76000000000005" y="193.77599999999998" type="curve" smooth="yes"/>
      <point x="382.28" y="193.77599999999998"/>
      <point x="367.09600000000006" y="210.92"/>
      <point x="367.09600000000006" y="251.10400000000004" type="curve" smooth="yes"/>
      <point x="367.09600000000006" y="342.68800000000005"/>
      <point x="394.088" y="441.12800000000004"/>
      <point x="432.14400000000006" y="441.12800000000004" type="curve" smooth="yes"/>
      <point x="443.8640000000001" y="441.12800000000004"/>
      <point x="454.768" y="437.56000000000006"/>
      <point x="465.496" y="432.888" type="curve"/>
      <point x="448.192" y="257.18399999999997" type="line" smooth="yes"/>
      <point x="436.54400000000004" y="208.072"/>
      <point x="421.9599999999999" y="193.77599999999998"/>
    </contour>
  </outline>
</glyph>
<glyph name="A" format="2">
  <advance width="554.856"/>
  <unicode hex="0041"/>
  <anchor x="550.128" y="0.0" name="ogonek"/>
  <anchor x="273.92800000000005" y="0.0" name="bottom"/>
  <anchor x="276.88000000000005" y="700.0" name="top"/>
  <outline>
    <contour>
      <point x="4.784" y="0.0" type="line"/>
      <point x="188.04000000000002" y="0.0" type="line"/>
      <point x="207.48800000000003" y="109.2" type="line"/>
      <point x="340.20000000000005" y="109.2" type="line"/>
      <point x="360.968" y="0.0" type="line"/>
      <point x="550.128" y="0.0" type="line"/>
      <point x="393.27200000000005" y="701.4" type="line"/>
      <point x="158.368" y="701.4" type="line"/>
    </contour>
    <contour>
      <point x="232.776" y="275.84799999999996" type="line"/>
      <point x="274.272" y="569.2959999999999" type="line"/>
      <point x="314.912" y="275.84799999999996" type="line"/>
    </contour>
  </outline>
</glyph>
<glyph name="B" format="2">
  <advance width="539.496"/>
  <unicode hex="0042"/>
  <anchor x="268.064" y="700.0" name="top"/>
  <anchor x="268.064" y="0.0" name="bottom"/>
  <outline>
    <contour>
      <point x="36.842" y="3.8099999999999987" type="line"/>
      <point x="170.736" y="-8.07"/>
      <point x="178.504" y="-10.0"/>
      <point x="268.79200000000003" y="-10.0" type="curve" smooth="yes"/>
      <point x="456.968" y="-10.0"/>
      <point x="527.942" y="53.51"/>
      <point x="527.942" y="208.224" type="curve" smooth="yes"/>
      <point x="527.942" y="290.10599999999994"/>
      <point x="487.59599999999995" y="355.826"/>
      <point x="419.18800000000005" y="386.158" type="curve"/>
      <point x="419.18800000000005" y="388.08799999999997" type="line"/>
      <point x="472.32" y="419.124"/>
      <point x="498.354" y="470.71000000000004"/>
      <point x="498.354" y="538.296" type="curve" smooth="yes"/>
      <point x="498.354" y="656.568"/>
      <point x="430.00600000000003" y="710.0"/>
      <point x="268.23199999999997" y="710.0" type="curve" smooth="yes"/>
      <point x="208.3" y="710.0"/>
      <point x="132.52999999999997" y="705.35"/>
      <point x="36.842" y="695.9100000000001" type="curve"/>
    </contour>
    <contour>
      <point x="215.938" y="418.30400000000003" type="line"/>
      <point x="215.938" y="550.774" type="line"/>
      <point x="239.47599999999997" y="554.0540000000001"/>
      <point x="246.884" y="555.0540000000001"/>
      <point x="267.598" y="555.0540000000001" type="curve" smooth="yes"/>
      <point x="317.11799999999994" y="555.0540000000001"/>
      <point x="334.80800000000005" y="533.0020000000001"/>
      <point x="334.80800000000005" y="484.194" type="curve" smooth="yes"/>
      <point x="334.80800000000005" y="440.63800000000003"/>
      <point x="317.2" y="418.30400000000003"/>
      <point x="283.974" y="418.30400000000003" type="curve" smooth="yes"/>
    </contour>
    <contour>
      <point x="215.938" y="147.934" type="curve"/>
      <point x="215.938" y="284.166" type="line"/>
      <point x="281.52200000000005" y="284.166" type="line" smooth="yes"/>
      <point x="329.168" y="284.166"/>
      <point x="347.628" y="262.586"/>
      <point x="347.628" y="215.104" type="curve" smooth="yes"/>
      <point x="347.628" y="164.77200000000002"/>
      <point x="328.79800000000006" y="144.36999999999998"/>
      <point x="266.43800000000005" y="144.36999999999998" type="curve" smooth="yes"/>
      <point x="252.84799999999998" y="144.36999999999998"/>
      <point x="235.004" y="145.654"/>
    </contour>
  </outline>
</glyph>
<glyph name="C" format="2">
  <advance width="493.092"/>
  <unicode hex="0043"/>
  <anchor x="279.04400000000004" y="700.0" name="top"/>
  <anchor x="281.68399999999997" y="0.0" name="bottom"/>
  <outline>
    <contour>
      <point x="18.096" y="344.112" type="curve" smooth="yes"/>
      <point x="18.096" y="85.236"/>
      <point x="103.25999999999999" y="-10.0"/>
      <point x="287.82" y="-10.0" type="curve" smooth="yes"/>
      <point x="368.77199999999993" y="-10.0"/>
      <point x="425.296" y="1.248"/>
      <point x="475.88" y="20.644000000000002" type="curve"/>
      <point x="444.99199999999996" y="172.79999999999998" type="line"/>
      <point x="407.06800000000004" y="161.6"/>
      <point x="358.69199999999995" y="153.39600000000002"/>
      <point x="320.096" y="153.39600000000002" type="curve" smooth="yes"/>
      <point x="231.216" y="153.39600000000002"/>
      <point x="199.26000000000002" y="196.14"/>
      <point x="199.26000000000002" y="342.564" type="curve" smooth="yes"/>
      <point x="199.26000000000002" y="499.62800000000004"/>
      <point x="231.868" y="546.3199999999999"/>
      <point x="320.1" y="546.3199999999999" type="curve" smooth="yes"/>
      <point x="357.692" y="546.3199999999999"/>
      <point x="393.276" y="540.456"/>
      <point x="437.756" y="528.452" type="curve"/>
      <point x="473.116" y="680.84" type="line"/>
      <point x="425.48800000000006" y="700.008"/>
      <point x="371.30800000000005" y="710.0"/>
      <point x="298.83200000000005" y="710.0" type="curve" smooth="yes"/>
      <point x="106.97200000000001" y="710.0"/>
      <point x="18.096" y="606.9240000000001"/>
    </contour>
  </outline>
</glyph>
<glyph name="D" format="2">
  <advance width="559.756"/>
  <unicode hex="0044"/>
  <anchor x="275.908" y="700.0" name="top"/>
  <outline>
    <contour>
      <point x="258.48" y="-10.0" type="curve" smooth="yes"/>
      <point x="454.48800000000006" y="-10.0"/>
      <point x="541.618" y="96.938"/>
      <point x="541.618" y="351.58" type="curve" smooth="yes"/>
      <point x="541.618" y="603.8480000000002"/>
      <point x="466.9440000000001" y="710.0"/>
      <point x="255.54999999999995" y="710.0" type="curve" smooth="yes"/>
      <point x="174.414" y="710.0"/>
      <point x="111.70799999999998" y="707.0699999999999"/>
      <point x="36.842" y="698.9880000000002" type="curve"/>
      <point x="36.842" y="-0.6999999999999997" type="line"/>
      <point x="100.97600000000001" y="-6.5680000000000005"/>
      <point x="171.04000000000002" y="-10.0"/>
    </contour>
    <contour>
      <point x="276.86400000000003" y="143.23" type="curve" smooth="yes"/>
      <point x="251.14400000000003" y="143.23"/>
      <point x="235.684" y="144.658"/>
      <point x="215.292" y="146.152" type="curve"/>
      <point x="215.292" y="552.1279999999999" type="line"/>
      <point x="230.79999999999998" y="554.272"/>
      <point x="252.43999999999994" y="555.4119999999999"/>
      <point x="274.78999999999996" y="555.4119999999999" type="curve" smooth="yes"/>
      <point x="333.55600000000004" y="555.4119999999999"/>
      <point x="357.29600000000005" y="515.0"/>
      <point x="357.29600000000005" y="349.288" type="curve" smooth="yes"/>
      <point x="357.29600000000005" y="193.09800000000004"/>
      <point x="331.7" y="143.23"/>
    </contour>
  </outline>
</glyph>
<glyph name="E" format="2">
  <advance width="480.822"/>
  <unicode hex="0045"/>
  <anchor x="462.32800000000003" y="0.0" name="ogonek"/>
  <anchor x="249.04599999999996" y="0.0" name="bottom"/>
  <anchor x="250.57199999999997" y="700.0" name="top"/>
  <outline>
    <contour>
      <point x="36.842" y="0.0" type="line"/>
      <point x="462.468" y="0.0" type="line"/>
      <point x="462.468" y="161.588" type="line"/>
      <point x="214.638" y="161.588" type="line"/>
      <point x="214.638" y="275.608" type="line"/>
      <point x="424.0900000000001" y="275.608" type="line"/>
      <point x="424.0900000000001" y="426.92600000000004" type="line"/>
      <point x="214.638" y="426.92600000000004" type="line"/>
      <point x="214.638" y="535.1819999999999" type="line"/>
      <point x="447.966" y="535.1819999999999" type="line"/>
      <point x="447.966" y="700.0" type="line"/>
      <point x="36.842" y="700.0" type="line"/>
    </contour>
  </outline>
</glyph>
<glyph name="F" format="2">
  <advance width="459.472"/>
  <unicode hex="0046"/>
  <outline>
    <contour>
      <point x="36.842" y="0.0" type="line"/>
      <point x="216.724" y="0.0" type="line"/>
      <point x="216.724" y="220.75199999999998" type="line"/>
      <point x="412.056" y="220.75199999999998" type="line"/>
      <point x="412.056" y="385.94000000000005" type="line"/>
      <point x="215.292" y="385.94000000000005" type="line"/>
      <point x="215.292" y="532.742" type="line"/>
      <point x="445.46" y="532.742" type="line"/>
      <point x="445.46" y="700.0" type="line"/>
      <point x="36.842" y="700.0" type="line"/>
    </contour>
  </outline>
</glyph>
<glyph name="G" format="2">
  <advance width="535.164"/>
  <unicode hex="0047"/>
  <anchor x="281.58" y="700.0" name="top"/>
  <anchor x="279.62" y="0.0" name="bottom"/>
  <outline>
    <contour>
      <point x="18.096" y="345.488" type="curve" smooth="yes"/>
      <point x="18.096" y="101.148"/>
      <point x="98.892" y="-10.0"/>
      <point x="273.13199999999995" y="-10.0" type="curve" smooth="yes"/>
      <point x="365.44800000000004" y="-10.0"/>
      <point x="440.572" y="7.176000000000001"/>
      <point x="507.0919999999999" y="44.4" type="curve"/>
      <point x="507.0919999999999" y="406.81600000000003" type="line"/>
      <point x="276.65999999999997" y="406.81600000000003" type="line"/>
      <point x="276.65999999999997" y="253.79999999999998" type="line"/>
      <point x="345.36400000000003" y="253.79999999999998" type="line"/>
      <point x="345.36400000000003" y="152.656" type="line"/>
      <point x="331.71200000000005" y="147.01599999999996"/>
      <point x="310.916" y="143.76399999999998"/>
      <point x="287.692" y="143.76399999999998" type="curve" smooth="yes"/>
      <point x="225.51600000000002" y="143.76399999999998"/>
      <point x="197.884" y="191.548"/>
      <point x="197.884" y="337.748" type="curve" smooth="yes"/>
      <point x="197.884" y="486.996"/>
      <point x="232.82000000000002" y="547.696"/>
      <point x="317.79999999999995" y="547.696" type="curve" smooth="yes"/>
      <point x="357.944" y="547.696"/>
      <point x="410.824" y="539.256"/>
      <point x="453.464" y="527.4" type="curve"/>
      <point x="485.55600000000004" y="681.108" type="line"/>
      <point x="436.37199999999996" y="698.64"/>
      <point x="366.93600000000004" y="710.0"/>
      <point x="299.972" y="710.0" type="curve" smooth="yes"/>
      <point x="106.61999999999999" y="710.0"/>
      <point x="18.096" y="594.628"/>
    </contour>
  </outline>
</glyph>
<glyph name="H" format="2">
  <advance width="564.524"/>
  <unicode hex="0048"/>
  <anchor x="282.62" y="700.0" name="top"/>
  <outline>
    <contour>
      <point x="36.828" y="0.0" type="line"/>
      <point x="215.068" y="0.0" type="line"/>
      <point x="215.068" y="233.868" type="line"/>
      <point x="349.45599999999996" y="233.868" type="line"/>
      <point x="349.45599999999996" y="0.0" type="line"/>
      <point x="527.696" y="0.0" type="line"/>
      <point x="527.696" y="700.0" type="line"/>
      <point x="349.45599999999996" y="700.0" type="line"/>
      <point x="349.45599999999996" y="405.116" type="line"/>
      <point x="215.068" y="405.116" type="line"/>
      <point x="215.068" y="700.0" type="line"/>
      <point x="36.828" y="700.0" type="line"/>
    </contour>
  </outline>
</glyph>
<glyph name="I" format="2">
  <advance width="251.89600000000002"/>
  <unicode hex="0049"/>
  <anchor x="215.068" y="0.0" name="ogonek"/>
  <anchor x="126.29199999999999" y="0.0" name="bottom"/>
  <anchor x="126.29199999999999" y="700.0" name="top"/>
  <outline>
    <contour>
      <point x="36.828" y="0.0" type="line"/>
      <point x="215.068" y="0.0" type="line"/>
      <point x="215.068" y="700.0" type="line"/>
      <point x="36.828" y="700.0" type="line"/>
    </contour>
  </outline>
</glyph>
<glyph name="J" format="2">
  <advance width="415.644"/>
  <unicode hex="004A"/>
  <anchor x="218.048" y="700.0" name="top"/>
  <outline>
    <contour>
      <point x="3.436000000000001" y="24.348" type="line"/>
      <point x="57.848" y="3.971999999999999"/>
      <point x="119.66" y="-10.027999999999999"/>
      <point x="188.128" y="-10.027999999999999" type="curve" smooth="yes"/>
      <point x="319.392" y="-10.027999999999999"/>
      <point x="382.79600000000005" y="63.532"/>
      <point x="382.79600000000005" y="206.868" type="curve" smooth="yes"/>
      <point x="382.79600000000005" y="700.0" type="line"/>
      <point x="48.852000000000004" y="700.0" type="line"/>
      <point x="48.852000000000004" y="532.0199999999999" type="line"/>
      <point x="204.556" y="532.0199999999999" type="line"/>
      <point x="204.556" y="262.432" type="line" smooth="yes"/>
      <point x="204.556" y="173.968"/>
      <point x="181.484" y="152.276"/>
      <point x="128.444" y="152.276" type="curve" smooth="yes"/>
      <point x="104.95200000000001" y="152.276"/>
      <point x="70.936" y="159.112"/>
      <point x="34.952" y="168.48000000000002" type="curve"/>
    </contour>
  </outline>
</glyph>
<glyph name="K" format="2">
  <advance width="593.24"/>
  <unicode hex="004B"/>
  <anchor x="296.85999999999996" y="700.0" name="top"/>
  <anchor x="300.54" y="0.0" name="bottom"/>
  <outline>
    <contour>
      <point x="541.5400000000001" y="-10.0" type="curve" smooth="yes"/>
      <point x="549.84" y="-10.0"/>
      <point x="558.14" y="-10.0"/>
      <point x="568.58" y="-8.0" type="curve"/>
      <point x="568.58" y="186.32" type="line"/>
      <point x="564.58" y="186.32"/>
      <point x="560.0799999999999" y="186.32"/>
      <point x="556.5799999999999" y="186.32" type="curve" smooth="yes"/>
      <point x="529.22" y="186.68"/>
      <point x="499.56" y="200.34"/>
      <point x="429.41999999999996" y="263.52" type="curve" smooth="yes"/>
      <point x="202.04000000000002" y="468.9800000000001" type="line"/>
      <point x="202.04000000000002" y="700.0" type="line"/>
      <point x="43.68000000000001" y="700.0" type="line"/>
      <point x="43.68000000000001" y="0.0" type="line"/>
      <point x="202.04000000000002" y="0.0" type="line"/>
      <point x="202.04000000000002" y="217.72000000000003" type="line"/>
      <point x="376.41999999999996" y="62.58" type="line" smooth="yes"/>
      <point x="430.52" y="14.48"/>
      <point x="478.5" y="-10.0"/>
    </contour>
    <contour>
      <point x="314.99999999999994" y="274.82" type="line"/>
      <point x="435.04" y="380.96"/>
      <point x="539.02" y="503.29999999999995"/>
      <point x="582.38" y="663.9599999999999" type="curve"/>
      <point x="438.18" y="701.6999999999999" type="line"/>
      <point x="398.58000000000004" y="570.1"/>
      <point x="290.16" y="452.23999999999995"/>
      <point x="225.1" y="399.26000000000005" type="curve"/>
    </contour>
  </outline>
</glyph>
<glyph name="L" format="2">
  <advance width="451.14"/>
  <unicode hex="004C"/>
  <anchor x="225.92800000000003" y="350.0" name="center"/>
  <anchor x="126.29199999999999" y="700.0" name="top"/>
  <anchor x="282.24" y="700.0" name="topright"/>
  <anchor x="237.108" y="0.0" name="bottom"/>
  <outline>
    <contour>
      <point x="36.828" y="0.0" type="line"/>
      <point x="436.97999999999996" y="0.0" type="line"/>
      <point x="436.97999999999996" y="166.432" type="line"/>
      <point x="215.756" y="166.432" type="line"/>
      <point x="215.756" y="700.0" type="line"/>
      <point x="36.828" y="700.0" type="line"/>
    </contour>
  </outline>
</glyph>
<glyph name="M" format="2">
  <advance width="659.344"/>
  <unicode hex="004D"/>
  <outline>
    <contour>
      <point x="37.028" y="0.0" type="line"/>
      <point x="198.584" y="0.0" type="line"/>
      <point x="198.584" y="412.10800000000006" type="line"/>
      <point x="284.31600000000003" y="144.11999999999998" type="line"/>
      <point x="371.79200000000003" y="144.11999999999998" type="line"/>
      <point x="460.75999999999993" y="415.032" type="line"/>
      <point x="460.75999999999993" y="0.0" type="line"/>
      <point x="622.316" y="0.0" type="line"/>
      <point x="622.316" y="700.0" type="line"/>
      <point x="441.3399999999999" y="700.0" type="line"/>
      <point x="332.924" y="385.98799999999994" type="line"/>
      <point x="225.38400000000001" y="700.0" type="line"/>
      <point x="37.028" y="700.0" type="line"/>
    </contour>
  </outline>
</glyph>
<glyph name="N" format="2">
  <advance width="561.4100000000001"/>
  <unicode hex="004E"/>
  <anchor x="280.91999999999996" y="700.0" name="top"/>
  <anchor x="280.91999999999996" y="0.0" name="bottom"/>
  <outline>
    <contour>
      <point x="36.769999999999996" y="0.0" type="line"/>
      <point x="194.51" y="0.0" type="line"/>
      <point x="194.51" y="351.72999999999996" type="line"/>
      <point x="348.47999999999996" y="-0.28" type="line"/>
      <point x="524.6400000000001" y="-0.28" type="line"/>
      <point x="524.6400000000001" y="700.0" type="line"/>
      <point x="367.26" y="700.0" type="line"/>
      <point x="367.26" y="329.07" type="line"/>
      <point x="213.72" y="700.28" type="line"/>
      <point x="36.769999999999996" y="700.28" type="line"/>
    </contour>
  </outline>
</glyph>
<glyph name="O" format="2">
  <advance width="555.35"/>
  <unicode hex="004F"/>
  <anchor x="370.46" y="7.74" name="ogonek"/>
  <anchor x="278.03999999999996" y="700.0" name="top"/>
  <anchor x="433.77000000000004" y="695.5400000000001" name="topright"/>
  <anchor x="277.75" y="0.0" name="bottom"/>
  <outline>
    <contour>
      <point x="278.03999999999996" y="144.52" type="curve" smooth="yes"/>
      <point x="224.77" y="144.52"/>
      <point x="200.89" y="182.06000000000003"/>
      <point x="200.89" y="349.43" type="curve" smooth="yes"/>
      <point x="200.89" y="516.85"/>
      <point x="224.63" y="555.7600000000001"/>
      <point x="278.03999999999996" y="555.7600000000001" type="curve" smooth="yes"/>
      <point x="333.31" y="555.7600000000001"/>
      <point x="355.11" y="516.9200000000001"/>
      <point x="355.11" y="350.71999999999997" type="curve" smooth="yes"/>
      <point x="355.11" y="185.07999999999998"/>
      <point x="332.59000000000003" y="144.52"/>
    </contour>
    <contour>
      <point x="277.75" y="-10.0" type="curve" smooth="yes"/>
      <point x="451.51" y="-10.0"/>
      <point x="537.0" y="80.86"/>
      <point x="537.0" y="352.29" type="curve" smooth="yes"/>
      <point x="537.0" y="619.1399999999999"/>
      <point x="455.17" y="710.0"/>
      <point x="278.03999999999996" y="710.0" type="curve" smooth="yes"/>
      <point x="101.05" y="710.0"/>
      <point x="18.35" y="617.78"/>
      <point x="18.35" y="349.14" type="curve" smooth="yes"/>
      <point x="18.35" y="80.06"/>
      <point x="104.2" y="-10.0"/>
    </contour>
  </outline>
</glyph>
<glyph name="P" format="2">
  <advance width="551.34"/>
  <unicode hex="0050"/>
  <outline>
    <contour>
      <point x="36.828" y="0.0" type="line"/>
      <point x="215.756" y="0.0" type="line"/>
      <point x="215.756" y="176.78" type="line"/>
      <point x="268.368" y="173.116"/>
      <point x="263.828" y="173.088"/>
      <point x="313.18" y="173.088" type="curve" smooth="yes"/>
      <point x="475.08400000000006" y="173.088"/>
      <point x="536.808" y="259.892"/>
      <point x="536.808" y="447.548" type="curve" smooth="yes"/>
      <point x="536.808" y="629.9039999999999"/>
      <point x="476.916" y="710.0"/>
      <point x="269.98800000000006" y="710.0" type="curve" smooth="yes"/>
      <point x="238.032" y="710.0"/>
      <point x="158.048" y="708.516"/>
      <point x="36.828" y="701.8240000000001" type="curve"/>
    </contour>
    <contour>
      <point x="216.444" y="553.1" type="line"/>
      <point x="250.836" y="556.412"/>
      <point x="263.588" y="556.58"/>
      <point x="282.99999999999994" y="556.58" type="curve" smooth="yes"/>
      <point x="341.13200000000006" y="556.58"/>
      <point x="356.676" y="525.136"/>
      <point x="356.676" y="455.296" type="curve" smooth="yes"/>
      <point x="356.676" y="358.972"/>
      <point x="342.328" y="325.18399999999997"/>
      <point x="266.33599999999996" y="325.18399999999997" type="curve" smooth="yes"/>
      <point x="248.93200000000002" y="325.18399999999997"/>
      <point x="238.18" y="325.44"/>
      <point x="216.444" y="327.7" type="curve"/>
    </contour>
  </outline>
</glyph>
<glyph name="Q" format="2">
  <advance width="555.6080000000001"/>
  <unicode hex="0051"/>
  <outline>
    <contour>
      <point x="412.872" y="48.064" type="curve"/>
      <point x="271.71999999999997" y="10.132" type="line"/>
      <point x="299.816" y="-116.88000000000001"/>
      <point x="342.544" y="-175.616"/>
      <point x="434.24" y="-175.616" type="curve" smooth="yes"/>
      <point x="462.904" y="-175.616"/>
      <point x="492.23599999999993" y="-169.756"/>
      <point x="517.5640000000001" y="-160.648" type="curve"/>
      <point x="498.67999999999995" y="-0.2320000000000073" type="line"/>
      <point x="488.532" y="-4.7120000000000095"/>
      <point x="476.82" y="-7.61600000000001"/>
      <point x="464.76" y="-7.61600000000001" type="curve" smooth="yes"/>
      <point x="440.37199999999996" y="-7.61600000000001"/>
      <point x="426.15999999999997" y="12.283999999999976"/>
    </contour>
    <component base="O"/>
  </outline>
</glyph>
<glyph name="R" format="2">
  <advance width="590.8199999999999"/>
  <unicode hex="0052"/>
  <anchor x="288.36" y="700.0" name="top"/>
  <anchor x="292.78000000000003" y="0.0" name="bottom"/>
  <outline>
    <contour>
      <point x="527.96" y="-10.0" type="curve" smooth="yes"/>
      <point x="552.82" y="-10.0"/>
      <point x="566.78" y="-8.219999999999999"/>
      <point x="577.3000000000001" y="-6.0" type="curve"/>
      <point x="577.46" y="170.92000000000002" type="line"/>
      <point x="573.52" y="170.92000000000002"/>
      <point x="567.6800000000001" y="170.78"/>
      <point x="564.24" y="170.78" type="curve" smooth="yes"/>
      <point x="516.72" y="170.78"/>
      <point x="465.46" y="214.27999999999997"/>
      <point x="419.68" y="272.26000000000005" type="curve"/>
      <point x="503.54" y="299.24"/>
      <point x="541.08" y="380.26"/>
      <point x="541.08" y="484.46000000000004" type="curve" smooth="yes"/>
      <point x="541.08" y="640.06"/>
      <point x="454.88" y="709.28"/>
      <point x="283.5" y="709.28" type="curve" smooth="yes"/>
      <point x="192.46" y="709.28"/>
      <point x="124.24" y="705.5600000000001"/>
      <point x="43.68000000000001" y="699.34" type="curve"/>
      <point x="43.68000000000001" y="0.0" type="line"/>
      <point x="200.32000000000002" y="0.0" type="line"/>
      <point x="200.32000000000002" y="218.52000000000004" type="line"/>
      <point x="223.08" y="217.88000000000002"/>
      <point x="243.85999999999999" y="217.52000000000004"/>
      <point x="263.52" y="217.52000000000004" type="curve" smooth="yes"/>
      <point x="269.58000000000004" y="217.52000000000004"/>
      <point x="277.43999999999994" y="217.66000000000003"/>
      <point x="283.86" y="217.58" type="curve"/>
      <point x="367.64" y="30.62"/>
      <point x="446.17999999999995" y="-10.0"/>
    </contour>
    <contour>
      <point x="280.38" y="341.44" type="curve" smooth="yes"/>
      <point x="252.28000000000003" y="341.44"/>
      <point x="229.26000000000002" y="342.8"/>
      <point x="200.32000000000002" y="344.3" type="curve"/>
      <point x="200.32000000000002" y="557.02" type="line"/>
      <point x="233.73999999999998" y="560.52"/>
      <point x="250.82" y="561.38"/>
      <point x="279.18" y="561.38" type="curve" smooth="yes"/>
      <point x="356.88" y="561.38"/>
      <point x="382.02" y="532.3000000000001"/>
      <point x="382.02" y="458.96000000000004" type="curve" smooth="yes"/>
      <point x="382.02" y="376.97999999999996"/>
      <point x="353.6" y="341.44"/>
    </contour>
  </outline>
</glyph>
<glyph name="S" format="2">
  <advance width="511.41999999999996"/>
  <unicode hex="0053"/>
  <anchor x="258.54999999999995" y="700.0" name="top"/>
  <anchor x="249.044" y="0.0" name="bottom"/>
  <outline>
    <contour>
      <point x="477.074" y="675.384" type="line"/>
      <point x="438.48400000000004" y="691.9700000000001"/>
      <point x="351.202" y="710.0"/>
      <point x="273.44" y="710.0" type="curve" smooth="yes"/>
      <point x="85.0" y="710.0"/>
      <point x="17.132" y="607.046"/>
      <point x="17.132" y="497.054" type="curve" smooth="yes"/>
      <point x="17.132" y="397.28000000000003"/>
      <point x="56.02000000000001" y="337.932"/>
      <point x="155.24199999999996" y="295.27200000000005" type="curve" smooth="yes"/>
      <point x="270.316" y="250.1"/>
      <point x="317.438" y="232.66199999999998"/>
      <point x="317.438" y="196.498" type="curve" smooth="yes"/>
      <point x="317.438" y="163.316"/>
      <point x="291.876" y="141.432"/>
      <point x="231.18200000000002" y="141.432" type="curve" smooth="yes"/>
      <point x="180.98199999999997" y="141.432"/>
      <point x="111.376" y="152.354"/>
      <point x="38.44199999999999" y="177.89999999999998" type="curve"/>
      <point x="4.2139999999999995" y="32.55199999999999" type="line"/>
      <point x="81.608" y="0.338"/>
      <point x="165.734" y="-10.0"/>
      <point x="229.10399999999998" y="-10.0" type="curve" smooth="yes"/>
      <point x="410.66" y="-10.0"/>
      <point x="499.486" y="78.642"/>
      <point x="499.486" y="207.30999999999997" type="curve" smooth="yes"/>
      <point x="499.486" y="315.326"/>
      <point x="453.44199999999995" y="369.588"/>
      <point x="336.508" y="410.6" type="curve" smooth="yes"/>
      <point x="230.682" y="447.46"/>
      <point x="201.62" y="464.968"/>
      <point x="201.62" y="498.976" type="curve" smooth="yes"/>
      <point x="201.62" y="535.556"/>
      <point x="231.026" y="553.6160000000001"/>
      <point x="282.974" y="553.6160000000001" type="curve" smooth="yes"/>
      <point x="332.9320000000001" y="553.6160000000001"/>
      <point x="396.30199999999996" y="545.6160000000001"/>
      <point x="443.276" y="528.17" type="curve"/>
    </contour>
  </outline>
</glyph>
<glyph name="T" format="2">
  <advance width="508.51200000000006"/>
  <unicode hex="0054"/>
  <anchor x="254.25600000000003" y="700.0" name="top"/>
  <anchor x="254.25600000000003" y="0.0" name="bottom"/>
  <outline>
    <contour>
      <point x="494.88399999999996" y="530.8439999999999" type="line"/>
      <point x="494.88399999999996" y="700.0" type="line"/>
      <point x="13.628" y="700.0" type="line"/>
      <point x="13.628" y="530.8439999999999" type="line"/>
      <point x="165.48" y="530.8439999999999" type="line"/>
      <point x="165.48" y="0.0" type="line"/>
      <point x="343.72" y="0.0" type="line"/>
      <point x="343.72" y="530.8439999999999" type="line"/>
    </contour>
  </outline>
</glyph>
<glyph name="U" format="2">
  <advance width="554.76"/>
  <unicode hex="0055"/>
  <anchor x="362.53200000000004" y="1.376" name="ogonek"/>
  <anchor x="277.78" y="700.0" name="top"/>
  <anchor x="521.9119999999999" y="700.0" name="topright"/>
  <anchor x="277.78" y="0.0" name="bottom"/>
  <outline>
    <contour>
      <point x="32.848" y="213.984" type="line"/>
      <point x="32.848" y="52.16"/>
      <point x="118.99200000000002" y="-10.0"/>
      <point x="276.404" y="-10.0" type="curve" smooth="yes"/>
      <point x="438.632" y="-10.0"/>
      <point x="521.9119999999999" y="52.16"/>
      <point x="521.9119999999999" y="213.984" type="curve" smooth="yes"/>
      <point x="521.9119999999999" y="700.0" type="line"/>
      <point x="343.67199999999997" y="700.0" type="line"/>
      <point x="343.67199999999997" y="202.288" type="line" smooth="yes"/>
      <point x="343.67199999999997" y="161.392"/>
      <point x="320.272" y="144.332"/>
      <point x="276.92" y="144.332" type="curve" smooth="yes"/>
      <point x="235.46" y="144.332"/>
      <point x="209.71200000000002" y="159.844"/>
      <point x="209.71200000000002" y="202.288" type="curve" smooth="yes"/>
      <point x="209.71200000000002" y="700.0" type="line"/>
      <point x="32.848" y="700.0" type="line"/>
    </contour>
  </outline>
</glyph>
<glyph name="V" format="2">
  <advance width="548.2760000000001"/>
  <unicode hex="0056"/>
  <outline>
    <contour>
      <point x="164.49200000000002" y="0.0" type="line"/>
      <point x="388.74" y="0.0" type="line"/>
      <point x="549.3159999999999" y="699.86" type="line"/>
      <point x="354.512" y="700.592" type="line"/>
      <point x="276.96" y="157.65999999999997" type="line"/>
      <point x="195.00000000000003" y="700.592" type="line"/>
      <point x="-1.0400000000000005" y="699.86" type="line"/>
    </contour>
  </outline>
</glyph>
<glyph name="W" format="2">
  <advance width="696.22"/>
  <unicode hex="0057"/>
  <anchor x="348.21999999999997" y="700.0" name="top"/>
  <anchor x="348.21999999999997" y="0.0" name="bottom"/>
  <outline>
    <contour>
      <point x="587.2639999999999" y="0.0" type="line"/>
      <point x="696.572" y="700.016" type="line"/>
      <point x="502.52399999999994" y="700.4359999999999" type="line"/>
      <point x="483.25199999999995" y="177.856" type="line"/>
      <point x="421.952" y="653.9719999999999" type="line"/>
      <point x="277.28000000000003" y="653.9719999999999" type="line"/>
      <point x="213.05599999999998" y="177.88799999999998" type="line"/>
      <point x="192.664" y="700.4359999999999" type="line"/>
      <point x="-0.3520000000000003" y="700.016" type="line"/>
      <point x="106.73599999999999" y="0.0" type="line"/>
      <point x="291.92" y="0.0" type="line"/>
      <point x="346.784" y="389.80000000000007" type="line"/>
      <point x="396.568" y="0.0" type="line"/>
    </contour>
  </outline>
</glyph>
<glyph name="X" format="2">
  <advance width="552.608"/>
  <unicode hex="0058"/>
  <outline>
    <contour>
      <point x="-1.0720000000000007" y="0.276" type="line"/>
      <point x="215.472" y="-0.844" type="line"/>
      <point x="278.546" y="246.93800000000002" type="line"/>
      <point x="340.62" y="-0.844" type="line"/>
      <point x="553.266" y="0.276" type="line"/>
      <point x="408.24" y="358.206" type="line"/>
      <point x="543.906" y="699.6540000000001" type="line"/>
      <point x="337.34599999999995" y="700.634" type="line"/>
      <point x="278.998" y="464.46000000000004" type="line"/>
      <point x="221.688" y="700.634" type="line"/>
      <point x="11.782000000000002" y="699.6540000000001" type="line"/>
      <point x="147.148" y="355.552" type="line"/>
    </contour>
  </outline>
</glyph>
<glyph name="Y" format="2">
  <advance width="547.2"/>
  <unicode hex="0059"/>
  <anchor x="273.712" y="700.0" name="top"/>
  <anchor x="273.796" y="0.0" name="bottom"/>
  <outline>
    <contour>
      <point x="184.44400000000002" y="0.0" type="line"/>
      <point x="362.68399999999997" y="0.0" type="line"/>
      <point x="362.68399999999997" y="226.02" type="line"/>
      <point x="548.104" y="699.44" type="line"/>
      <point x="346.232" y="700.56" type="line"/>
      <point x="274.25200000000007" y="344.15199999999993" type="line"/>
      <point x="201.208" y="700.56" type="line"/>
      <point x="-1.3519999999999992" y="699.44" type="line"/>
      <point x="184.44400000000002" y="226.02" type="line"/>
    </contour>
  </outline>
</glyph>
<glyph name="Z" format="2">
  <advance width="507.68000000000006"/>
  <unicode hex="005A"/>
  <anchor x="254.46000000000006" y="350.0" name="center"/>
  <anchor x="254.46000000000006" y="0.0" name="bottom"/>
  <anchor x="258.336" y="700.0" name="top"/>
  <outline>
    <contour>
      <point x="16.267999999999997" y="0.0" type="line"/>
      <point x="490.524" y="0.0" type="line"/>
      <point x="490.524" y="157.31199999999998" type="line"/>
      <point x="223.67600000000002" y="157.31199999999998" type="line"/>
      <point x="223.67600000000002" y="158.59599999999998" type="line"/>
      <point x="480.424" y="541.24" type="line"/>
      <point x="480.424" y="700.0" type="line"/>
      <point x="29.416" y="700.0" type="line"/>
      <point x="29.416" y="542.828" type="line"/>
      <point x="276.03999999999996" y="542.828" type="line"/>
      <point x="276.03999999999996" y="541.404" type="line"/>
      <point x="16.267999999999997" y="158.89999999999998" type="line"/>
    </contour>
  </outline>
</glyph>
<glyph name="bracketleft" format="2">
  <advance width="282.632"/>
  <unicode hex="005B"/>
  <outline>
    <contour>
      <point x="159.804" y="-78.2" type="line"/>
      <point x="159.804" y="608.1999999999999" type="line"/>
      <point x="268.632" y="608.1999999999999" type="line"/>
      <point x="268.632" y="740.0" type="line"/>
      <point x="25.940000000000005" y="740.0" type="line"/>
      <point x="25.940000000000005" y="-210.0" type="line"/>
      <point x="268.632" y="-210.0" type="line"/>
      <point x="268.632" y="-78.2" type="line"/>
    </contour>
  </outline>
</glyph>
<glyph name="backslash" format="2">
  <advance width="412.916"/>
  <unicode hex="005C"/>
  <outline>
    <contour>
      <point x="139.988" y="740.0" type="line"/>
      <point x="-4.656000000000001" y="740.0" type="line"/>
      <point x="273.616" y="-210.0" type="line"/>
      <point x="417.572" y="-210.0" type="line"/>
    </contour>
  </outline>
</glyph>
<glyph name="bracketright" format="2">
  <advance width="282.632"/>
  <unicode hex="005D"/>
  <outline>
    <contour>
      <point x="13.999999999999998" y="-78.2" type="line"/>
      <point x="13.999999999999998" y="-210.0" type="line"/>
      <point x="256.692" y="-210.0" type="line"/>
      <point x="256.692" y="740.0" type="line"/>
      <point x="13.999999999999998" y="740.0" type="line"/>
      <point x="13.999999999999998" y="608.1999999999999" type="line"/>
      <point x="122.828" y="608.1999999999999" type="line"/>
      <point x="122.828" y="-78.2" type="line"/>
    </contour>
  </outline>
</glyph>
<glyph name="asciicircum" format="2">
  <advance width="480.584"/>
  <unicode hex="005E"/>
  <outline>
    <contour>
      <point x="47.660000000000004" y="240.216" type="line"/>
      <point x="177.07600000000002" y="240.216" type="line"/>
      <point x="240.292" y="521.2760000000001" type="line"/>
      <point x="304.368" y="240.216" type="line"/>
      <point x="432.924" y="240.216" type="line"/>
      <point x="323.564" y="701.4" type="line"/>
      <point x="157.02" y="701.4" type="line"/>
    </contour>
  </outline>
</glyph>
<glyph name="underscore" format="2">
  <advance width="705.664"/>
  <unicode hex="005F"/>
  <outline>
    <contour>
      <point x="17.2" y="-198.952" type="line"/>
      <point x="688.4639999999999" y="-198.952" type="line"/>
      <point x="688.4639999999999" y="-51.672" type="line"/>
      <point x="17.2" y="-51.672" type="line"/>
    </contour>
  </outline>
</glyph>
<glyph name="a" format="2">
  <advance width="502.18"/>
  <unicode hex="0061"/>
  <anchor x="496.35999999999996" y="13.32" name="ogonek"/>
  <anchor x="252.46" y="0.0" name="bottom"/>
  <anchor x="244.20000000000002" y="547.1999999999999" name="top"/>
  <outline>
    <contour>
      <point x="17.44" y="158.6" type="curve" smooth="yes"/>
      <point x="17.44" y="70.38"/>
      <point x="57.04" y="-10.0"/>
      <point x="150.07999999999998" y="-10.0" type="curve" smooth="yes"/>
      <point x="220.96" y="-10.0"/>
      <point x="263.84" y="14.299999999999999"/>
      <point x="302.56" y="50.18" type="curve"/>
      <point x="319.59999999999997" y="8.86"/>
      <point x="349.34" y="-10.0"/>
      <point x="403.48" y="-10.0" type="curve" smooth="yes"/>
      <point x="445.71999999999997" y="-10.0"/>
      <point x="473.26000000000005" y="0.7399999999999997"/>
      <point x="496.35999999999996" y="13.459999999999999" type="curve"/>
      <point x="486.0" y="153.85999999999999" type="line"/>
      <point x="481.37999999999994" y="152.01999999999998"/>
      <point x="474.32" y="151.01999999999998"/>
      <point x="468.76" y="151.01999999999998" type="curve" smooth="yes"/>
      <point x="456.48" y="151.01999999999998"/>
      <point x="446.4" y="159.01999999999998"/>
      <point x="446.4" y="193.26" type="curve" smooth="yes"/>
      <point x="446.4" y="347.82" type="line" smooth="yes"/>
      <point x="446.4" y="482.44"/>
      <point x="380.38000000000005" y="557.1999999999999"/>
      <point x="221.79999999999998" y="557.1999999999999" type="curve" smooth="yes"/>
      <point x="168.74" y="557.1999999999999"/>
      <point x="93.82" y="542.88"/>
      <point x="39.339999999999996" y="522.28" type="curve"/>
      <point x="71.63999999999999" y="374.58" type="line"/>
      <point x="135.83999999999997" y="394.4"/>
      <point x="175.96" y="398.76"/>
      <point x="207.84" y="398.76" type="curve" smooth="yes"/>
      <point x="257.1" y="398.76"/>
      <point x="291.97999999999996" y="380.38"/>
      <point x="291.97999999999996" y="344.96" type="curve" smooth="yes"/>
      <point x="291.97999999999996" y="338.7" type="line"/>
      <point x="109.34" y="321.14000000000004"/>
      <point x="17.44" y="291.15999999999997"/>
    </contour>
    <contour>
      <point x="171.49999999999997" y="174.22" type="curve" smooth="yes"/>
      <point x="171.49999999999997" y="231.76000000000002"/>
      <point x="215.68" y="239.12"/>
      <point x="291.97999999999996" y="241.78" type="curve"/>
      <point x="291.97999999999996" y="139.04" type="line"/>
      <point x="268.68" y="119.94000000000001"/>
      <point x="237.2" y="110.86"/>
      <point x="212.76" y="110.86" type="curve" smooth="yes"/>
      <point x="188.76000000000002" y="110.86"/>
      <point x="171.49999999999997" y="126.22"/>
    </contour>
  </outline>
</glyph>
<glyph name="b" format="2">
  <advance width="498.088"/>
  <unicode hex="0062"/>
  <outline>
    <contour>
      <point x="30.759999999999998" y="18.063999999999997" type="line"/>
      <point x="99.38000000000001" y="0.8759999999999999"/>
      <point x="174.78" y="-10.0"/>
      <point x="233.47200000000004" y="-10.0" type="curve" smooth="yes"/>
      <point x="411.468" y="-10.0"/>
      <point x="480.9" y="72.11599999999999"/>
      <point x="480.9" y="289.15200000000004" type="curve" smooth="yes"/>
      <point x="480.9" y="470.452"/>
      <point x="427.14" y="557.2"/>
      <point x="317.91999999999996" y="557.2" type="curve" smooth="yes"/>
      <point x="281.192" y="557.2"/>
      <point x="239.712" y="543.976"/>
      <point x="205.56" y="521.88" type="curve"/>
      <point x="205.56" y="740.0" type="line"/>
      <point x="30.759999999999998" y="740.0" type="line"/>
    </contour>
    <contour>
      <point x="205.56" y="130.34" type="curve"/>
      <point x="205.56" y="386.24" type="line"/>
      <point x="224.40800000000002" y="396.652"/>
      <point x="239.352" y="401.20000000000005"/>
      <point x="254.58" y="401.20000000000005" type="curve" smooth="yes"/>
      <point x="284.54400000000004" y="401.20000000000005"/>
      <point x="297.844" y="371.736"/>
      <point x="297.844" y="272.29600000000005" type="curve" smooth="yes"/>
      <point x="297.844" y="153.53199999999998"/>
      <point x="282.628" y="124.016"/>
      <point x="244.43600000000004" y="124.016" type="curve" smooth="yes"/>
      <point x="232.416" y="124.016"/>
      <point x="219.74" y="126.03999999999999"/>
    </contour>
  </outline>
</glyph>
<glyph name="c" format="2">
  <advance width="431.53200000000004"/>
  <unicode hex="0063"/>
  <anchor x="255.94" y="547.1999999999999" name="top"/>
  <anchor x="260.35200000000003" y="0.0" name="bottom"/>
  <outline>
    <contour>
      <point x="17.328" y="269.176" type="curve" smooth="yes"/>
      <point x="17.328" y="81.064"/>
      <point x="92.36399999999999" y="-10.0"/>
      <point x="249.29200000000003" y="-10.0" type="curve" smooth="yes"/>
      <point x="308.724" y="-10.0"/>
      <point x="378.496" y="1.0199999999999996"/>
      <point x="421.288" y="15.755999999999998" type="curve"/>
      <point x="389.97200000000004" y="167.968" type="line"/>
      <point x="353.572" y="160.192"/>
      <point x="323.27200000000005" y="155.708"/>
      <point x="291.404" y="155.708" type="curve" smooth="yes"/>
      <point x="231.89199999999997" y="155.708"/>
      <point x="199.824" y="190.716"/>
      <point x="199.824" y="275.244" type="curve" smooth="yes"/>
      <point x="199.824" y="358.70799999999997"/>
      <point x="229.79599999999996" y="390.084"/>
      <point x="291.59200000000004" y="390.084" type="curve" smooth="yes"/>
      <point x="322.65999999999997" y="390.084"/>
      <point x="354.51199999999994" y="386.66"/>
      <point x="385.892" y="379.4000000000001" type="curve"/>
      <point x="412.8" y="538.524" type="line"/>
      <point x="376.6" y="549.96"/>
      <point x="317.584" y="557.1999999999999"/>
      <point x="262.86" y="557.1999999999999" type="curve" smooth="yes"/>
      <point x="100.612" y="557.1999999999999"/>
      <point x="17.328" y="460.208"/>
    </contour>
  </outline>
</glyph>
<glyph name="d" format="2">
  <advance width="498.97600000000006"/>
  <unicode hex="0064"/>
  <anchor x="248.91599999999997" y="275.0" name="center"/>
  <anchor x="243.39000000000001" y="740.0" name="top"/>
  <anchor x="506.37600000000003" y="740.0" name="topright"/>
  <anchor x="248.91599999999997" y="0.0" name="bottom"/>
  <outline>
    <contour>
      <point x="312.612" y="-0.7160000000000001" type="line"/>
      <point x="468.28600000000006" y="-0.7160000000000001" type="line"/>
      <point x="468.28600000000006" y="740.0" type="line"/>
      <point x="292.63" y="740.0" type="line"/>
      <point x="292.63" y="551.7180000000001" type="line"/>
      <point x="274.74800000000005" y="555.2040000000001"/>
      <point x="253.06" y="557.2"/>
      <point x="234.948" y="557.2" type="curve" smooth="yes"/>
      <point x="89.28800000000001" y="557.2"/>
      <point x="17.145999999999997" y="458.572"/>
      <point x="17.145999999999997" y="264.25399999999996" type="curve" smooth="yes"/>
      <point x="17.145999999999997" y="84.152"/>
      <point x="72.52399999999999" y="-10.0"/>
      <point x="176.36200000000002" y="-10.0" type="curve" smooth="yes"/>
      <point x="219.296" y="-10.0"/>
      <point x="260.87600000000003" y="2.999999999999999"/>
      <point x="295.856" y="26.625999999999994" type="curve"/>
    </contour>
    <contour>
      <point x="292.48600000000005" y="156.916" type="line"/>
      <point x="275.73" y="148.708"/>
      <point x="259.35400000000004" y="144.08999999999997"/>
      <point x="244.8" y="144.08999999999997" type="curve" smooth="yes"/>
      <point x="214.372" y="144.08999999999997"/>
      <point x="201.044" y="176.83999999999997"/>
      <point x="201.044" y="286.544" type="curve" smooth="yes"/>
      <point x="201.044" y="393.668"/>
      <point x="216.162" y="420.952"/>
      <point x="253.56799999999998" y="420.952" type="curve" smooth="yes"/>
      <point x="266.53200000000004" y="420.952"/>
      <point x="278.34800000000007" y="419.026"/>
      <point x="292.48600000000005" y="412.67600000000004" type="curve"/>
    </contour>
  </outline>
</glyph>
<glyph name="e" format="2">
  <advance width="479.368"/>
  <unicode hex="0065"/>
  <anchor x="409.356" y="10.588000000000001" name="ogonek"/>
  <anchor x="243.28800000000004" y="0.0" name="bottom"/>
  <anchor x="248.17599999999996" y="547.1999999999999" name="top"/>
  <outline>
    <contour>
      <point x="249.75600000000003" y="-10.0" type="curve" smooth="yes"/>
      <point x="329.716" y="-10.0"/>
      <point x="391.90399999999994" y="0.8680000000000009"/>
      <point x="457.004" y="25.332" type="curve"/>
      <point x="434.94399999999996" y="162.28799999999998" type="line"/>
      <point x="383.752" y="150.004"/>
      <point x="332.736" y="140.71599999999998"/>
      <point x="289.168" y="140.71599999999998" type="curve" smooth="yes"/>
      <point x="218.364" y="140.71599999999998"/>
      <point x="197.45999999999998" y="163.172"/>
      <point x="197.17199999999997" y="206.864" type="curve" smooth="yes"/>
      <point x="197.17199999999997" y="210.276"/>
      <point x="197.17199999999994" y="212.82799999999997"/>
      <point x="197.31199999999998" y="216.24" type="curve"/>
      <point x="283.00399999999996" y="219.108"/>
      <point x="397.7679999999999" y="231.112"/>
      <point x="458.40399999999994" y="237.54399999999995" type="curve"/>
      <point x="459.40799999999996" y="256.43600000000004"/>
      <point x="460.26399999999995" y="286.32000000000005"/>
      <point x="460.26399999999995" y="300.34799999999996" type="curve" smooth="yes"/>
      <point x="460.26399999999995" y="482.584"/>
      <point x="397.05600000000004" y="557.1999999999999"/>
      <point x="254.29999999999995" y="557.1999999999999" type="curve" smooth="yes"/>
      <point x="106.84" y="557.1999999999999"/>
      <point x="17.216" y="477.004"/>
      <point x="17.216" y="264.484" type="curve" smooth="yes"/>
      <point x="17.216" y="70.58800000000001"/>
      <point x="99.324" y="-10.0"/>
    </contour>
    <contour>
      <point x="197.59599999999998" y="321.168" type="curve"/>
      <point x="202.0" y="407.616"/>
      <point x="218.70000000000002" y="425.688"/>
      <point x="244.99600000000007" y="425.688" type="curve" smooth="yes"/>
      <point x="272.98400000000004" y="425.688"/>
      <point x="286.04800000000006" y="406.088"/>
      <point x="287.48" y="325.42" type="curve"/>
      <point x="266.212" y="323.71600000000007"/>
      <point x="228.6" y="321.596"/>
    </contour>
  </outline>
</glyph>
<glyph name="f" format="2">
  <advance width="340.036"/>
  <unicode hex="0066"/>
  <outline>
    <contour>
      <point x="66.452" y="0.0" type="line"/>
      <point x="237.81199999999998" y="0.0" type="line"/>
      <point x="237.81199999999998" y="378.28400000000005" type="line"/>
      <point x="322.29999999999995" y="378.28400000000005" type="line"/>
      <point x="322.29999999999995" y="514.96" type="line"/>
      <point x="238.5" y="514.96" type="line"/>
      <point x="238.5" y="529.516" type="line" smooth="yes"/>
      <point x="238.5" y="582.4040000000001"/>
      <point x="257.236" y="602.688"/>
      <point x="293.32" y="602.688" type="curve" smooth="yes"/>
      <point x="310.26800000000003" y="602.688"/>
      <point x="330.604" y="599.4879999999999"/>
      <point x="352.87200000000007" y="592.636" type="curve"/>
      <point x="377.54" y="722.664" type="line"/>
      <point x="334.01200000000006" y="741.984"/>
      <point x="293.212" y="750.028"/>
      <point x="247.628" y="750.028" type="curve" smooth="yes"/>
      <point x="129.392" y="750.028"/>
      <point x="66.452" y="673.632"/>
      <point x="66.452" y="531.924" type="curve" smooth="yes"/>
      <point x="66.452" y="514.96" type="line"/>
      <point x="8.34" y="505.89200000000005" type="line"/>
      <point x="8.34" y="378.28400000000005" type="line"/>
      <point x="66.452" y="378.28400000000005" type="line"/>
    </contour>
  </outline>
</glyph>
<glyph name="g" format="2">
  <advance width="495.93199999999996"/>
  <unicode hex="0067"/>
  <anchor x="228.104" y="547.1999999999999" name="top"/>
  <anchor x="239.86400000000003" y="-212.0" name="bottom"/>
  <outline>
    <contour>
      <point x="218.228" y="-220.0" type="curve" smooth="yes"/>
      <point x="388.26000000000005" y="-220.0"/>
      <point x="478.336" y="-146.948"/>
      <point x="478.336" y="-21.700000000000003" type="curve" smooth="yes"/>
      <point x="478.336" y="74.188"/>
      <point x="421.85999999999996" y="130.92799999999997"/>
      <point x="323.536" y="130.92799999999997" type="curve" smooth="yes"/>
      <point x="193.808" y="130.92799999999997" type="line" smooth="yes"/>
      <point x="166.192" y="130.92799999999997"/>
      <point x="152.092" y="140.6"/>
      <point x="152.092" y="160.1" type="curve" smooth="yes"/>
      <point x="152.092" y="179.17600000000002"/>
      <point x="159.9" y="189.568"/>
      <point x="180.272" y="202.396" type="curve"/>
      <point x="93.92799999999998" y="224.96" type="line"/>
      <point x="54.08" y="200.12"/>
      <point x="25.632000000000005" y="163.24400000000003"/>
      <point x="25.632000000000005" y="106.772" type="curve" smooth="yes"/>
      <point x="25.632000000000005" y="30.28"/>
      <point x="87.724" y="-14.723999999999998"/>
      <point x="187.096" y="-14.723999999999998" type="curve" smooth="yes"/>
      <point x="271.212" y="-14.723999999999998" type="line" smooth="yes"/>
      <point x="308.53600000000006" y="-14.723999999999998"/>
      <point x="317.016" y="-22.488"/>
      <point x="317.016" y="-42.48400000000001" type="curve" smooth="yes"/>
      <point x="317.016" y="-67.436"/>
      <point x="286.668" y="-81.604"/>
      <point x="228.24400000000003" y="-81.604" type="curve" smooth="yes"/>
      <point x="159.852" y="-81.604"/>
      <point x="137.37199999999999" y="-70.288"/>
      <point x="137.37199999999999" y="-40.88400000000001" type="curve" smooth="yes"/>
      <point x="137.37199999999999" y="-22.148000000000003"/>
      <point x="145.30400000000003" y="-12.667999999999996"/>
      <point x="163.216" y="-2.7400000000000024" type="curve"/>
      <point x="78.35600000000001" y="31.488000000000003" type="line"/>
      <point x="34.38" y="9.959999999999997"/>
      <point x="6.3519999999999985" y="-27.596"/>
      <point x="6.3519999999999985" y="-83.744" type="curve" smooth="yes"/>
      <point x="6.3519999999999985" y="-174.16"/>
      <point x="79.97600000000001" y="-220.0"/>
    </contour>
    <contour>
      <point x="229.10000000000002" y="171.88400000000001" type="curve" smooth="yes"/>
      <point x="364.548" y="171.88400000000001"/>
      <point x="434.052" y="237.056"/>
      <point x="434.052" y="364.544" type="curve" smooth="yes"/>
      <point x="434.052" y="492.17199999999997"/>
      <point x="364.548" y="557.3439999999999"/>
      <point x="229.10000000000002" y="557.3439999999999" type="curve" smooth="yes"/>
      <point x="93.51200000000001" y="557.3439999999999"/>
      <point x="24.008" y="492.17199999999997"/>
      <point x="24.008" y="364.544" type="curve" smooth="yes"/>
      <point x="24.008" y="237.056"/>
      <point x="93.51200000000001" y="171.88400000000001"/>
    </contour>
    <contour>
      <point x="229.10000000000002" y="289.16" type="curve" smooth="yes"/>
      <point x="200.96" y="289.16"/>
      <point x="188.46799999999996" y="305.068"/>
      <point x="188.46799999999996" y="364.544" type="curve" smooth="yes"/>
      <point x="188.46799999999996" y="424.29999999999995"/>
      <point x="200.96" y="440.20799999999997"/>
      <point x="229.10000000000002" y="440.20799999999997" type="curve" smooth="yes"/>
      <point x="257.24" y="440.20799999999997"/>
      <point x="269.592" y="424.29999999999995"/>
      <point x="269.592" y="364.544" type="curve" smooth="yes"/>
      <point x="269.592" y="305.068"/>
      <point x="257.24" y="289.16"/>
    </contour>
    <contour>
      <point x="405.65999999999997" y="407.0319999999999" type="line"/>
      <point x="414.78" y="424.54799999999994"/>
      <point x="427.46799999999996" y="433.82000000000005"/>
      <point x="443.004" y="433.82000000000005" type="curve" smooth="yes"/>
      <point x="454.732" y="433.82000000000005"/>
      <point x="464.60400000000004" y="432.1"/>
      <point x="473.904" y="429.812" type="curve"/>
      <point x="497.264" y="572.7879999999999" type="line"/>
      <point x="482.376" y="579.664"/>
      <point x="462.9" y="583.964"/>
      <point x="442.57200000000006" y="583.964" type="curve" smooth="yes"/>
      <point x="395.9599999999999" y="583.964"/>
      <point x="362.516" y="561.9520000000001"/>
      <point x="341.92" y="514.756" type="curve"/>
    </contour>
  </outline>
</glyph>
<glyph name="h" format="2">
  <advance width="493.994"/>
  <unicode hex="0068"/>
  <anchor x="245.24200000000002" y="395.0" name="center"/>
  <anchor x="246.96200000000002" y="0.0" name="bottom"/>
  <anchor x="251.39400000000003" y="740.0" name="top"/>
  <outline>
    <contour>
      <point x="30.689999999999998" y="0.0" type="line"/>
      <point x="205.7" y="0.0" type="line"/>
      <point x="205.7" y="384.68800000000005" type="line"/>
      <point x="222.76000000000002" y="393.78"/>
      <point x="237.874" y="399.098"/>
      <point x="253.99200000000005" y="399.098" type="curve" smooth="yes"/>
      <point x="273.988" y="399.098"/>
      <point x="288.94" y="388.25199999999995"/>
      <point x="288.94" y="356.42199999999997" type="curve" smooth="yes"/>
      <point x="288.94" y="0.0" type="line"/>
      <point x="464.596" y="0.0" type="line"/>
      <point x="464.596" y="409.45399999999995" type="line" smooth="yes"/>
      <point x="464.596" y="509.296"/>
      <point x="416.082" y="557.2"/>
      <point x="331.8" y="557.2" type="curve" smooth="yes"/>
      <point x="289.762" y="557.2"/>
      <point x="247.12399999999997" y="542.7059999999999"/>
      <point x="205.7" y="509.818" type="curve"/>
      <point x="205.7" y="740.0" type="line"/>
      <point x="30.689999999999998" y="740.0" type="line"/>
    </contour>
  </outline>
</glyph>
<glyph name="i" format="2">
  <advance width="236.32000000000002"/>
  <unicode hex="0069"/>
  <anchor x="205.532" y="0.0" name="ogonek"/>
  <anchor x="118.504" y="0.0" name="bottom"/>
  <outline>
    <contour>
      <point x="118.504" y="584.292" type="curve" smooth="yes"/>
      <point x="186.91199999999998" y="584.292"/>
      <point x="218.932" y="616.4240000000001"/>
      <point x="218.932" y="681.272" type="curve" smooth="yes"/>
      <point x="218.932" y="747.496"/>
      <point x="185.53600000000003" y="778.94"/>
      <point x="118.504" y="778.94" type="curve" smooth="yes"/>
      <point x="50.784" y="778.94"/>
      <point x="17.388" y="747.496"/>
      <point x="17.388" y="681.272" type="curve" smooth="yes"/>
      <point x="17.388" y="615.736"/>
      <point x="50.924" y="584.292"/>
    </contour>
    <contour>
      <point x="30.759999999999998" y="0.0" type="line"/>
      <point x="205.56" y="0.0" type="line"/>
      <point x="205.56" y="547.2" type="line"/>
      <point x="30.759999999999998" y="547.2" type="line"/>
    </contour>
  </outline>
</glyph>
<glyph name="j" format="2">
  <advance width="241.07999999999998"/>
  <unicode hex="006A"/>
  <outline>
    <contour>
      <point x="210.348" y="547.2" type="line"/>
      <point x="35.547999999999995" y="547.2" type="line"/>
      <point x="35.547999999999995" y="31.028" type="line" smooth="yes"/>
      <point x="35.547999999999995" y="-23.887999999999998"/>
      <point x="22.860000000000003" y="-44.748000000000005"/>
      <point x="-9.264000000000001" y="-49.227999999999994" type="curve" smooth="yes"/>
      <point x="-19.22" y="-49.956"/>
      <point x="-27.800000000000004" y="-48.47999999999999"/>
      <point x="-39.96000000000001" y="-45.48799999999999" type="curve"/>
      <point x="-58.967999999999996" y="-205.132" type="line"/>
      <point x="-27.808" y="-213.06"/>
      <point x="5.132000000000001" y="-216.86399999999998"/>
      <point x="31.824000000000005" y="-216.02399999999997" type="curve" smooth="yes"/>
      <point x="160.656" y="-210.9"/>
      <point x="210.348" y="-132.656"/>
      <point x="210.348" y="18.816000000000003" type="curve" smooth="yes"/>
    </contour>
    <contour>
      <point x="123.236" y="584.292" type="curve" smooth="yes"/>
      <point x="191.532" y="584.292"/>
      <point x="223.66400000000002" y="616.4240000000001"/>
      <point x="223.66400000000002" y="681.272" type="curve" smooth="yes"/>
      <point x="223.66400000000002" y="747.496"/>
      <point x="190.15599999999998" y="778.94"/>
      <point x="123.236" y="778.94" type="curve" smooth="yes"/>
      <point x="55.516" y="778.94"/>
      <point x="22.12" y="747.496"/>
      <point x="22.12" y="681.272" type="curve" smooth="yes"/>
      <point x="22.12" y="615.736"/>
      <point x="55.656" y="584.292"/>
    </contour>
  </outline>
</glyph>
<glyph name="k" format="2">
  <advance width="487.85999999999996"/>
  <unicode hex="006B"/>
  <anchor x="110.98" y="740.0" name="top"/>
  <anchor x="248.76" y="0.0" name="bottom"/>
  <outline>
    <contour>
      <point x="433.64" y="-10.3" type="curve" smooth="yes"/>
      <point x="447.3" y="-10.3"/>
      <point x="460.18" y="-9.299999999999999"/>
      <point x="474.86" y="-6.080000000000001" type="curve"/>
      <point x="474.08" y="162.68" type="line"/>
      <point x="470.3" y="162.68"/>
      <point x="467.59999999999997" y="162.4"/>
      <point x="464.82000000000005" y="162.4" type="curve" smooth="yes"/>
      <point x="433.14" y="162.4"/>
      <point x="401.86" y="183.44"/>
      <point x="322.12" y="274.59999999999997" type="curve" smooth="yes"/>
      <point x="184.72" y="432.64" type="line"/>
      <point x="184.72" y="740.0" type="line"/>
      <point x="37.24" y="740.0" type="line"/>
      <point x="37.24" y="0.0" type="line"/>
      <point x="184.72" y="0.0" type="line"/>
      <point x="184.72" y="186.74" type="line"/>
      <point x="282.23999999999995" y="81.16" type="line" smooth="yes"/>
      <point x="349.56" y="7.879999999999999"/>
      <point x="383.78000000000003" y="-10.3"/>
    </contour>
    <contour>
      <point x="289.59999999999997" y="221.42" type="line"/>
      <point x="377.02000000000004" y="322.34"/>
      <point x="456.08000000000004" y="444.94"/>
      <point x="476.62" y="545.9" type="curve"/>
      <point x="325.35999999999996" y="556.1999999999999" type="line"/>
      <point x="310.76" y="459.88"/>
      <point x="261.82" y="394.94"/>
      <point x="189.94" y="317.71999999999997" type="curve"/>
    </contour>
  </outline>
</glyph>
<glyph name="l" format="2">
  <advance width="278.996"/>
  <unicode hex="006C"/>
  <anchor x="139.74" y="395.0" name="center"/>
  <anchor x="118.504" y="740.0" name="top"/>
  <anchor x="243.72000000000003" y="740.0" name="topright"/>
  <anchor x="154.78000000000003" y="0.0" name="bottom"/>
  <outline>
    <contour>
      <point x="205.56" y="740.0" type="line"/>
      <point x="30.759999999999998" y="740.0" type="line"/>
      <point x="30.759999999999998" y="177.604" type="line" smooth="yes"/>
      <point x="30.759999999999998" y="41.54"/>
      <point x="78.916" y="-10.0"/>
      <point x="181.484" y="-10.0" type="curve" smooth="yes"/>
      <point x="221.828" y="-10.0"/>
      <point x="256.632" y="2.46"/>
      <point x="280.204" y="15.14" type="curve"/>
      <point x="266.91600000000005" y="156.63199999999998" type="line"/>
      <point x="254.70399999999998" y="153.584"/>
      <point x="244.284" y="151.728"/>
      <point x="236.35199999999998" y="151.728" type="curve" smooth="yes"/>
      <point x="217.616" y="151.728"/>
      <point x="205.56" y="160.052"/>
      <point x="205.56" y="198.588" type="curve" smooth="yes"/>
    </contour>
  </outline>
</glyph>
<glyph name="m" format="2">
  <advance width="735.868"/>
  <unicode hex="006D"/>
  <outline>
    <contour>
      <point x="30.759999999999998" y="0.0" type="line"/>
      <point x="206.248" y="0.0" type="line"/>
      <point x="206.248" y="384.99600000000004" type="line"/>
      <point x="219.768" y="392.97200000000004"/>
      <point x="233.36400000000003" y="398.308"/>
      <point x="247.55999999999997" y="398.308" type="curve" smooth="yes"/>
      <point x="268.456" y="398.308"/>
      <point x="280.948" y="384.536"/>
      <point x="280.948" y="356.352" type="curve" smooth="yes"/>
      <point x="280.948" y="0.0" type="line"/>
      <point x="456.436" y="0.0" type="line"/>
      <point x="456.436" y="367.70399999999995" type="line" smooth="yes"/>
      <point x="456.436" y="373.28400000000005"/>
      <point x="456.044" y="379.556"/>
      <point x="455.00399999999996" y="384.66" type="curve"/>
      <point x="469.48400000000004" y="392.812"/>
      <point x="483.464" y="398.62"/>
      <point x="498.184" y="398.62" type="curve" smooth="yes"/>
      <point x="519.02" y="398.62"/>
      <point x="530.996" y="384.99199999999996"/>
      <point x="530.996" y="356.464" type="curve" smooth="yes"/>
      <point x="530.996" y="0.0" type="line"/>
      <point x="706.4839999999999" y="0.0" type="line"/>
      <point x="706.4839999999999" y="412.88" type="line" smooth="yes"/>
      <point x="706.4839999999999" y="503.61199999999997"/>
      <point x="662.4999999999999" y="557.2"/>
      <point x="579.808" y="557.2" type="curve" smooth="yes"/>
      <point x="531.6" y="557.2"/>
      <point x="487.876" y="543.96"/>
      <point x="431.86800000000005" y="503.83200000000005" type="curve"/>
      <point x="411.712" y="538.828"/>
      <point x="378.84" y="557.0600000000001"/>
      <point x="327.292" y="557.0600000000001" type="curve" smooth="yes"/>
      <point x="283.62" y="557.0600000000001"/>
      <point x="238.836" y="544.532"/>
      <point x="189.22" y="507.44800000000004" type="curve"/>
      <point x="189.22" y="547.2" type="line"/>
      <point x="30.759999999999998" y="547.2" type="line"/>
    </contour>
  </outline>
</glyph>
<glyph name="n" format="2">
  <advance width="494.5559999999999"/>
  <unicode hex="006E"/>
  <anchor x="246.56" y="547.2" name="top"/>
  <anchor x="246.83999999999997" y="0.0" name="bottom"/>
  <outline>
    <contour>
      <point x="30.759999999999998" y="0.0" type="line"/>
      <point x="206.248" y="0.0" type="line"/>
      <point x="206.248" y="384.744" type="line"/>
      <point x="222.67600000000002" y="393.23199999999997"/>
      <point x="238.49200000000002" y="399.308"/>
      <point x="254.708" y="399.308" type="curve" smooth="yes"/>
      <point x="274.704" y="399.308"/>
      <point x="289.684" y="388.364"/>
      <point x="289.684" y="356.49199999999996" type="curve" smooth="yes"/>
      <point x="289.684" y="0.0" type="line"/>
      <point x="465.17199999999997" y="0.0" type="line"/>
      <point x="465.17199999999997" y="412.908" type="line" smooth="yes"/>
      <point x="465.17199999999997" y="502.99199999999996"/>
      <point x="421.54400000000004" y="557.2"/>
      <point x="332.376" y="557.2" type="curve" smooth="yes"/>
      <point x="284.732" y="557.2"/>
      <point x="241.10799999999998" y="544.4719999999999"/>
      <point x="189.22" y="507.22399999999993" type="curve"/>
      <point x="189.22" y="547.2" type="line"/>
      <point x="30.759999999999998" y="547.2" type="line"/>
    </contour>
  </outline>
</glyph>
<glyph name="o" format="2">
  <advance width="494.87999999999994"/>
  <unicode hex="006F"/>
  <anchor x="342.232" y="7.079999999999999" name="ogonek"/>
  <anchor x="247.43999999999997" y="547.2" name="top"/>
  <anchor x="381.704" y="537.48" name="topright"/>
  <anchor x="247.58399999999997" y="0.0" name="bottom"/>
  <outline>
    <contour>
      <point x="17.215999999999998" y="274.68799999999993" type="curve" smooth="yes"/>
      <point x="17.215999999999998" y="104.288"/>
      <point x="67.48800000000001" y="-10.0"/>
      <point x="247.58399999999997" y="-10.0" type="curve" smooth="yes"/>
      <point x="427.392" y="-10.0"/>
      <point x="477.66400000000004" y="104.288"/>
      <point x="477.66400000000004" y="274.68799999999993" type="curve" smooth="yes"/>
      <point x="477.66400000000004" y="442.488"/>
      <point x="430.936" y="557.2"/>
      <point x="247.58399999999997" y="557.2" type="curve" smooth="yes"/>
      <point x="63.888" y="557.2"/>
      <point x="17.215999999999998" y="442.488"/>
    </contour>
    <contour>
      <point x="199.04" y="274.544" type="curve" smooth="yes"/>
      <point x="199.04" y="387.736"/>
      <point x="210.216" y="409.66400000000004"/>
      <point x="247.43999999999997" y="409.66400000000004" type="curve" smooth="yes"/>
      <point x="284.12" y="409.66400000000004"/>
      <point x="295.78400000000005" y="387.736"/>
      <point x="295.78400000000005" y="274.544" type="curve" smooth="yes"/>
      <point x="295.78400000000005" y="160.128"/>
      <point x="282.64" y="138.224"/>
      <point x="247.43999999999997" y="138.224" type="curve" smooth="yes"/>
      <point x="211.552" y="138.224"/>
      <point x="199.04" y="160.128"/>
    </contour>
  </outline>
</glyph>
<glyph name="p" format="2">
  <advance width="498.776"/>
  <unicode hex="0070"/>
  <outline>
    <contour>
      <point x="30.759999999999998" y="-210.0" type="line"/>
      <point x="206.42" y="-210.0" type="line"/>
      <point x="206.42" y="-4.3919999999999995" type="line"/>
      <point x="225.912" y="-7.976"/>
      <point x="247.376" y="-10.0"/>
      <point x="263.744" y="-10.0" type="curve" smooth="yes"/>
      <point x="409.404" y="-10.0"/>
      <point x="481.588" y="89.31599999999999"/>
      <point x="481.588" y="283.648" type="curve" smooth="yes"/>
      <point x="481.588" y="463.572"/>
      <point x="426.452" y="557.2"/>
      <point x="322.736" y="557.2" type="curve" smooth="yes"/>
      <point x="278.268" y="557.2"/>
      <point x="238.852" y="545.0079999999999"/>
      <point x="197.47600000000003" y="518.096" type="curve"/>
      <point x="189.22" y="548.32" type="line"/>
      <point x="30.759999999999998" y="548.32" type="line"/>
    </contour>
    <contour>
      <point x="245.12400000000002" y="126.768" type="curve" smooth="yes"/>
      <point x="232.416" y="126.768"/>
      <point x="219.74" y="129.48"/>
      <point x="206.248" y="135.156" type="curve"/>
      <point x="206.248" y="391.056" type="line"/>
      <point x="223.72" y="400.09200000000004"/>
      <point x="239.352" y="403.95200000000006"/>
      <point x="253.892" y="403.95200000000006" type="curve" smooth="yes"/>
      <point x="284.54400000000004" y="403.95200000000006"/>
      <point x="297.844" y="373.112"/>
      <point x="297.844" y="261.288" type="curve" smooth="yes"/>
      <point x="297.844" y="154.90800000000002"/>
      <point x="282.628" y="126.768"/>
    </contour>
  </outline>
</glyph>
<glyph name="q" format="2">
  <advance width="499.46400000000006"/>
  <unicode hex="0071"/>
  <outline>
    <contour>
      <point x="468.70400000000006" y="532.0" type="line"/>
      <point x="405.25199999999995" y="547.812"/>
      <point x="329.5" y="557.2"/>
      <point x="265.992" y="557.2" type="curve" smooth="yes"/>
      <point x="94.876" y="557.2"/>
      <point x="17.188" y="470.268"/>
      <point x="17.188" y="277.312" type="curve" smooth="yes"/>
      <point x="17.188" y="80.3"/>
      <point x="70.372" y="-10.0"/>
      <point x="181.54399999999998" y="-10.0" type="curve" smooth="yes"/>
      <point x="219.648" y="-10.0"/>
      <point x="261.128" y="3.224"/>
      <point x="293.90399999999994" y="24.631999999999998" type="curve"/>
      <point x="293.90399999999994" y="-210.0" type="line"/>
      <point x="468.70400000000006" y="-210.0" type="line"/>
    </contour>
    <contour>
      <point x="293.216" y="415.372" type="curve"/>
      <point x="293.216" y="159.584" type="line"/>
      <point x="275.744" y="149.86"/>
      <point x="260.11199999999997" y="144.624"/>
      <point x="244.884" y="144.624" type="curve" smooth="yes"/>
      <point x="215.032" y="144.624"/>
      <point x="201.61999999999998" y="174.31199999999998"/>
      <point x="201.61999999999998" y="273.52799999999996" type="curve" smooth="yes"/>
      <point x="201.61999999999998" y="392.29200000000003"/>
      <point x="216.836" y="421.80800000000005"/>
      <point x="255.02800000000002" y="421.80800000000005" type="curve" smooth="yes"/>
      <point x="266.42" y="421.80800000000005"/>
      <point x="279.724" y="419.784"/>
    </contour>
  </outline>
</glyph>
<glyph name="r" format="2">
  <advance width="359.176"/>
  <unicode hex="0072"/>
  <anchor x="186.856" y="547.2" name="top"/>
  <anchor x="117.816" y="0.0" name="bottom"/>
  <outline>
    <contour>
      <point x="188.532" y="547.2" type="line"/>
      <point x="30.759999999999998" y="547.2" type="line"/>
      <point x="30.759999999999998" y="0.0" type="line"/>
      <point x="204.87199999999999" y="0.0" type="line"/>
      <point x="204.87199999999999" y="360.29600000000005" type="line"/>
      <point x="232.04000000000002" y="377.29999999999995"/>
      <point x="253.256" y="382.45200000000006"/>
      <point x="276.30400000000003" y="382.45200000000006" type="curve" smooth="yes"/>
      <point x="289.516" y="382.45200000000006"/>
      <point x="309.2" y="380.972"/>
      <point x="328.08799999999997" y="375.944" type="curve"/>
      <point x="356.968" y="547.4839999999999" type="line"/>
      <point x="335.096" y="555.1759999999999"/>
      <point x="317.712" y="557.2"/>
      <point x="303.024" y="557.2" type="curve" smooth="yes"/>
      <point x="255.504" y="557.2"/>
      <point x="229.96800000000002" y="539.6959999999999"/>
      <point x="188.532" y="494.508" type="curve"/>
    </contour>
  </outline>
</glyph>
<glyph name="s" format="2">
  <advance width="413.0"/>
  <unicode hex="0073"/>
  <anchor x="207.6" y="547.1999999999999" name="top"/>
  <anchor x="209.76" y="0.0" name="bottom"/>
  <outline>
    <contour>
      <point x="15.220000000000002" y="19.8" type="line"/>
      <point x="69.57999999999998" y="-1.0"/>
      <point x="123.46000000000001" y="-10.0"/>
      <point x="188.02" y="-10.0" type="curve" smooth="yes"/>
      <point x="314.29999999999995" y="-10.0"/>
      <point x="403.04" y="44.6"/>
      <point x="403.04" y="174.04" type="curve" smooth="yes"/>
      <point x="403.04" y="291.71999999999997"/>
      <point x="337.26" y="326.79999999999995"/>
      <point x="261.9" y="344.91999999999996" type="curve" smooth="yes"/>
      <point x="206.7" y="358.06"/>
      <point x="175.16" y="362.17999999999995"/>
      <point x="175.16" y="385.59999999999997" type="curve" smooth="yes"/>
      <point x="175.16" y="404.82"/>
      <point x="193.32" y="410.86"/>
      <point x="223.54000000000002" y="410.86" type="curve" smooth="yes"/>
      <point x="274.59999999999997" y="410.86"/>
      <point x="316.21999999999997" y="402.50000000000006"/>
      <point x="357.56" y="389.2" type="curve"/>
      <point x="380.04" y="529.38" type="line"/>
      <point x="339.2" y="545.8999999999999"/>
      <point x="280.04" y="557.1999999999999"/>
      <point x="221.32" y="557.1999999999999" type="curve" smooth="yes"/>
      <point x="86.66" y="557.1999999999999"/>
      <point x="15.3" y="494.23999999999995"/>
      <point x="15.3" y="370.28" type="curve" smooth="yes"/>
      <point x="15.3" y="283.38"/>
      <point x="53.97999999999999" y="232.48000000000002"/>
      <point x="128.42" y="210.82000000000005" type="curve" smooth="yes"/>
      <point x="187.36" y="193.73999999999998"/>
      <point x="237.00000000000006" y="190.3"/>
      <point x="237.00000000000006" y="161.35999999999999" type="curve" smooth="yes"/>
      <point x="237.00000000000006" y="144.32"/>
      <point x="221.16000000000003" y="132.89999999999998"/>
      <point x="186.3" y="132.89999999999998" type="curve" smooth="yes"/>
      <point x="141.58" y="132.89999999999998"/>
      <point x="72.28" y="143.12"/>
      <point x="32.959999999999994" y="156.76" type="curve"/>
    </contour>
  </outline>
</glyph>
<glyph name="t" format="2">
  <advance width="348.31600000000003"/>
  <unicode hex="0074"/>
  <anchor x="169.528" y="275.0" name="center"/>
  <anchor x="158.624" y="657.432" name="top"/>
  <anchor x="275.612" y="767.34" name="topright"/>
  <anchor x="195.592" y="0.0" name="bottom"/>
  <outline>
    <contour>
      <point x="209.64799999999997" y="-10.0" type="curve" smooth="yes"/>
      <point x="250.108" y="-10.0"/>
      <point x="298.08799999999997" y="-5.111999999999999"/>
      <point x="346.776" y="14.636000000000001" type="curve"/>
      <point x="322.424" y="153.58" type="line"/>
      <point x="303.44399999999996" y="149.28"/>
      <point x="287.55999999999995" y="146.79999999999998"/>
      <point x="274.088" y="146.79999999999998" type="curve" smooth="yes"/>
      <point x="248.98799999999997" y="146.79999999999998"/>
      <point x="235.14" y="158.78399999999996"/>
      <point x="235.14" y="204.99200000000002" type="curve" smooth="yes"/>
      <point x="235.14" y="410.52400000000006" type="line"/>
      <point x="325.796" y="410.52400000000006" type="line"/>
      <point x="325.796" y="547.2" type="line"/>
      <point x="235.14" y="547.2" type="line"/>
      <point x="235.14" y="657.432" type="line"/>
      <point x="81.996" y="657.432" type="line"/>
      <point x="60.339999999999996" y="547.2" type="line"/>
      <point x="5.359999999999999" y="538.82" type="line"/>
      <point x="5.359999999999999" y="411.212" type="line"/>
      <point x="60.339999999999996" y="411.212" type="line"/>
      <point x="60.339999999999996" y="187.44799999999998" type="line" smooth="yes"/>
      <point x="60.339999999999996" y="51.372"/>
      <point x="111.6" y="-10.0"/>
    </contour>
  </outline>
</glyph>
<glyph name="u" format="2">
  <advance width="509.944"/>
  <unicode hex="0075"/>
  <anchor x="508.316" y="16.544" name="ogonek"/>
  <anchor x="247.824" y="547.2" name="top"/>
  <anchor x="461.904" y="547.2" name="topright"/>
  <anchor x="255.54399999999998" y="0.0" name="bottom"/>
  <outline>
    <contour>
      <point x="167.92399999999998" y="-10.0" type="curve" smooth="yes"/>
      <point x="220.79200000000003" y="-10.0"/>
      <point x="264.908" y="7.543999999999999"/>
      <point x="307.276" y="37.476" type="curve"/>
      <point x="328.16" y="8.988"/>
      <point x="357.3" y="-10.0"/>
      <point x="404.008" y="-10.0" type="curve" smooth="yes"/>
      <point x="448.376" y="-10.0"/>
      <point x="483.568" y="2.1759999999999997"/>
      <point x="508.316" y="16.544" type="curve"/>
      <point x="495.668" y="157.184" type="line"/>
      <point x="490.62800000000004" y="155.108"/>
      <point x="483.92400000000004" y="153.94"/>
      <point x="478.28" y="153.94" type="curve" smooth="yes"/>
      <point x="468.02400000000006" y="153.94"/>
      <point x="461.904" y="160.12000000000003"/>
      <point x="461.904" y="182.96800000000002" type="curve" smooth="yes"/>
      <point x="461.904" y="547.2" type="line"/>
      <point x="287.104" y="547.2" type="line"/>
      <point x="287.104" y="161.396" type="line"/>
      <point x="270.15200000000004" y="151.76"/>
      <point x="255.65200000000002" y="147.204"/>
      <point x="239.916" y="147.204" type="curve" smooth="yes"/>
      <point x="220.024" y="147.204"/>
      <point x="204.87199999999999" y="158.008"/>
      <point x="204.87199999999999" y="187.73999999999998" type="curve" smooth="yes"/>
      <point x="204.87199999999999" y="547.2" type="line"/>
      <point x="29.384" y="547.2" type="line"/>
      <point x="29.384" y="150.932" type="line" smooth="yes"/>
      <point x="29.384" y="34.92"/>
      <point x="87.664" y="-10.0"/>
    </contour>
  </outline>
</glyph>
<glyph name="v" format="2">
  <advance width="505.746"/>
  <unicode hex="0076"/>
  <outline>
    <contour>
      <point x="144.856" y="0.0" type="line"/>
      <point x="359.142" y="0.0" type="line"/>
      <point x="501.664" y="546.808" type="line"/>
      <point x="314.936" y="547.592" type="line"/>
      <point x="255.68200000000002" y="156.26799999999997" type="line"/>
      <point x="192.1" y="547.592" type="line"/>
      <point x="3.652" y="546.808" type="line"/>
    </contour>
  </outline>
</glyph>
<glyph name="w" format="2">
  <advance width="714.664"/>
  <unicode hex="0077"/>
  <anchor x="357.168" y="547.2" name="top"/>
  <anchor x="357.168" y="0.0" name="bottom"/>
  <outline>
    <contour>
      <point x="98.008" y="0.0" type="line"/>
      <point x="314.716" y="0.0" type="line"/>
      <point x="356.65200000000004" y="342.692" type="line"/>
      <point x="399.41600000000005" y="0.0" type="line"/>
      <point x="612.684" y="0.0" type="line"/>
      <point x="707.6360000000001" y="546.624" type="line"/>
      <point x="533.508" y="547.652" type="line"/>
      <point x="497.684" y="157.52" type="line"/>
      <point x="450.93199999999996" y="547.2" type="line"/>
      <point x="263.232" y="547.2" type="line"/>
      <point x="216.76" y="157.536" type="line"/>
      <point x="183.564" y="547.652" type="line"/>
      <point x="6.5280000000000005" y="546.624" type="line"/>
    </contour>
  </outline>
</glyph>
<glyph name="x" format="2">
  <advance width="508.55199999999996"/>
  <unicode hex="0078"/>
  <outline>
    <contour>
      <point x="3.192" y="-0.2760000000000002" type="line"/>
      <point x="205.37800000000001" y="-1.1880000000000004" type="line"/>
      <point x="256.76000000000005" y="188.22799999999998" type="line"/>
      <point x="308.998" y="-1.1880000000000004" type="line"/>
      <point x="506.86600000000004" y="-0.2760000000000002" type="line"/>
      <point x="382.606" y="279.396" type="line"/>
      <point x="499.454" y="546.924" type="line"/>
      <point x="306.79599999999994" y="547.976" type="line"/>
      <point x="257.236" y="356.05800000000005" type="line"/>
      <point x="209.11599999999999" y="547.83" type="line"/>
      <point x="13.4" y="546.71" type="line"/>
      <point x="129.098" y="277.668" type="line"/>
    </contour>
  </outline>
</glyph>
<glyph name="y" format="2">
  <advance width="510.682"/>
  <unicode hex="0079"/>
  <anchor x="246.942" y="547.1999999999999" name="top"/>
  <anchor x="444.89799999999997" y="0.0" name="bottom"/>
  <outline>
    <contour>
      <point x="125.896" y="-209.664" type="line"/>
      <point x="314.36400000000003" y="-210.61599999999999" type="line"/>
      <point x="506.91799999999995" y="546.9760000000001" type="line"/>
      <point x="318.72200000000004" y="547.704" type="line"/>
      <point x="258.064" y="147.352" type="line"/>
      <point x="197.42800000000003" y="547.704" type="line"/>
      <point x="3.763999999999999" y="546.9200000000001" type="line"/>
      <point x="160.73000000000002" y="0.0" type="line"/>
      <point x="181.77599999999998" y="0.0" type="line"/>
    </contour>
  </outline>
</glyph>
<glyph name="z" format="2">
  <advance width="443.714"/>
  <unicode hex="007A"/>
  <anchor x="224.32" y="547.2" name="top"/>
  <outline>
    <contour>
      <point x="18.482" y="0.0" type="line"/>
      <point x="425.34799999999996" y="0.0" type="line"/>
      <point x="425.34799999999996" y="146.992" type="line"/>
      <point x="221.004" y="146.992" type="line"/>
      <point x="415.372" y="417.33000000000004" type="line"/>
      <point x="415.372" y="547.2" type="line"/>
      <point x="28.785999999999998" y="547.2" type="line"/>
      <point x="28.785999999999998" y="401.64" type="line"/>
      <point x="214.92000000000002" y="401.64" type="line"/>
      <point x="18.482" y="131.948" type="line"/>
    </contour>
  </outline>
</glyph>
<glyph name="braceleft" format="2">
  <advance width="285.208"/>
  <unicode hex="007B"/>
  <outline>
    <contour>
      <point x="42.05200000000001" y="-39.176" type="curve" smooth="yes"/>
      <point x="42.05200000000001" y="-161.112"/>
      <point x="108.708" y="-210.68800000000002"/>
      <point x="186.16" y="-210.68800000000002" type="curve" smooth="yes"/>
      <point x="268.352" y="-210.68800000000002" type="line"/>
      <point x="268.352" y="-78.888" type="line"/>
      <point x="230.88" y="-78.888" type="line" smooth="yes"/>
      <point x="200.68" y="-78.888"/>
      <point x="187.956" y="-54.791999999999994"/>
      <point x="187.956" y="-17.676" type="curve" smooth="yes"/>
      <point x="187.956" y="31.035999999999998"/>
      <point x="215.108" y="78.08800000000001"/>
      <point x="215.108" y="135.072" type="curve" smooth="yes"/>
      <point x="215.108" y="181.22400000000002"/>
      <point x="201.724" y="229.904"/>
      <point x="150.084" y="265.0" type="curve"/>
      <point x="201.696" y="299.048"/>
      <point x="215.108" y="348.03200000000004"/>
      <point x="215.108" y="394.184" type="curve" smooth="yes"/>
      <point x="215.108" y="450.496"/>
      <point x="187.956" y="497.408"/>
      <point x="187.956" y="546.932" type="curve" smooth="yes"/>
      <point x="187.956" y="584.048"/>
      <point x="200.68" y="608.1999999999999"/>
      <point x="230.88" y="608.1999999999999" type="curve" smooth="yes"/>
      <point x="268.352" y="608.1999999999999" type="line"/>
      <point x="268.352" y="740.0" type="line"/>
      <point x="186.16" y="740.0" type="line" smooth="yes"/>
      <point x="108.708" y="740.0"/>
      <point x="42.05200000000001" y="690.368"/>
      <point x="42.05200000000001" y="568.432" type="curve" smooth="yes"/>
      <point x="42.05200000000001" y="480.34"/>
      <point x="76.084" y="433.988"/>
      <point x="76.084" y="386.444" type="curve" smooth="yes"/>
      <point x="76.084" y="353.52000000000004"/>
      <point x="69.068" y="333.48"/>
      <point x="42.732" y="333.48" type="curve" smooth="yes"/>
      <point x="25.688" y="333.48" type="line"/>
      <point x="25.688" y="195.832" type="line"/>
      <point x="42.732" y="195.832" type="line" smooth="yes"/>
      <point x="69.068" y="195.832"/>
      <point x="76.084" y="175.848"/>
      <point x="76.084" y="142.812" type="curve" smooth="yes"/>
      <point x="76.084" y="94.988"/>
      <point x="42.05200000000001" y="48.07599999999999"/>
    </contour>
  </outline>
</glyph>
<glyph name="bar" format="2">
  <advance width="199.48799999999997"/>
  <unicode hex="007C"/>
  <outline>
    <contour>
      <point x="172.524" y="790.688" type="line"/>
      <point x="26.964" y="790.688" type="line"/>
      <point x="26.964" y="-210.0" type="line"/>
      <point x="172.524" y="-210.0" type="line"/>
    </contour>
  </outline>
</glyph>
<glyph name="braceright" format="2">
  <advance width="285.208"/>
  <unicode hex="007D"/>
  <outline>
    <contour>
      <point x="16.856" y="-78.888" type="line"/>
      <point x="16.856" y="-210.68800000000002" type="line"/>
      <point x="99.16" y="-210.68800000000002" type="line" smooth="yes"/>
      <point x="176.612" y="-210.68800000000002"/>
      <point x="243.268" y="-161.112"/>
      <point x="243.268" y="-39.176" type="curve" smooth="yes"/>
      <point x="243.268" y="48.07599999999999"/>
      <point x="209.236" y="94.988"/>
      <point x="209.236" y="142.812" type="curve" smooth="yes"/>
      <point x="209.236" y="175.848"/>
      <point x="216.252" y="195.832"/>
      <point x="242.58800000000002" y="195.832" type="curve" smooth="yes"/>
      <point x="259.52" y="195.832" type="line"/>
      <point x="259.52" y="333.48" type="line"/>
      <point x="242.58800000000002" y="333.48" type="line" smooth="yes"/>
      <point x="216.14" y="333.48"/>
      <point x="209.236" y="353.52000000000004"/>
      <point x="209.236" y="386.444" type="curve" smooth="yes"/>
      <point x="209.236" y="433.988"/>
      <point x="243.268" y="480.34"/>
      <point x="243.268" y="568.432" type="curve" smooth="yes"/>
      <point x="243.268" y="690.368"/>
      <point x="176.612" y="740.0"/>
      <point x="99.16" y="740.0" type="curve" smooth="yes"/>
      <point x="16.856" y="740.0" type="line"/>
      <point x="16.856" y="608.1999999999999" type="line"/>
      <point x="42.744" y="608.1999999999999" type="line" smooth="yes"/>
      <point x="72.832" y="608.1999999999999"/>
      <point x="85.668" y="584.048"/>
      <point x="85.668" y="546.932" type="curve" smooth="yes"/>
      <point x="85.668" y="497.408"/>
      <point x="58.516000000000005" y="450.496"/>
      <point x="58.516000000000005" y="394.184" type="curve" smooth="yes"/>
      <point x="58.516000000000005" y="348.03200000000004"/>
      <point x="71.81599999999999" y="299.048"/>
      <point x="123.53999999999999" y="265.0" type="curve"/>
      <point x="71.788" y="229.904"/>
      <point x="58.516000000000005" y="181.22400000000002"/>
      <point x="58.516000000000005" y="135.072" type="curve" smooth="yes"/>
      <point x="58.516000000000005" y="78.08800000000001"/>
      <point x="85.668" y="31.035999999999998"/>
      <point x="85.668" y="-17.676" type="curve" smooth="yes"/>
      <point x="85.668" y="-54.791999999999994"/>
      <point x="72.832" y="-78.888"/>
      <point x="42.744" y="-78.888" type="curve" smooth="yes"/>
    </contour>
  </outline>
</glyph>
<glyph name="asciitilde" format="2">
  <advance width="480.584"/>
  <unicode hex="007E"/>
  <outline>
    <contour>
      <point x="426.34000000000003" y="235.90800000000002" type="curve"/>
      <point x="426.34000000000003" y="382.14000000000004" type="line"/>
      <point x="400.31600000000003" y="357.168"/>
      <point x="372.44800000000004" y="347.44000000000005"/>
      <point x="340.196" y="347.44000000000005" type="curve" smooth="yes"/>
      <point x="256.788" y="347.44000000000005"/>
      <point x="222.45600000000002" y="422.328"/>
      <point x="146.34799999999998" y="422.328" type="curve" smooth="yes"/>
      <point x="97.988" y="422.328"/>
      <point x="62.583999999999996" y="397.484"/>
      <point x="54.528" y="388.356" type="curve"/>
      <point x="54.528" y="242.096" type="line"/>
      <point x="67.368" y="254.284"/>
      <point x="100.968" y="276.08"/>
      <point x="144.4" y="276.08" type="curve" smooth="yes"/>
      <point x="220.944" y="276.08"/>
      <point x="257.452" y="201.02"/>
      <point x="340.31199999999995" y="201.02" type="curve" smooth="yes"/>
      <point x="372.23999999999995" y="201.02"/>
      <point x="401.456" y="211.988"/>
    </contour>
  </outline>
</glyph>
<glyph name="exclamdown" format="2">
  <advance width="226.856"/>
  <unicode hex="00A1"/>
  <outline>
    <contour>
      <point x="189.99200000000002" y="287.328" type="line"/>
      <point x="39.444" y="287.328" type="line"/>
      <point x="24.996000000000002" y="-192.972" type="line"/>
      <point x="202.37600000000003" y="-192.972" type="line"/>
    </contour>
    <contour>
      <point x="207.49200000000002" y="453.31600000000003" type="curve" smooth="yes"/>
      <point x="207.49200000000002" y="522.12"/>
      <point x="180.46" y="555.8"/>
      <point x="113.428" y="555.8" type="curve" smooth="yes"/>
      <point x="46.536" y="555.8"/>
      <point x="19.363999999999997" y="522.12"/>
      <point x="19.363999999999997" y="453.31600000000003" type="curve" smooth="yes"/>
      <point x="19.363999999999997" y="383.652"/>
      <point x="46.396" y="349.972"/>
      <point x="113.428" y="349.972" type="curve" smooth="yes"/>
      <point x="180.46" y="349.972"/>
      <point x="207.49200000000002" y="383.652"/>
    </contour>
  </outline>
</glyph>
<glyph name="cent" format="2">
  <advance width="526.512"/>
  <unicode hex="00A2"/>
  <outline>
    <contour>
      <point x="291.584" y="-10.687999999999999" type="curve" smooth="yes"/>
      <point x="350.504" y="-10.687999999999999"/>
      <point x="412.12800000000004" y="-1.1000000000000005"/>
      <point x="457.26400000000007" y="15.7" type="curve"/>
      <point x="426.26000000000005" y="170.04" type="line"/>
      <point x="391.43999999999994" y="161.464"/>
      <point x="363.46399999999994" y="157.808"/>
      <point x="335.87199999999996" y="157.808" type="curve" smooth="yes"/>
      <point x="283.29600000000005" y="157.808"/>
      <point x="254.13600000000002" y="193.64"/>
      <point x="254.13600000000002" y="269.396" type="curve" smooth="yes"/>
      <point x="254.13600000000002" y="353.72800000000007"/>
      <point x="280.636" y="387.844"/>
      <point x="335.62" y="387.844" type="curve" smooth="yes"/>
      <point x="366.712" y="387.844"/>
      <point x="394.16" y="383.24"/>
      <point x="422.1" y="377.132" type="curve"/>
      <point x="449.08799999999997" y="538.524" type="line"/>
      <point x="413.724" y="547.5520000000001"/>
      <point x="360.264" y="558.5759999999999"/>
      <point x="297.436" y="558.5759999999999" type="curve" smooth="yes"/>
      <point x="126.40799999999999" y="558.5759999999999"/>
      <point x="73.48800000000001" y="426.34"/>
      <point x="73.48800000000001" y="264.236" type="curve" smooth="yes"/>
      <point x="73.48800000000001" y="81.736"/>
      <point x="145.60399999999998" y="-10.687999999999999"/>
    </contour>
    <contour>
      <point x="209.14400000000003" y="-105.688" type="line"/>
      <point x="357.284" y="-105.688" type="line"/>
      <point x="357.284" y="10.335999999999999" type="line"/>
      <point x="209.14400000000003" y="17.868" type="line"/>
    </contour>
    <contour>
      <point x="209.14400000000003" y="526.956" type="line"/>
      <point x="357.284" y="539.128" type="line"/>
      <point x="357.284" y="651.5120000000001" type="line"/>
      <point x="209.14400000000003" y="651.5120000000001" type="line"/>
    </contour>
  </outline>
</glyph>
<glyph name="sterling" format="2">
  <advance width="526.68"/>
  <unicode hex="00A3"/>
  <outline>
    <contour>
      <point x="64.72000000000001" y="0.0" type="line"/>
      <point x="466.89200000000005" y="0.0" type="line"/>
      <point x="466.89200000000005" y="147.42000000000002" type="line"/>
      <point x="259.0" y="147.42000000000002" type="line"/>
      <point x="290.63199999999995" y="177.536"/>
      <point x="322.788" y="214.63200000000003"/>
      <point x="322.788" y="271.676" type="curve" smooth="yes"/>
      <point x="322.788" y="341.272"/>
      <point x="275.41999999999996" y="404.712"/>
      <point x="275.41999999999996" y="463.52" type="curve" smooth="yes"/>
      <point x="275.41999999999996" y="525.4720000000001"/>
      <point x="310.20000000000005" y="547.1"/>
      <point x="350.78" y="547.1" type="curve" smooth="yes"/>
      <point x="385.22399999999993" y="547.1"/>
      <point x="414.468" y="542.1039999999999"/>
      <point x="440.4560000000001" y="533.8199999999999" type="curve"/>
      <point x="465.948" y="676.664" type="line"/>
      <point x="422.892" y="698.7"/>
      <point x="371.744" y="710.0"/>
      <point x="316.38000000000005" y="710.0" type="curve" smooth="yes"/>
      <point x="170.528" y="710.0"/>
      <point x="93.892" y="633.856"/>
      <point x="93.892" y="519.416" type="curve" smooth="yes"/>
      <point x="93.892" y="404.17600000000004"/>
      <point x="156.88" y="359.056"/>
      <point x="156.88" y="256.628" type="curve" smooth="yes"/>
      <point x="156.88" y="210.184"/>
      <point x="129.308" y="161.156"/>
      <point x="64.72000000000001" y="113.02000000000001" type="curve"/>
    </contour>
    <contour>
      <point x="59.33200000000001" y="308.064" type="line"/>
      <point x="427.688" y="308.064" type="line"/>
      <point x="427.688" y="397.88400000000007" type="line"/>
      <point x="59.33200000000001" y="397.88400000000007" type="line"/>
    </contour>
  </outline>
</glyph>
<glyph name="currency" format="2">
  <advance width="454.82"/>
  <unicode hex="00A4"/>
  <outline>
    <contour>
      <point x="28.776000000000003" y="394.584" type="line"/>
      <point x="79.384" y="342.976" type="line"/>
      <point x="74.144" y="328.748"/>
      <point x="71.088" y="313.36800000000005"/>
      <point x="71.088" y="297.084" type="curve" smooth="yes"/>
      <point x="71.088" y="279.94"/>
      <point x="74.144" y="263.012"/>
      <point x="80.384" y="248.096" type="curve"/>
      <point x="28.776000000000003" y="196.488" type="line"/>
      <point x="128.432" y="96.832" type="line"/>
      <point x="188.29600000000002" y="156.524" type="line"/>
      <point x="199.94400000000002" y="152.00400000000002"/>
      <point x="214.11999999999998" y="150.464"/>
      <point x="228.888" y="150.464" type="curve" smooth="yes"/>
      <point x="242.62400000000002" y="150.464"/>
      <point x="255.048" y="152.17600000000002"/>
      <point x="266.352" y="156.008" type="curve"/>
      <point x="326.38800000000003" y="96.832" type="line"/>
      <point x="426.044" y="196.488" type="line"/>
      <point x="376.328" y="245.516" type="line"/>
      <point x="382.91200000000003" y="261.63599999999997"/>
      <point x="386.656" y="278.90799999999996"/>
      <point x="386.656" y="297.084" type="curve" smooth="yes"/>
      <point x="386.656" y="313.712"/>
      <point x="383.084" y="330.12399999999997"/>
      <point x="377.016" y="345.55600000000004" type="curve"/>
      <point x="426.044" y="394.584" type="line"/>
      <point x="326.38800000000003" y="494.23999999999995" type="line"/>
      <point x="269.104" y="436.956" type="line"/>
      <point x="257.11199999999997" y="440.96000000000004"/>
      <point x="243.452" y="443.5"/>
      <point x="228.888" y="443.5" type="curve" smooth="yes"/>
      <point x="212.60399999999998" y="443.5"/>
      <point x="198.428" y="440.272"/>
      <point x="185.404" y="436.44" type="curve"/>
      <point x="128.432" y="494.23999999999995" type="line"/>
    </contour>
    <contour>
      <point x="228.716" y="254.74399999999997" type="curve" smooth="yes"/>
      <point x="203.524" y="254.74399999999997"/>
      <point x="187.064" y="271.032"/>
      <point x="187.064" y="296.39599999999996" type="curve" smooth="yes"/>
      <point x="187.064" y="320.008"/>
      <point x="203.35199999999998" y="338.532"/>
      <point x="228.716" y="338.532" type="curve" smooth="yes"/>
      <point x="254.22" y="338.532"/>
      <point x="270.68" y="320.008"/>
      <point x="270.68" y="296.39599999999996" type="curve" smooth="yes"/>
      <point x="270.68" y="271.032"/>
      <point x="254.048" y="254.74399999999997"/>
    </contour>
  </outline>
</glyph>
<glyph name="yen" format="2">
  <advance width="549.0"/>
  <unicode hex="00A5"/>
  <outline>
    <contour>
      <point x="54.08" y="293.96" type="line"/>
      <point x="196.6" y="293.96" type="line"/>
      <point x="196.6" y="256.92" type="line"/>
      <point x="54.08" y="256.92" type="line"/>
      <point x="54.08" y="172.36" type="line"/>
      <point x="196.6" y="172.36" type="line"/>
      <point x="196.6" y="0.0" type="line"/>
      <point x="354.38" y="0.0" type="line"/>
      <point x="354.38" y="172.36" type="line"/>
      <point x="497.18" y="172.36" type="line"/>
      <point x="497.18" y="256.92" type="line"/>
      <point x="354.38" y="256.92" type="line"/>
      <point x="354.38" y="293.96" type="line"/>
      <point x="497.18" y="293.96" type="line"/>
      <point x="497.18" y="378.38000000000005" type="line"/>
      <point x="354.38" y="378.38000000000005" type="line"/>
      <point x="540.1" y="698.7199999999999" type="line"/>
      <point x="366.26000000000005" y="701.4200000000001" type="line"/>
      <point x="275.78" y="478.86" type="line"/>
      <point x="182.88000000000002" y="701.4200000000001" type="line"/>
      <point x="9.04" y="698.7199999999999" type="line"/>
      <point x="196.6" y="378.38000000000005" type="line"/>
      <point x="54.08" y="378.38000000000005" type="line"/>
    </contour>
  </outline>
</glyph>
<glyph name="brokenbar" format="2">
  <advance width="198.8"/>
  <unicode hex="00A6"/>
  <outline>
    <contour>
      <point x="171.83599999999998" y="391.0" type="line"/>
      <point x="171.83599999999998" y="790.688" type="line"/>
      <point x="26.964" y="790.688" type="line"/>
      <point x="26.964" y="391.0" type="line"/>
    </contour>
    <contour>
      <point x="26.964" y="190.68800000000002" type="line"/>
      <point x="26.964" y="-210.0" type="line"/>
      <point x="171.83599999999998" y="-210.0" type="line"/>
      <point x="171.83599999999998" y="190.68800000000002" type="line"/>
    </contour>
  </outline>
</glyph>
<glyph name="section" format="2">
  <advance width="516.402"/>
  <unicode hex="00A7"/>
  <outline>
    <contour>
      <point x="205.568" y="-220.78600000000003" type="curve" smooth="yes"/>
      <point x="373.392" y="-220.78600000000003"/>
      <point x="476.86400000000003" y="-100.62599999999999"/>
      <point x="476.86400000000003" y="68.85000000000001" type="curve" smooth="yes"/>
      <point x="476.86400000000003" y="141.51"/>
      <point x="455.71599999999995" y="233.48"/>
      <point x="401.418" y="344.258" type="curve" smooth="yes"/>
      <point x="354.948" y="445.85999999999996"/>
      <point x="336.48800000000006" y="488.056"/>
      <point x="336.48800000000006" y="519.4520000000001" type="curve" smooth="yes"/>
      <point x="336.48800000000006" y="551.7339999999999"/>
      <point x="354.744" y="571.694"/>
      <point x="386.626" y="571.694" type="curve" smooth="yes"/>
      <point x="399.544" y="571.694"/>
      <point x="411.31000000000006" y="569.554"/>
      <point x="425.998" y="562.418" type="curve"/>
      <point x="457.86400000000003" y="723.828" type="line"/>
      <point x="422.91400000000004" y="740.272"/>
      <point x="373.27" y="749.9300000000001"/>
      <point x="324.132" y="749.9300000000001" type="curve" smooth="yes"/>
      <point x="146.03" y="749.9300000000001"/>
      <point x="36.712" y="644.4119999999999"/>
      <point x="41.443999999999996" y="475.33000000000004" type="curve" smooth="yes"/>
      <point x="43.522" y="398.386"/>
      <point x="55.564" y="326.73400000000004"/>
      <point x="121.98799999999999" y="184.41" type="curve" smooth="yes"/>
      <point x="166.76199999999997" y="85.39799999999998"/>
      <point x="187.91400000000002" y="45.722"/>
      <point x="187.91400000000004" y="7.112000000000004" type="curve" smooth="yes"/>
      <point x="187.91400000000002" y="-26.96800000000001"/>
      <point x="166.218" y="-43.418"/>
      <point x="131.608" y="-43.418" type="curve" smooth="yes"/>
      <point x="111.928" y="-43.418"/>
      <point x="92.29799999999999" y="-38.08000000000002"/>
      <point x="72.64199999999998" y="-23.992" type="curve"/>
      <point x="41.434000000000005" y="-182.896" type="line"/>
      <point x="83.406" y="-206.78199999999998"/>
      <point x="142.33799999999997" y="-220.78600000000003"/>
    </contour>
    <contour>
      <point x="201.424" y="-116.42800000000001" type="curve" smooth="yes"/>
      <point x="181.576" y="-116.42800000000001"/>
      <point x="161.054" y="-111.922"/>
      <point x="140.31" y="-101.18599999999999" type="curve"/>
      <point x="180.818" y="-127.30399999999999" type="line"/>
      <point x="257.964" y="-125.366"/>
      <point x="311.6240000000001" y="-70.61"/>
      <point x="311.6240000000001" y="10.629999999999985" type="curve" smooth="yes"/>
      <point x="311.6240000000001" y="65.81"/>
      <point x="294.254" y="127.61999999999996"/>
      <point x="242.332" y="241.94" type="curve" smooth="yes"/>
      <point x="189.392" y="359.62600000000003"/>
      <point x="169.746" y="418.21600000000007"/>
      <point x="169.746" y="488.61" type="curve" smooth="yes"/>
      <point x="169.746" y="568.312"/>
      <point x="215.422" y="624.104"/>
      <point x="273.178" y="624.104" type="curve" smooth="yes"/>
      <point x="294.296" y="624.104"/>
      <point x="308.0439999999999" y="619.7299999999999"/>
      <point x="324.12999999999994" y="607.3240000000001" type="curve"/>
      <point x="300.086" y="642.354" type="line"/>
      <point x="254.124" y="633.8480000000001"/>
      <point x="211.564" y="589.3700000000001"/>
      <point x="211.424" y="527.5459999999999" type="curve" smooth="yes"/>
      <point x="211.424" y="474.024"/>
      <point x="225.79000000000002" y="419.046"/>
      <point x="278.786" y="301.278" type="curve" smooth="yes"/>
      <point x="339.61" y="165.552"/>
      <point x="354.52000000000004" y="106.74799999999999"/>
      <point x="354.52000000000004" y="51.806000000000004" type="curve" smooth="yes"/>
      <point x="354.52" y="-44.486"/>
      <point x="300.248" y="-116.428"/>
    </contour>
  </outline>
</glyph>
<glyph name="copyright" format="2">
  <advance width="720.1839999999999"/>
  <unicode hex="00A9"/>
  <outline>
    <contour>
      <point x="360.11999999999995" y="46.256" type="curve" smooth="yes"/>
      <point x="184.4" y="46.256"/>
      <point x="95.848" y="163.808"/>
      <point x="95.848" y="350.344" type="curve" smooth="yes"/>
      <point x="95.848" y="537.336"/>
      <point x="184.6" y="653.8879999999999"/>
      <point x="360.11999999999995" y="653.8879999999999" type="curve" smooth="yes"/>
      <point x="537.648" y="653.8879999999999"/>
      <point x="623.6479999999999" y="537.336"/>
      <point x="623.6479999999999" y="350.344" type="curve" smooth="yes"/>
      <point x="623.6479999999999" y="163.808"/>
      <point x="537.848" y="46.256"/>
    </contour>
    <contour>
      <point x="360.11999999999995" y="710.0" type="curve" smooth="yes"/>
      <point x="150.168" y="710.0"/>
      <point x="35.84" y="562.904"/>
      <point x="35.84" y="350.344" type="curve" smooth="yes"/>
      <point x="35.84" y="138.872"/>
      <point x="149.68" y="-10.0"/>
      <point x="360.11999999999995" y="-10.0" type="curve" smooth="yes"/>
      <point x="570.5039999999999" y="-10.0"/>
      <point x="684.3439999999999" y="138.872"/>
      <point x="684.3439999999999" y="350.344" type="curve" smooth="yes"/>
      <point x="684.3439999999999" y="562.904"/>
      <point x="570.0719999999999" y="710.0"/>
    </contour>
    <contour>
      <point x="212.92799999999997" y="350.792" type="curve" smooth="yes"/>
      <point x="212.92799999999997" y="200.68"/>
      <point x="270.792" y="133.72799999999998"/>
      <point x="366.65600000000006" y="133.72799999999998" type="curve" smooth="yes"/>
      <point x="403.2319999999999" y="133.72799999999998"/>
      <point x="439.42400000000004" y="138.44"/>
      <point x="473.88000000000005" y="154.448" type="curve"/>
      <point x="456.72800000000007" y="254.296" type="line"/>
      <point x="430.83199999999994" y="246.512"/>
      <point x="407.79200000000003" y="241.968"/>
      <point x="383.41600000000005" y="241.968" type="curve" smooth="yes"/>
      <point x="345.072" y="241.968"/>
      <point x="333.13599999999997" y="267.69599999999997"/>
      <point x="333.13599999999997" y="346.92" type="curve" smooth="yes"/>
      <point x="333.13599999999997" y="437.464"/>
      <point x="348.63199999999995" y="465.504"/>
      <point x="388.24" y="465.504" type="curve" smooth="yes"/>
      <point x="407.41599999999994" y="465.504"/>
      <point x="438.032" y="459.23199999999997"/>
      <point x="456.808" y="454.032" type="curve"/>
      <point x="476.712" y="552.072" type="line"/>
      <point x="448.36800000000005" y="567.4159999999999"/>
      <point x="406.24" y="574.0880000000001"/>
      <point x="368.064" y="574.0880000000001" type="curve" smooth="yes"/>
      <point x="276.41600000000005" y="574.0880000000001"/>
      <point x="212.92799999999997" y="517.7760000000001"/>
    </contour>
  </outline>
</glyph>
<glyph name="ordfeminine" format="2">
  <advance width="347.188"/>
  <unicode hex="00AA"/>
  <outline>
    <contour>
      <point x="32.767999999999994" y="231.58399999999997" type="line"/>
      <point x="321.62399999999997" y="231.58399999999997" type="line"/>
      <point x="321.62399999999997" y="319.70399999999995" type="line"/>
      <point x="32.767999999999994" y="319.70399999999995" type="line"/>
    </contour>
    <component base="a.superior" xOffset="8.644"/>
  </outline>
</glyph>
<glyph name="logicalnot" format="2">
  <advance width="480.584"/>
  <unicode hex="00AC"/>
  <outline>
    <contour>
      <point x="45.796" y="299.548" type="line"/>
      <point x="286.76" y="299.548" type="line"/>
      <point x="286.76" y="174.076" type="line"/>
      <point x="434.90000000000003" y="174.076" type="line"/>
      <point x="434.90000000000003" y="447.68800000000005" type="line"/>
      <point x="45.796" y="447.68800000000005" type="line"/>
    </contour>
  </outline>
</glyph>
<glyph name="registered" format="2">
  <advance width="688.3939999999999"/>
  <unicode hex="00AE"/>
  <outline>
    <contour>
      <point x="341.8040000000001" y="207.57" type="curve" smooth="yes"/>
      <point x="544.3199999999999" y="207.57"/>
      <point x="652.554" y="348.17199999999997"/>
      <point x="652.554" y="550.4580000000001" type="curve" smooth="yes"/>
      <point x="652.554" y="752.37"/>
      <point x="544.348" y="892.4860000000001"/>
      <point x="341.8040000000001" y="892.4860000000001" type="curve" smooth="yes"/>
      <point x="142.40999999999997" y="892.4860000000001"/>
      <point x="35.84" y="752.37"/>
      <point x="35.84" y="550.4580000000001" type="curve" smooth="yes"/>
      <point x="35.84" y="349.54599999999994"/>
      <point x="141.952" y="207.57"/>
    </contour>
    <contour>
      <point x="341.8040000000001" y="260.82" type="curve" smooth="yes"/>
      <point x="175.012" y="260.82"/>
      <point x="92.75399999999999" y="373.45399999999995"/>
      <point x="92.75399999999999" y="550.4580000000001" type="curve" smooth="yes"/>
      <point x="92.75399999999999" y="728.004"/>
      <point x="174.98400000000004" y="839.18"/>
      <point x="341.8040000000001" y="839.18" type="curve" smooth="yes"/>
      <point x="513.84" y="839.18"/>
      <point x="594.892" y="728.0320000000002"/>
      <point x="594.892" y="550.4580000000001" type="curve" smooth="yes"/>
      <point x="594.892" y="372.996"/>
      <point x="513.41" y="260.82"/>
    </contour>
    <contour>
      <point x="478.62600000000003" y="352.85" type="curve" smooth="yes"/>
      <point x="483.74800000000005" y="352.85"/>
      <point x="490.8519999999999" y="352.85"/>
      <point x="495.76800000000003" y="353.392" type="curve"/>
      <point x="495.4320000000001" y="461.896" type="line"/>
      <point x="493.89000000000004" y="461.784"/>
      <point x="491.544" y="461.784"/>
      <point x="489.54400000000004" y="461.784" type="curve" smooth="yes"/>
      <point x="462.59799999999996" y="462.1859999999999"/>
      <point x="444.738" y="487.194"/>
      <point x="431.99399999999997" y="513.5459999999999" type="curve"/>
      <point x="471.08799999999997" y="528.808"/>
      <point x="490.426" y="574.6240000000001"/>
      <point x="490.426" y="632.776" type="curve" smooth="yes"/>
      <point x="490.426" y="719.8000000000001"/>
      <point x="443.814" y="759.7099999999999"/>
      <point x="351.90199999999993" y="759.7099999999999" type="curve" smooth="yes"/>
      <point x="310.626" y="759.7099999999999"/>
      <point x="268.444" y="757.308"/>
      <point x="218.748" y="753.794" type="curve"/>
      <point x="218.748" y="357.832" type="line"/>
      <point x="321.30600000000004" y="357.832" type="line"/>
      <point x="321.30600000000004" y="479.62399999999997" type="line"/>
      <point x="324.95799999999997" y="479.512"/>
      <point x="328.73199999999997" y="479.34399999999994"/>
      <point x="332.13200000000006" y="479.34399999999994" type="curve" smooth="yes"/>
      <point x="335.38399999999996" y="479.34399999999994"/>
      <point x="337.374" y="479.34399999999994"/>
      <point x="340.196" y="479.456" type="curve"/>
      <point x="380.682" y="363.978"/>
      <point x="426.472" y="353.28000000000003"/>
    </contour>
    <contour>
      <point x="343.2559999999999" y="548.812" type="curve" smooth="yes"/>
      <point x="336.87399999999997" y="548.812"/>
      <point x="331.43600000000004" y="548.8400000000001"/>
      <point x="321.30600000000004" y="549.812" type="curve"/>
      <point x="321.30600000000004" y="666.8919999999999" type="line"/>
      <point x="335.492" y="668.92"/>
      <point x="341.85599999999994" y="669.032"/>
      <point x="350.86400000000003" y="669.032" type="curve" smooth="yes"/>
      <point x="379.176" y="669.032"/>
      <point x="384.4" y="651.922"/>
      <point x="384.4" y="616.0160000000001" type="curve" smooth="yes"/>
      <point x="384.4" y="567.66"/>
      <point x="377.64400000000006" y="548.812"/>
    </contour>
  </outline>
</glyph>
<glyph name="degree" format="2">
  <advance width="338.08000000000004"/>
  <unicode hex="00B0"/>
  <outline>
    <contour>
      <point x="168.928" y="382.40000000000003" type="curve" smooth="yes"/>
      <point x="268.36800000000005" y="382.40000000000003"/>
      <point x="313.584" y="456.808"/>
      <point x="313.584" y="547.32" type="curve" smooth="yes"/>
      <point x="313.584" y="631.84"/>
      <point x="274.01599999999996" y="712.52"/>
      <point x="168.928" y="712.52" type="curve" smooth="yes"/>
      <point x="63.784" y="712.52"/>
      <point x="24.496" y="631.84"/>
      <point x="24.496" y="547.32" type="curve" smooth="yes"/>
      <point x="24.496" y="456.808"/>
      <point x="69.488" y="382.40000000000003"/>
    </contour>
    <contour>
      <point x="168.928" y="497.53599999999994" type="curve" smooth="yes"/>
      <point x="147.248" y="497.53599999999994"/>
      <point x="134.472" y="517.0240000000001"/>
      <point x="134.472" y="546.488" type="curve" smooth="yes"/>
      <point x="134.472" y="574.176"/>
      <point x="146.216" y="594.0"/>
      <point x="168.928" y="594.0" type="curve" smooth="yes"/>
      <point x="191.584" y="594.0"/>
      <point x="203.664" y="574.176"/>
      <point x="203.664" y="546.488" type="curve" smooth="yes"/>
      <point x="203.664" y="517.0240000000001"/>
      <point x="190.608" y="497.53599999999994"/>
    </contour>
  </outline>
</glyph>
<glyph name="plusminus" format="2">
  <advance width="484.16800000000006"/>
  <unicode hex="00B1"/>
  <outline>
    <contour>
      <point x="45.348" y="9.907999999999998" type="line"/>
      <point x="438.82" y="9.907999999999998" type="line"/>
      <point x="438.82" y="158.048" type="line"/>
      <point x="319.50800000000004" y="158.048" type="line"/>
      <point x="319.50800000000004" y="260.67600000000004" type="line"/>
      <point x="438.82" y="260.67600000000004" type="line"/>
      <point x="438.82" y="408.816" type="line"/>
      <point x="319.50800000000004" y="408.816" type="line"/>
      <point x="319.50800000000004" y="517.78" type="line"/>
      <point x="164.488" y="517.78" type="line"/>
      <point x="164.488" y="408.816" type="line"/>
      <point x="45.348" y="408.816" type="line"/>
      <point x="45.348" y="260.67600000000004" type="line"/>
      <point x="164.488" y="260.67600000000004" type="line"/>
      <point x="164.488" y="158.048" type="line"/>
      <point x="45.348" y="158.048" type="line"/>
    </contour>
  </outline>
</glyph>
<glyph name="uni00B2" format="2">
  <advance width="330.44800000000004"/>
  <unicode hex="00B2"/>
  <outline>
    <contour>
      <point x="35.432" y="370.0" type="line"/>
      <point x="301.644" y="370.0" type="line"/>
      <point x="301.644" y="456.348" type="line"/>
      <point x="184.25600000000003" y="456.348" type="line"/>
      <point x="262.672" y="542.948"/>
      <point x="284.184" y="585.588"/>
      <point x="284.184" y="644.916" type="curve" smooth="yes"/>
      <point x="284.184" y="728.8040000000001"/>
      <point x="234.4" y="774.6279999999999"/>
      <point x="152.1" y="774.6279999999999" type="curve" smooth="yes"/>
      <point x="106.04" y="774.6279999999999"/>
      <point x="61.272" y="761.3240000000001"/>
      <point x="23.452" y="737.1800000000001" type="curve"/>
      <point x="60.464" y="641.8480000000001" type="line"/>
      <point x="86.908" y="656.0200000000001"/>
      <point x="103.828" y="661.02"/>
      <point x="124.58399999999999" y="661.02" type="curve" smooth="yes"/>
      <point x="148.816" y="661.02"/>
      <point x="164.304" y="642.36"/>
      <point x="164.304" y="617.692" type="curve" smooth="yes"/>
      <point x="164.304" y="579.5360000000001"/>
      <point x="117.496" y="519.956"/>
      <point x="35.012" y="447.984" type="curve"/>
    </contour>
  </outline>
</glyph>
<glyph name="uni00B3" format="2">
  <advance width="340.344"/>
  <unicode hex="00B3"/>
  <outline>
    <contour>
      <point x="23.540000000000003" y="392.896" type="line"/>
      <point x="68.288" y="371.492"/>
      <point x="105.684" y="364.644"/>
      <point x="153.67999999999998" y="364.644" type="curve" smooth="yes"/>
      <point x="249.852" y="364.644"/>
      <point x="310.944" y="408.152"/>
      <point x="310.944" y="487.88" type="curve" smooth="yes"/>
      <point x="310.944" y="532.0799999999999"/>
      <point x="289.088" y="565.616"/>
      <point x="247.268" y="583.992" type="curve"/>
      <point x="280.64000000000004" y="602.7040000000001"/>
      <point x="302.36800000000005" y="636.644"/>
      <point x="302.36800000000005" y="674.6479999999999" type="curve" smooth="yes"/>
      <point x="302.36800000000005" y="736.784"/>
      <point x="252.584" y="775.836"/>
      <point x="158.616" y="775.836" type="curve" smooth="yes"/>
      <point x="103.808" y="775.836"/>
      <point x="56.571999999999996" y="765.3159999999999"/>
      <point x="24.952" y="745.5759999999999" type="curve"/>
      <point x="55.688" y="661.9680000000001" type="line"/>
      <point x="65.03200000000001" y="667.4680000000001"/>
      <point x="88.788" y="674.528"/>
      <point x="128.608" y="674.528" type="curve" smooth="yes"/>
      <point x="164.068" y="674.528"/>
      <point x="188.62" y="662.3399999999999"/>
      <point x="188.62" y="641.5400000000001" type="curve" smooth="yes"/>
      <point x="188.62" y="623.7239999999999"/>
      <point x="176.22" y="611.6039999999999"/>
      <point x="148.776" y="611.6039999999999" type="curve" smooth="yes"/>
      <point x="91.976" y="611.6039999999999" type="line"/>
      <point x="91.976" y="531.476" type="line"/>
      <point x="145.13600000000002" y="531.476" type="line" smooth="yes"/>
      <point x="184.292" y="531.476"/>
      <point x="194.39200000000002" y="518.6560000000001"/>
      <point x="194.39200000000002" y="498.2" type="curve" smooth="yes"/>
      <point x="194.39200000000002" y="474.05199999999996"/>
      <point x="175.04399999999998" y="459.70400000000006"/>
      <point x="137.572" y="459.70400000000006" type="curve" smooth="yes"/>
      <point x="99.256" y="459.70400000000006"/>
      <point x="80.076" y="464.264"/>
      <point x="57.507999999999996" y="475.70000000000005" type="curve"/>
    </contour>
  </outline>
</glyph>
<glyph name="uni00B5" format="2">
  <advance width="511.32000000000005"/>
  <unicode hex="00B5"/>
  <outline>
    <contour>
      <point x="30.759999999999998" y="-210.0" type="line"/>
      <point x="199.368" y="-210.0" type="line"/>
      <point x="199.368" y="0.007999999999997343" type="line"/>
      <point x="207.308" y="-5.368"/>
      <point x="218.33200000000002" y="-8.623999999999999"/>
      <point x="232.768" y="-8.623999999999999" type="curve" smooth="yes"/>
      <point x="264.136" y="-8.623999999999999"/>
      <point x="293.632" y="7.543999999999999"/>
      <point x="316.22" y="29.22" type="curve"/>
      <point x="336.416" y="5.547999999999999"/>
      <point x="353.17199999999997" y="-10.0"/>
      <point x="405.38399999999996" y="-10.0" type="curve" smooth="yes"/>
      <point x="449.752" y="-10.0"/>
      <point x="484.944" y="2.1759999999999997"/>
      <point x="509.692" y="16.544" type="curve"/>
      <point x="497.04400000000004" y="149.61599999999999" type="line"/>
      <point x="492.00399999999996" y="147.54"/>
      <point x="485.30000000000007" y="146.37199999999999"/>
      <point x="479.65599999999995" y="146.37199999999999" type="curve" smooth="yes"/>
      <point x="469.40000000000003" y="146.37199999999999"/>
      <point x="463.28" y="152.55200000000002"/>
      <point x="463.28" y="175.4" type="curve" smooth="yes"/>
      <point x="463.28" y="547.2" type="line"/>
      <point x="288.47999999999996" y="547.2" type="line"/>
      <point x="288.47999999999996" y="157.95600000000002" type="line"/>
      <point x="271.528" y="148.32"/>
      <point x="257.028" y="143.764"/>
      <point x="241.292" y="143.764" type="curve" smooth="yes"/>
      <point x="221.4" y="143.764"/>
      <point x="206.248" y="154.568"/>
      <point x="206.248" y="184.3" type="curve" smooth="yes"/>
      <point x="206.248" y="547.2" type="line"/>
      <point x="30.759999999999998" y="547.2" type="line"/>
    </contour>
  </outline>
</glyph>
<glyph name="paragraph" format="2">
  <advance width="616.4920000000001"/>
  <unicode hex="00B6"/>
  <outline>
    <contour>
      <point x="439.344" y="-210.0" type="line"/>
      <point x="575.2719999999999" y="-210.0" type="line"/>
      <point x="575.2719999999999" y="740.0" type="line"/>
      <point x="439.344" y="740.0" type="line"/>
    </contour>
    <contour>
      <point x="248.64399999999998" y="344.948" type="line"/>
      <point x="217.79600000000002" y="352.684"/>
      <point x="188.04400000000004" y="401.32399999999996"/>
      <point x="188.04400000000004" y="476.71999999999997" type="curve" smooth="yes"/>
      <point x="188.04400000000004" y="545.704"/>
      <point x="214.36" y="590.0640000000001"/>
      <point x="265.808" y="590.708" type="curve"/>
      <point x="265.808" y="-210.0" type="line"/>
      <point x="401.736" y="-210.0" type="line"/>
      <point x="401.736" y="740.0" type="line"/>
      <point x="312.66" y="740.0" type="line" smooth="yes"/>
      <point x="98.816" y="740.0"/>
      <point x="35.08800000000001" y="626.024"/>
      <point x="35.08800000000001" y="486.008" type="curve" smooth="yes"/>
      <point x="35.08800000000001" y="355.544"/>
      <point x="96.468" y="261.17999999999995"/>
      <point x="229.9" y="236.02399999999997" type="curve"/>
    </contour>
  </outline>
</glyph>
<glyph name="periodcentered" format="2">
  <advance width="221.06000000000003"/>
  <unicode hex="00B7"/>
  <outline>
    <contour>
      <point x="16.34" y="320.25199999999995" type="curve" smooth="yes"/>
      <point x="16.34" y="251.364"/>
      <point x="43.708" y="217.68400000000003"/>
      <point x="110.60000000000001" y="217.68400000000003" type="curve" smooth="yes"/>
      <point x="177.632" y="217.68400000000003"/>
      <point x="204.72000000000003" y="251.364"/>
      <point x="204.72000000000003" y="320.25199999999995" type="curve" smooth="yes"/>
      <point x="204.72000000000003" y="390.0"/>
      <point x="177.632" y="423.68"/>
      <point x="110.60000000000001" y="423.68" type="curve" smooth="yes"/>
      <point x="43.428" y="423.68"/>
      <point x="16.34" y="390.0"/>
    </contour>
  </outline>
</glyph>
<glyph name="uni00B9" format="2">
  <advance width="307.776"/>
  <unicode hex="00B9"/>
  <outline>
    <contour>
      <point x="34.760000000000005" y="370.0" type="line"/>
      <point x="292.36400000000003" y="370.0" type="line"/>
      <point x="292.36400000000003" y="457.32" type="line"/>
      <point x="227.748" y="457.32" type="line"/>
      <point x="227.748" y="768.224" type="line"/>
      <point x="168.184" y="768.224" type="line"/>
      <point x="18.824" y="721.9319999999999" type="line"/>
      <point x="41.56" y="623.312" type="line"/>
      <point x="108.128" y="644.388" type="line"/>
      <point x="108.128" y="457.32" type="line"/>
      <point x="34.760000000000005" y="457.32" type="line"/>
    </contour>
  </outline>
</glyph>
<glyph name="ordmasculine" format="2">
  <advance width="346.904"/>
  <unicode hex="00BA"/>
  <outline>
    <contour>
      <point x="31.355999999999995" y="231.612" type="line"/>
      <point x="320.43600000000004" y="231.612" type="line"/>
      <point x="320.43600000000004" y="319.73199999999997" type="line"/>
      <point x="31.355999999999995" y="319.73199999999997" type="line"/>
    </contour>
    <component base="o.superior" xOffset="9.344"/>
  </outline>
</glyph>
<glyph name="questiondown" format="2">
  <advance width="427.23199999999997"/>
  <unicode hex="00BF"/>
  <outline>
    <contour>
      <point x="319.46" y="279.84400000000005" type="line"/>
      <point x="168.22399999999996" y="279.84400000000005" type="line"/>
      <point x="167.87999999999997" y="211.46800000000002" type="line"/>
      <point x="67.864" y="167.852"/>
      <point x="29.412" y="91.38"/>
      <point x="29.412" y="-6.999999999999998" type="curve" smooth="yes"/>
      <point x="29.412" y="-142.20000000000002"/>
      <point x="116.74399999999999" y="-209.852"/>
      <point x="248.19599999999997" y="-209.852" type="curve" smooth="yes"/>
      <point x="314.36" y="-209.852"/>
      <point x="385.796" y="-186.704"/>
      <point x="431.93199999999996" y="-153.17199999999997" type="curve"/>
      <point x="375.44" y="-3.464000000000004" type="line"/>
      <point x="335.73199999999997" y="-28.967999999999996"/>
      <point x="306.076" y="-36.196000000000005"/>
      <point x="276.92" y="-36.196000000000005" type="curve" smooth="yes"/>
      <point x="234.94" y="-36.196000000000005"/>
      <point x="211.204" y="-13.503999999999998"/>
      <point x="211.204" y="21.156" type="curve" smooth="yes"/>
      <point x="211.204" y="57.056000000000004"/>
      <point x="225.82000000000002" y="94.356"/>
      <point x="323.41599999999994" y="133.644" type="curve"/>
    </contour>
    <contour>
      <point x="337.736" y="445.74800000000005" type="curve" smooth="yes"/>
      <point x="337.736" y="514.552"/>
      <point x="311.028" y="548.2320000000001"/>
      <point x="243.56000000000003" y="548.2320000000001" type="curve" smooth="yes"/>
      <point x="177.328" y="548.2320000000001"/>
      <point x="149.49600000000004" y="514.552"/>
      <point x="149.49600000000004" y="445.74800000000005" type="curve" smooth="yes"/>
      <point x="149.49600000000004" y="376.08399999999995"/>
      <point x="177.328" y="342.404"/>
      <point x="243.56000000000003" y="342.404" type="curve" smooth="yes"/>
      <point x="311.28" y="342.404"/>
      <point x="337.736" y="376.08399999999995"/>
    </contour>
  </outline>
</glyph>
<glyph name="AE" format="2">
  <advance width="817.664"/>
  <unicode hex="00C6"/>
  <anchor x="456.99800000000005" y="700.0" name="top"/>
  <outline>
    <contour>
      <point x="3.5319999999999996" y="0.0" type="line"/>
      <point x="200.45000000000002" y="-0.21000000000000002" type="line"/>
      <point x="253.594" y="140.32999999999998" type="line"/>
      <point x="380.564" y="140.32999999999998" type="line"/>
      <point x="380.564" y="0.0" type="line"/>
      <point x="799.3099999999998" y="0.0" type="line"/>
      <point x="799.3099999999998" y="161.588" type="line"/>
      <point x="548.9459999999999" y="161.588" type="line"/>
      <point x="548.9459999999999" y="270.778" type="line"/>
      <point x="761.072" y="270.778" type="line"/>
      <point x="761.072" y="422.166" type="line"/>
      <point x="548.9459999999999" y="422.166" type="line"/>
      <point x="548.9459999999999" y="535.1819999999999" type="line"/>
      <point x="784.948" y="535.1819999999999" type="line"/>
      <point x="784.948" y="700.0" type="line"/>
      <point x="271.092" y="700.0" type="line"/>
    </contour>
    <contour>
      <point x="301.56600000000003" y="296.63000000000005" type="line"/>
      <point x="379.132" y="576.182" type="line"/>
      <point x="379.132" y="296.63000000000005" type="line"/>
    </contour>
  </outline>
</glyph>
<glyph name="multiply" format="2">
  <advance width="461.144"/>
  <unicode hex="00D7"/>
  <outline>
    <contour>
      <point x="139.12800000000001" y="130.77999999999997" type="line"/>
      <point x="230.488" y="226.43200000000002" type="line"/>
      <point x="321.988" y="130.976" type="line"/>
      <point x="424.32800000000003" y="237.64" type="line"/>
      <point x="338.004" y="329.62399999999997" type="line"/>
      <point x="424.27200000000005" y="422.06" type="line"/>
      <point x="321.932" y="528.724" type="line"/>
      <point x="230.488" y="432.928" type="line"/>
      <point x="139.10000000000002" y="528.78" type="line"/>
      <point x="36.76" y="422.11599999999993" type="line"/>
      <point x="122.912" y="329.62399999999997" type="line"/>
      <point x="36.788" y="237.444" type="line"/>
    </contour>
  </outline>
</glyph>
<glyph name="Oslash" format="2">
  <advance width="589.48"/>
  <unicode hex="00D8"/>
  <anchor x="295.32" y="700.0" name="top"/>
  <outline>
    <contour>
      <point x="105.5" y="-10.28" type="line"/>
      <point x="172.86" y="110.3" type="line"/>
      <point x="177.34" y="105.84" type="line"/>
      <point x="470.23999999999995" y="571.26" type="line"/>
      <point x="474.58" y="565.58" type="line"/>
      <point x="559.64" y="718.6" type="line"/>
      <point x="485.64000000000004" y="718.6" type="line"/>
      <point x="423.34" y="608.7400000000001" type="line"/>
      <point x="418.5" y="612.8399999999999" type="line"/>
      <point x="125.62" y="147.88000000000002" type="line"/>
      <point x="121.06" y="152.12" type="line"/>
      <point x="31.279999999999998" y="-10.28" type="line"/>
    </contour>
    <contour>
      <point x="295.32" y="131.6" type="curve" smooth="yes"/>
      <point x="229.84" y="131.6"/>
      <point x="179.32000000000002" y="166.54"/>
      <point x="179.32000000000002" y="349.14" type="curve" smooth="yes"/>
      <point x="179.32000000000002" y="534.1"/>
      <point x="230.56" y="568.4"/>
      <point x="295.32" y="568.4" type="curve" smooth="yes"/>
      <point x="360.94" y="568.4"/>
      <point x="411.96" y="536.04"/>
      <point x="411.96" y="350.71999999999997" type="curve" smooth="yes"/>
      <point x="411.96" y="165.68"/>
      <point x="360.22" y="131.6"/>
    </contour>
    <contour>
      <point x="294.59999999999997" y="-10.0" type="curve" smooth="yes"/>
      <point x="461.86" y="-10.0"/>
      <point x="566.52" y="73.66000000000001"/>
      <point x="566.52" y="352.58000000000004" type="curve" smooth="yes"/>
      <point x="566.52" y="627.78"/>
      <point x="461.20000000000005" y="710.0"/>
      <point x="295.32" y="710.0" type="curve" smooth="yes"/>
      <point x="128.72" y="710.0"/>
      <point x="24.399999999999995" y="625.7"/>
      <point x="24.399999999999995" y="348.41999999999996" type="curve" smooth="yes"/>
      <point x="24.399999999999995" y="75.02000000000001"/>
      <point x="128.56000000000003" y="-10.0"/>
    </contour>
  </outline>
</glyph>
<glyph name="Thorn" format="2">
  <advance width="554.8879999999999"/>
  <unicode hex="00DE"/>
  <outline>
    <contour>
      <point x="36.828" y="0.0" type="line"/>
      <point x="215.756" y="0.0" type="line"/>
      <point x="215.756" y="108.236" type="line"/>
      <point x="268.368" y="104.57199999999999"/>
      <point x="263.828" y="104.544"/>
      <point x="313.18" y="104.544" type="curve" smooth="yes"/>
      <point x="475.08400000000006" y="104.544"/>
      <point x="536.808" y="191.34799999999998"/>
      <point x="536.808" y="379.004" type="curve" smooth="yes"/>
      <point x="536.808" y="561.3600000000001"/>
      <point x="476.916" y="641.4559999999999"/>
      <point x="269.98800000000006" y="641.4559999999999" type="curve" smooth="yes"/>
      <point x="257.912" y="641.4559999999999"/>
      <point x="238.56799999999998" y="641.116"/>
      <point x="216.444" y="640.496" type="curve"/>
      <point x="216.444" y="700.0" type="line"/>
      <point x="36.828" y="700.0" type="line"/>
    </contour>
    <contour>
      <point x="266.33599999999996" y="263.52" type="curve" smooth="yes"/>
      <point x="250.308" y="263.52"/>
      <point x="240.244" y="263.77599999999995"/>
      <point x="216.444" y="266.036" type="curve"/>
      <point x="216.444" y="484.556" type="line"/>
      <point x="250.836" y="487.868"/>
      <point x="263.588" y="488.036"/>
      <point x="282.99999999999994" y="488.036" type="curve" smooth="yes"/>
      <point x="341.13200000000006" y="488.036"/>
      <point x="356.676" y="456.592"/>
      <point x="356.676" y="386.752" type="curve" smooth="yes"/>
      <point x="356.676" y="314.508"/>
      <point x="346.456" y="263.52"/>
    </contour>
  </outline>
</glyph>
<glyph name="germandbls" format="2">
  <advance width="647.412"/>
  <unicode hex="00DF"/>
  <outline>
    <contour>
      <point x="65.06" y="0.0" type="line"/>
      <point x="239.74800000000002" y="0.0" type="line"/>
      <point x="239.74800000000002" y="499.71600000000007" type="line" smooth="yes"/>
      <point x="239.74800000000002" y="566.456"/>
      <point x="277.68800000000005" y="603.248"/>
      <point x="349.88800000000003" y="603.248" type="curve" smooth="yes"/>
      <point x="407.88399999999996" y="603.248"/>
      <point x="426.3" y="591.112"/>
      <point x="426.3" y="562.6560000000001" type="curve" smooth="yes"/>
      <point x="426.3" y="539.568"/>
      <point x="413.45199999999994" y="531.5880000000001"/>
      <point x="372.324" y="510.23199999999997" type="curve" smooth="yes"/>
      <point x="312.756" y="485.06800000000004"/>
      <point x="281.94399999999996" y="440.728"/>
      <point x="281.94399999999996" y="370.108" type="curve" smooth="yes"/>
      <point x="281.94399999999996" y="268.2080000000001"/>
      <point x="321.22400000000005" y="223.556"/>
      <point x="415.75999999999993" y="203.23199999999997" type="curve" smooth="yes"/>
      <point x="470.748" y="189.928"/>
      <point x="482.096" y="187.02"/>
      <point x="482.096" y="166.01600000000002" type="curve" smooth="yes"/>
      <point x="482.096" y="142.96"/>
      <point x="459.64" y="132.232"/>
      <point x="425.49199999999996" y="132.232" type="curve" smooth="yes"/>
      <point x="378.588" y="132.232"/>
      <point x="326.09999999999997" y="141.568"/>
      <point x="281.668" y="153.504" type="curve"/>
      <point x="263.63599999999997" y="17.531999999999996" type="line"/>
      <point x="313.44000000000005" y="-1.6759999999999997"/>
      <point x="369.91600000000005" y="-9.856"/>
      <point x="428.58799999999997" y="-9.856" type="curve" smooth="yes"/>
      <point x="551.1039999999999" y="-9.856"/>
      <point x="644.664" y="46.6"/>
      <point x="644.664" y="177.10399999999998" type="curve" smooth="yes"/>
      <point x="644.664" y="273.31600000000003"/>
      <point x="603.96" y="321.51199999999994"/>
      <point x="508.38" y="342.164" type="curve" smooth="yes"/>
      <point x="454.34" y="353.56399999999996"/>
      <point x="444.04799999999994" y="364.12800000000004"/>
      <point x="444.04799999999994" y="380.82" type="curve" smooth="yes"/>
      <point x="444.04799999999994" y="398.524"/>
      <point x="454.76" y="402.57599999999996"/>
      <point x="487.06" y="415.892" type="curve" smooth="yes"/>
      <point x="568.488" y="447.97200000000004"/>
      <point x="603.892" y="487.22"/>
      <point x="603.892" y="564.6" type="curve" smooth="yes"/>
      <point x="603.892" y="687.7160000000001"/>
      <point x="512.152" y="750.0"/>
      <point x="341.668" y="750.0" type="curve" smooth="yes"/>
      <point x="162.62800000000001" y="750.0"/>
      <point x="64.96000000000001" y="675.1359999999999"/>
      <point x="65.06" y="531.8960000000001" type="curve" smooth="yes"/>
      <point x="65.06" y="514.772" type="line"/>
      <point x="8.568" y="505.4200000000001" type="line"/>
      <point x="8.568" y="378.01199999999994" type="line"/>
      <point x="65.06" y="378.01199999999994" type="line"/>
    </contour>
  </outline>
</glyph>
<glyph name="ae" format="2">
  <advance width="714.818"/>
  <unicode hex="00E6"/>
  <anchor x="359.82599999999996" y="547.2" name="top"/>
  <outline>
    <contour>
      <point x="155.592" y="-10.0" type="curve" smooth="yes"/>
      <point x="228.002" y="-10.0"/>
      <point x="275.54600000000005" y="16.629999999999995"/>
      <point x="324.24600000000004" y="57.20800000000001" type="curve"/>
      <point x="325.53" y="57.20800000000001" type="line"/>
      <point x="369.676" y="9.105999999999998"/>
      <point x="419.11400000000003" y="-10.0"/>
      <point x="503.1039999999999" y="-10.0" type="curve" smooth="yes"/>
      <point x="569.8539999999999" y="-10.0"/>
      <point x="629.274" y="1.0799999999999996"/>
      <point x="694.0980000000001" y="24.831999999999997" type="curve"/>
      <point x="671.756" y="168.386" type="line"/>
      <point x="621.4820000000001" y="155.66799999999998"/>
      <point x="563.566" y="146.808"/>
      <point x="529.974" y="146.808" type="curve" smooth="yes"/>
      <point x="464.69800000000004" y="146.808"/>
      <point x="440.33" y="155.69799999999998"/>
      <point x="439.042" y="208.47" type="curve" smooth="yes"/>
      <point x="438.758" y="211.168"/>
      <point x="438.758" y="216.95599999999996"/>
      <point x="438.96999999999997" y="217.358" type="curve"/>
      <point x="532.97" y="221.728"/>
      <point x="641.026" y="233.362"/>
      <point x="693.78" y="239.15" type="curve"/>
      <point x="694.4259999999999" y="257.914"/>
      <point x="695.5699999999999" y="284.634"/>
      <point x="695.5699999999999" y="300.208" type="curve" smooth="yes"/>
      <point x="695.5699999999999" y="487.35600000000005"/>
      <point x="632.8800000000001" y="557.2"/>
      <point x="488.278" y="557.2" type="curve" smooth="yes"/>
      <point x="440.142" y="557.2"/>
      <point x="397.158" y="547.318"/>
      <point x="359.088" y="508.296" type="curve"/>
      <point x="357.94399999999996" y="508.296" type="line"/>
      <point x="315.512" y="542.9399999999999"/>
      <point x="275.232" y="557.2"/>
      <point x="210.56600000000003" y="557.2" type="curve" smooth="yes"/>
      <point x="157.938" y="557.2"/>
      <point x="85.9" y="543.964"/>
      <point x="32.64" y="525.1600000000001" type="curve"/>
      <point x="64.008" y="375.872" type="line"/>
      <point x="122.15199999999999" y="393.53400000000005"/>
      <point x="170.26199999999997" y="396.094"/>
      <point x="196.16199999999998" y="396.094" type="curve" smooth="yes"/>
      <point x="240.224" y="396.094"/>
      <point x="261.17199999999997" y="380.022"/>
      <point x="261.17199999999997" y="354.538" type="curve" smooth="yes"/>
      <point x="261.17199999999997" y="337.852" type="line"/>
      <point x="94.542" y="326.50999999999993"/>
      <point x="10.601999999999999" y="285.172"/>
      <point x="10.601999999999999" y="156.44400000000002" type="curve" smooth="yes"/>
      <point x="10.601999999999999" y="50.842"/>
      <point x="66.59000000000002" y="-10.0"/>
    </contour>
    <contour>
      <point x="216.00199999999998" y="117.928" type="curve" smooth="yes"/>
      <point x="198.26399999999998" y="117.928"/>
      <point x="183.818" y="133.77999999999997"/>
      <point x="183.818" y="169.97" type="curve" smooth="yes"/>
      <point x="183.818" y="222.286"/>
      <point x="223.75" y="234.168"/>
      <point x="261.89" y="238.662" type="curve"/>
      <point x="262.03399999999993" y="227.868"/>
      <point x="262.03399999999993" y="214.202"/>
      <point x="262.03399999999993" y="204.996" type="curve" smooth="yes"/>
      <point x="262.03399999999993" y="182.488"/>
      <point x="262.3" y="160.64600000000002"/>
      <point x="264.21000000000004" y="141.344" type="curve"/>
      <point x="256.04400000000004" y="132.284"/>
      <point x="234.458" y="117.928"/>
    </contour>
    <contour>
      <point x="437.75" y="318.8419999999999" type="curve"/>
      <point x="434.652" y="410.42999999999995"/>
      <point x="460.588" y="424.826"/>
      <point x="478.82" y="424.826" type="curve" smooth="yes"/>
      <point x="506.58599999999996" y="424.826"/>
      <point x="516.91" y="401.478"/>
      <point x="521.21" y="323.512" type="curve"/>
      <point x="501.97" y="322.32"/>
      <point x="467.71" y="318.986"/>
    </contour>
  </outline>
</glyph>
<glyph name="eth" format="2">
  <advance width="512.1999999999999"/>
  <unicode hex="00F0"/>
  <outline>
    <contour>
      <point x="350.36" y="394.48" type="curve"/>
      <point x="357.88" y="508.18000000000006" type="line"/>
      <point x="321.47999999999996" y="527.12"/>
      <point x="281.44" y="535.1999999999999"/>
      <point x="238.77999999999997" y="535.1999999999999" type="curve" smooth="yes"/>
      <point x="86.4" y="535.1999999999999"/>
      <point x="20.82" y="441.6"/>
      <point x="20.82" y="247.96" type="curve" smooth="yes"/>
      <point x="20.82" y="73.46"/>
      <point x="94.22000000000001" y="-10.0"/>
      <point x="243.46" y="-10.0" type="curve" smooth="yes"/>
      <point x="425.26" y="-10.0"/>
      <point x="490.94" y="84.06"/>
      <point x="490.94" y="353.02" type="curve" smooth="yes"/>
      <point x="490.94" y="613.3599999999999"/>
      <point x="384.71999999999997" y="744.9599999999999"/>
      <point x="185.18" y="744.9599999999999" type="curve" smooth="yes"/>
      <point x="128.16" y="744.9599999999999"/>
      <point x="75.86" y="732.6400000000001"/>
      <point x="28.48" y="716.4" type="curve"/>
      <point x="45.08" y="612.38" type="line"/>
      <point x="78.78" y="621.52"/>
      <point x="111.98" y="629.82"/>
      <point x="148.22" y="629.82" type="curve" smooth="yes"/>
      <point x="284.56000000000006" y="629.82"/>
      <point x="330.76" y="574.62"/>
      <point x="330.76" y="377.14000000000004" type="curve" smooth="yes"/>
      <point x="330.76" y="139.7"/>
      <point x="308.4" y="106.89999999999999"/>
      <point x="251.23999999999998" y="106.89999999999999" type="curve" smooth="yes"/>
      <point x="204.76000000000002" y="106.89999999999999"/>
      <point x="183.05999999999997" y="140.88"/>
      <point x="183.05999999999997" y="249.18" type="curve" smooth="yes"/>
      <point x="183.05999999999997" y="392.36"/>
      <point x="214.35999999999999" y="416.03999999999996"/>
      <point x="266.28000000000003" y="416.03999999999996" type="curve" smooth="yes"/>
      <point x="296.58" y="416.03999999999996"/>
      <point x="321.98" y="409.68"/>
    </contour>
    <contour>
      <point x="172.78" y="558.1600000000001" type="line"/>
      <point x="308.92" y="633.7399999999999" type="line"/>
      <point x="311.98" y="638.5" type="line"/>
      <point x="477.86" y="745.9399999999999" type="line"/>
      <point x="364.74" y="746.66" type="line"/>
      <point x="257.76" y="679.74" type="line"/>
      <point x="258.28" y="674.96" type="line"/>
      <point x="63.480000000000004" y="558.8800000000001" type="line"/>
    </contour>
  </outline>
</glyph>
<glyph name="divide" format="2">
  <advance width="480.66799999999995"/>
  <unicode hex="00F7"/>
  <outline>
    <contour>
      <point x="155.028" y="122.33599999999998" type="curve" smooth="yes"/>
      <point x="155.028" y="70.22"/>
      <point x="180.536" y="44.28"/>
      <point x="240.40399999999997" y="44.28" type="curve" smooth="yes"/>
      <point x="299.84" y="44.28"/>
      <point x="325.92400000000004" y="70.22"/>
      <point x="325.92400000000004" y="122.33599999999998" type="curve" smooth="yes"/>
      <point x="325.92400000000004" y="175.17600000000002"/>
      <point x="299.84000000000003" y="201.25600000000003"/>
      <point x="240.40399999999997" y="201.25600000000003" type="curve" smooth="yes"/>
      <point x="180.396" y="201.25600000000003"/>
      <point x="155.028" y="175.17600000000002"/>
    </contour>
    <contour>
      <point x="155.028" y="521.7360000000001" type="curve" smooth="yes"/>
      <point x="155.028" y="469.76"/>
      <point x="180.53599999999997" y="443.82"/>
      <point x="240.40399999999997" y="443.82" type="curve" smooth="yes"/>
      <point x="299.84" y="443.82"/>
      <point x="325.92400000000004" y="469.76"/>
      <point x="325.92400000000004" y="521.7360000000001" type="curve" smooth="yes"/>
      <point x="325.92400000000004" y="574.8560000000001"/>
      <point x="299.84" y="600.796"/>
      <point x="240.40399999999997" y="600.796" type="curve" smooth="yes"/>
      <point x="180.396" y="600.796"/>
      <point x="155.028" y="574.8560000000001"/>
    </contour>
    <contour>
      <point x="45.432" y="248.9" type="line"/>
      <point x="435.376" y="248.9" type="line"/>
      <point x="435.376" y="397.17999999999995" type="line"/>
      <point x="45.432" y="397.17999999999995" type="line"/>
    </contour>
  </outline>
</glyph>
<glyph name="oslash" format="2">
  <advance width="522.0799999999999"/>
  <unicode hex="00F8"/>
  <anchor x="259.72" y="547.1999999999999" name="top"/>
  <outline>
    <contour>
      <point x="259.72" y="-10.0" type="curve" smooth="yes"/>
      <point x="69.39999999999999" y="-10.0"/>
      <point x="20.68" y="114.68"/>
      <point x="20.68" y="274.96000000000004" type="curve" smooth="yes"/>
      <point x="20.68" y="432.38000000000005"/>
      <point x="65.75999999999999" y="557.1999999999999"/>
      <point x="259.72" y="557.1999999999999" type="curve" smooth="yes"/>
      <point x="453.9" y="557.1999999999999"/>
      <point x="499.98" y="432.38000000000005"/>
      <point x="499.98" y="274.96000000000004" type="curve" smooth="yes"/>
      <point x="499.98" y="114.68"/>
      <point x="450.4" y="-10.0"/>
    </contour>
    <contour>
      <point x="259.85999999999996" y="125.74000000000001" type="curve" smooth="yes"/>
      <point x="322.2" y="125.74000000000001"/>
      <point x="344.03999999999996" y="148.76"/>
      <point x="344.03999999999996" y="274.96000000000004" type="curve" smooth="yes"/>
      <point x="344.03999999999996" y="398.8"/>
      <point x="325.28" y="422.32"/>
      <point x="259.85999999999996" y="422.32" type="curve" smooth="yes"/>
      <point x="193.08" y="422.32"/>
      <point x="175.9" y="398.8"/>
      <point x="175.9" y="274.96000000000004" type="curve" smooth="yes"/>
      <point x="175.9" y="148.76"/>
      <point x="196.3" y="125.74000000000001"/>
    </contour>
    <contour>
      <point x="18.6" y="-1.6800000000000004" type="line"/>
      <point x="107.9" y="134.34" type="line"/>
      <point x="110.67999999999999" y="133.92" type="line"/>
      <point x="364.53999999999996" y="466.32" type="line"/>
      <point x="367.59999999999997" y="465.90000000000003" type="line"/>
      <point x="428.58000000000004" y="557.1999999999999" type="line"/>
      <point x="502.06" y="557.1999999999999" type="line"/>
      <point x="413.46000000000004" y="425.64000000000004" type="line"/>
      <point x="410.54" y="426.06" type="line"/>
      <point x="154.74" y="88.72" type="line"/>
      <point x="151.68" y="89.14" type="line"/>
      <point x="91.08" y="-1.6800000000000004" type="line"/>
    </contour>
  </outline>
</glyph>
<glyph name="thorn" format="2">
  <advance width="498.088"/>
  <unicode hex="00FE"/>
  <outline>
    <contour>
      <point x="30.759999999999998" y="-210.0" type="line"/>
      <point x="204.356" y="-210.0" type="line"/>
      <point x="204.356" y="-7.859999999999999" type="line"/>
      <point x="217.26399999999998" y="-9.352"/>
      <point x="229.40399999999997" y="-10.0"/>
      <point x="241.728" y="-10.0" type="curve" smooth="yes"/>
      <point x="413.812" y="-10.0"/>
      <point x="480.9" y="72.41199999999999"/>
      <point x="480.9" y="288.59200000000004" type="curve" smooth="yes"/>
      <point x="480.9" y="470.424"/>
      <point x="426.44" y="557.2"/>
      <point x="315.37199999999996" y="557.2" type="curve" smooth="yes"/>
      <point x="281.08799999999997" y="557.2"/>
      <point x="238.968" y="544.588"/>
      <point x="205.732" y="525.164" type="curve"/>
      <point x="205.732" y="740.0" type="line"/>
      <point x="30.759999999999998" y="740.0" type="line"/>
    </contour>
    <contour>
      <point x="244.43600000000004" y="124.016" type="curve" smooth="yes"/>
      <point x="233.10399999999998" y="124.016"/>
      <point x="220.42800000000003" y="126.03999999999999"/>
      <point x="206.248" y="130.34" type="curve"/>
      <point x="206.248" y="389.208" type="line"/>
      <point x="223.724" y="397.464"/>
      <point x="237.096" y="401.228"/>
      <point x="251.83599999999998" y="401.228" type="curve" smooth="yes"/>
      <point x="283.956" y="401.228"/>
      <point x="297.844" y="371.848"/>
      <point x="297.844" y="271.73600000000005" type="curve" smooth="yes"/>
      <point x="297.844" y="153.14"/>
      <point x="282.908" y="124.016"/>
    </contour>
  </outline>
</glyph>
<glyph name="Dcroat" format="2">
  <advance width="561.8180000000001"/>
  <unicode hex="0110"/>
  <outline>
    <contour>
      <point x="2.7080000000000006" y="278.192" type="line"/>
      <point x="282.266" y="278.192" type="line"/>
      <point x="282.266" y="425.10999999999996" type="line"/>
      <point x="2.7080000000000006" y="425.10999999999996" type="line"/>
    </contour>
    <component base="D" xOffset="2.0620000000000003"/>
  </outline>
</glyph>
<glyph name="dcroat" format="2">
  <advance width="505.638"/>
  <unicode hex="0111"/>
  <outline>
    <contour>
      <point x="184.016" y="603.3100000000001" type="line"/>
      <point x="514.9499999999999" y="603.3100000000001" type="line"/>
      <point x="514.9499999999999" y="696.81" type="line"/>
      <point x="184.016" y="696.81" type="line"/>
    </contour>
    <component base="d"/>
  </outline>
</glyph>
<glyph name="Hbar" format="2">
  <advance width="564.272"/>
  <unicode hex="0126"/>
  <outline>
    <contour>
      <point x="5.6160000000000005" y="501.896" type="line"/>
      <point x="37.576" y="501.896" type="line"/>
      <point x="37.576" y="0.0" type="line"/>
      <point x="215.81600000000003" y="0.0" type="line"/>
      <point x="215.81600000000003" y="233.896" type="line"/>
      <point x="350.176" y="233.896" type="line"/>
      <point x="350.176" y="0.0" type="line"/>
      <point x="526.696" y="0.0" type="line"/>
      <point x="526.696" y="501.896" type="line"/>
      <point x="558.656" y="501.896" type="line"/>
      <point x="558.656" y="630.304" type="line"/>
      <point x="526.696" y="630.304" type="line"/>
      <point x="526.696" y="700.0" type="line"/>
      <point x="350.176" y="700.0" type="line"/>
      <point x="350.176" y="630.304" type="line"/>
      <point x="215.81600000000003" y="630.304" type="line"/>
      <point x="215.81600000000003" y="700.0" type="line"/>
      <point x="37.576" y="700.0" type="line"/>
      <point x="37.576" y="630.304" type="line"/>
      <point x="5.6160000000000005" y="630.304" type="line"/>
    </contour>
    <contour>
      <point x="215.81600000000003" y="405.144" type="line"/>
      <point x="215.81600000000003" y="501.896" type="line"/>
      <point x="350.176" y="501.896" type="line"/>
      <point x="350.176" y="405.144" type="line"/>
    </contour>
  </outline>
</glyph>
<glyph name="hbar" format="2">
  <advance width="493.994"/>
  <unicode hex="0127"/>
  <outline>
    <contour>
      <point x="-6.662" y="603.31" type="line"/>
      <point x="311.69" y="603.31" type="line"/>
      <point x="311.69" y="696.81" type="line"/>
      <point x="-6.662" y="696.81" type="line"/>
    </contour>
    <component base="h"/>
  </outline>
</glyph>
<glyph name="Idotaccent" format="2">
  <advance width="251.89600000000002"/>
  <unicode hex="0130"/>
  <outline>
    <contour>
      <point x="126.97999999999999" y="732.332" type="curve" smooth="yes"/>
      <point x="195.38799999999998" y="732.332"/>
      <point x="227.40800000000002" y="764.4639999999999"/>
      <point x="227.40800000000002" y="829.3119999999999" type="curve" smooth="yes"/>
      <point x="227.40800000000002" y="895.536"/>
      <point x="194.012" y="926.98"/>
      <point x="126.97999999999999" y="926.98" type="curve" smooth="yes"/>
      <point x="59.26" y="926.98"/>
      <point x="25.864000000000004" y="895.536"/>
      <point x="25.864000000000004" y="829.3119999999999" type="curve" smooth="yes"/>
      <point x="25.864000000000004" y="763.776"/>
      <point x="59.4" y="732.332"/>
    </contour>
    <component base="I"/>
  </outline>
</glyph>
<glyph name="dotlessi" format="2">
  <advance width="238.384"/>
  <unicode hex="0131"/>
  <anchor x="199.684" y="8.6" name="ogonek"/>
  <anchor x="120.568" y="0.0" name="bottom"/>
  <anchor x="119.192" y="547.2" name="top"/>
  <outline>
    <contour>
      <point x="30.759999999999998" y="0.0" type="line"/>
      <point x="207.624" y="0.0" type="line"/>
      <point x="207.624" y="547.2" type="line"/>
      <point x="30.759999999999998" y="547.2" type="line"/>
    </contour>
  </outline>
</glyph>
<glyph name="kgreenlandic" format="2">
  <advance width="487.85999999999996"/>
  <unicode hex="0138"/>
  <anchor x="247.96" y="547.1999999999999" name="top"/>
  <anchor x="247.96" y="0.0" name="bottom"/>
  <outline>
    <contour>
      <point x="433.64" y="-10.3" type="curve" smooth="yes"/>
      <point x="447.3" y="-10.3"/>
      <point x="460.18" y="-9.299999999999999"/>
      <point x="474.86" y="-6.080000000000001" type="curve"/>
      <point x="474.08" y="162.68" type="line"/>
      <point x="470.3" y="162.68"/>
      <point x="467.59999999999997" y="162.4"/>
      <point x="464.82000000000005" y="162.4" type="curve" smooth="yes"/>
      <point x="433.14" y="162.4"/>
      <point x="402.0" y="183.44"/>
      <point x="322.12" y="274.59999999999997" type="curve" smooth="yes"/>
      <point x="184.72" y="431.94000000000005" type="line"/>
      <point x="184.72" y="547.1999999999999" type="line"/>
      <point x="37.24" y="547.1999999999999" type="line"/>
      <point x="37.24" y="0.0" type="line"/>
      <point x="184.72" y="0.0" type="line"/>
      <point x="184.72" y="186.74" type="line"/>
      <point x="282.23999999999995" y="81.16" type="line" smooth="yes"/>
      <point x="349.56" y="7.879999999999999"/>
      <point x="383.78000000000003" y="-10.3"/>
    </contour>
    <contour>
      <point x="289.59999999999997" y="221.42" type="line"/>
      <point x="377.02000000000004" y="322.34"/>
      <point x="456.08000000000004" y="438.35999999999996"/>
      <point x="476.62" y="539.32" type="curve"/>
      <point x="325.35999999999996" y="549.62" type="line"/>
      <point x="310.76" y="453.3"/>
      <point x="261.46" y="394.94"/>
      <point x="189.57999999999998" y="317.71999999999997" type="curve"/>
    </contour>
  </outline>
</glyph>
<glyph name="Ldot" format="2">
  <advance width="451.14"/>
  <unicode hex="013F"/>
  <outline>
    <contour>
      <point x="279.88800000000003" y="401.368" type="curve" smooth="yes"/>
      <point x="279.88800000000003" y="351.828"/>
      <point x="300.18" y="327.78000000000003"/>
      <point x="350.56" y="327.78000000000003" type="curve" smooth="yes"/>
      <point x="401.76800000000003" y="327.78000000000003"/>
      <point x="421.92" y="351.828"/>
      <point x="421.92" y="401.368" type="curve" smooth="yes"/>
      <point x="421.92" y="451.768"/>
      <point x="401.76800000000003" y="475.816"/>
      <point x="350.56" y="475.816" type="curve" smooth="yes"/>
      <point x="300.04" y="475.816"/>
      <point x="279.88800000000003" y="451.768"/>
    </contour>
    <component base="L"/>
  </outline>
</glyph>
<glyph name="ldot" format="2">
  <advance width="369.97999999999996"/>
  <unicode hex="0140"/>
  <outline>
    <contour>
      <point x="306.66" y="312.968" type="curve" smooth="yes"/>
      <point x="344.28" y="312.968"/>
      <point x="364.6039999999999" y="333.576"/>
      <point x="364.6039999999999" y="382.084" type="curve" smooth="yes"/>
      <point x="364.6039999999999" y="431.28000000000003"/>
      <point x="344.28" y="451.88800000000003"/>
      <point x="306.66" y="451.88800000000003" type="curve" smooth="yes"/>
      <point x="269.72799999999995" y="451.88800000000003"/>
      <point x="249.404" y="431.28000000000003"/>
      <point x="249.404" y="382.084" type="curve" smooth="yes"/>
      <point x="249.404" y="333.576"/>
      <point x="269.868" y="312.968"/>
    </contour>
    <component base="l"/>
  </outline>
</glyph>
<glyph name="Lslash" format="2">
  <advance width="465.52400000000006"/>
  <unicode hex="0141"/>
  <outline>
    <contour>
      <point x="7.199999999999999" y="197.99999999999997" type="line"/>
      <point x="51.212" y="223.38" type="line"/>
      <point x="51.212" y="0.0" type="line"/>
      <point x="451.364" y="0.0" type="line"/>
      <point x="451.364" y="166.432" type="line"/>
      <point x="230.14" y="166.432" type="line"/>
      <point x="230.14" y="311.704" type="line"/>
      <point x="365.516" y="384.8" type="line"/>
      <point x="365.516" y="547.312" type="line"/>
      <point x="230.14" y="474.328" type="line"/>
      <point x="230.14" y="700.0" type="line"/>
      <point x="51.212" y="700.0" type="line"/>
      <point x="51.212" y="386.0040000000001" type="line"/>
      <point x="7.199999999999999" y="360.624" type="line"/>
    </contour>
  </outline>
</glyph>
<glyph name="lslash" format="2">
  <advance width="302.556"/>
  <unicode hex="0142"/>
  <outline>
    <contour>
      <point x="185.548" y="-10.0" type="curve" smooth="yes"/>
      <point x="227.89600000000002" y="-10.0"/>
      <point x="268.116" y="2.4880000000000004"/>
      <point x="294.868" y="15.112" type="curve"/>
      <point x="281.58" y="171.568" type="line"/>
      <point x="267.048" y="168.576"/>
      <point x="254.796" y="166.692"/>
      <point x="245.576" y="166.692" type="curve" smooth="yes"/>
      <point x="227.904" y="166.692"/>
      <point x="216.22400000000002" y="175.35599999999997"/>
      <point x="216.22400000000002" y="215.532" type="curve" smooth="yes"/>
      <point x="216.22400000000002" y="343.64" type="line"/>
      <point x="282.24" y="392.172" type="line"/>
      <point x="282.24" y="533.6400000000001" type="line"/>
      <point x="216.22400000000002" y="485.108" type="line"/>
      <point x="216.22400000000002" y="740.0" type="line"/>
      <point x="41.424" y="740.0" type="line"/>
      <point x="41.424" y="355.08799999999997" type="line"/>
      <point x="2.0959999999999983" y="325.53200000000004" type="line"/>
      <point x="2.0959999999999983" y="184.176" type="line"/>
      <point x="41.768" y="213.79199999999997" type="line"/>
      <point x="42.112" y="168.576" type="line" smooth="yes"/>
      <point x="45.036" y="38.784"/>
      <point x="89.72" y="-10.0"/>
    </contour>
  </outline>
</glyph>
<glyph name="Eng" format="2">
  <advance width="561.34"/>
  <unicode hex="014A"/>
  <outline>
    <contour>
      <point x="36.769999999999996" y="0.0" type="line"/>
      <point x="194.8" y="0.0" type="line"/>
      <point x="194.8" y="350.37" type="line"/>
      <point x="354.07" y="-1.1599999999999993" type="line"/>
      <point x="354.07" y="-6.119999999999999" type="line" smooth="yes"/>
      <point x="353.92999999999995" y="-28.990000000000002"/>
      <point x="335.88000000000005" y="-41.86"/>
      <point x="304.39" y="-41.86" type="curve" smooth="yes"/>
      <point x="288.32" y="-41.86"/>
      <point x="270.04" y="-40.650000000000006"/>
      <point x="246.14999999999998" y="-32.56000000000001" type="curve"/>
      <point x="215.91" y="-182.27999999999997" type="line"/>
      <point x="249.26000000000002" y="-197.75"/>
      <point x="286.96" y="-209.71"/>
      <point x="340.94" y="-209.71" type="curve" smooth="yes"/>
      <point x="455.90000000000003" y="-209.71"/>
      <point x="524.57" y="-143.74"/>
      <point x="524.57" y="-14.3" type="curve" smooth="yes"/>
      <point x="524.57" y="700.0" type="line"/>
      <point x="367.4" y="700.0" type="line"/>
      <point x="367.4" y="330.98999999999995" type="line"/>
      <point x="214.73000000000002" y="700.28" type="line"/>
      <point x="36.769999999999996" y="700.28" type="line"/>
    </contour>
  </outline>
</glyph>
<glyph name="eng" format="2">
  <advance width="494.5559999999999"/>
  <unicode hex="014B"/>
  <outline>
    <contour>
      <point x="465.17199999999997" y="24.900000000000002" type="curve"/>
      <point x="465.17199999999997" y="416.348" type="line" smooth="yes"/>
      <point x="465.17199999999997" y="500.92799999999994"/>
      <point x="422.232" y="557.2"/>
      <point x="332.376" y="557.2" type="curve" smooth="yes"/>
      <point x="279.228" y="557.2"/>
      <point x="234.916" y="539.656"/>
      <point x="189.22" y="507.22399999999993" type="curve"/>
      <point x="189.22" y="547.2" type="line"/>
      <point x="30.759999999999998" y="547.2" type="line"/>
      <point x="30.759999999999998" y="0.0" type="line"/>
      <point x="206.248" y="0.0" type="line"/>
      <point x="206.248" y="384.744" type="line"/>
      <point x="221.988" y="392.54400000000004"/>
      <point x="237.804" y="399.308"/>
      <point x="254.708" y="399.308" type="curve" smooth="yes"/>
      <point x="276.76800000000003" y="399.308"/>
      <point x="289.684" y="386.29999999999995"/>
      <point x="289.684" y="356.49199999999996" type="curve" smooth="yes"/>
      <point x="289.684" y="21.348" type="line" smooth="yes"/>
      <point x="289.684" y="-16.548000000000002"/>
      <point x="281.268" y="-32.90800000000001"/>
      <point x="264.308" y="-37.388" type="curve" smooth="yes"/>
      <point x="259.168" y="-38.11600000000001"/>
      <point x="251.276" y="-37.672"/>
      <point x="245.99599999999998" y="-37.08800000000001" type="curve"/>
      <point x="238.51199999999997" y="-212.012" type="line"/>
      <point x="258.492" y="-215.81199999999998"/>
      <point x="279.39199999999994" y="-216.86399999999998"/>
      <point x="303.332" y="-216.02399999999997" type="curve" smooth="yes"/>
      <point x="403.61199999999997" y="-210.9"/>
      <point x="465.17199999999997" y="-122.33599999999998"/>
    </contour>
  </outline>
</glyph>
<glyph name="OE" format="2">
  <advance width="787.1479999999999"/>
  <unicode hex="0152"/>
  <outline>
    <contour>
      <point x="768.794" y="0.0" type="line"/>
      <point x="768.794" y="161.588" type="line"/>
      <point x="522.4039999999999" y="161.588" type="line"/>
      <point x="522.4039999999999" y="275.538" type="line"/>
      <point x="730.4159999999999" y="275.538" type="line"/>
      <point x="730.4159999999999" y="426.92600000000004" type="line"/>
      <point x="522.4039999999999" y="426.92600000000004" type="line"/>
      <point x="522.4039999999999" y="535.3219999999999" type="line"/>
      <point x="754.2919999999999" y="535.3219999999999" type="line"/>
      <point x="754.2919999999999" y="700.0" type="line"/>
      <point x="487.35800000000006" y="700.0" type="line"/>
      <point x="425.236" y="706.654"/>
      <point x="365.49199999999996" y="709.3"/>
      <point x="298.762" y="709.3" type="curve" smooth="yes"/>
      <point x="95.71199999999997" y="709.3"/>
      <point x="18.138" y="591.076"/>
      <point x="18.138" y="354.008" type="curve" smooth="yes"/>
      <point x="18.138" y="75.91600000000001"/>
      <point x="110.54199999999999" y="-9.58"/>
      <point x="299.03799999999995" y="-9.58" type="curve" smooth="yes"/>
      <point x="368.562" y="-9.58"/>
      <point x="442.66600000000005" y="-7.798000000000001"/>
      <point x="521.758" y="0.0" type="curve"/>
    </contour>
    <contour>
      <point x="344.604" y="147.78600000000003" type="line"/>
      <point x="330.714" y="145.78600000000003"/>
      <point x="309.28399999999993" y="143.716"/>
      <point x="283.9539999999999" y="143.716" type="curve" smooth="yes"/>
      <point x="232.03799999999998" y="143.716"/>
      <point x="202.46" y="192.50600000000003"/>
      <point x="202.46" y="350.712" type="curve" smooth="yes"/>
      <point x="202.46" y="510.35400000000004"/>
      <point x="229.952" y="554.778"/>
      <point x="283.24199999999996" y="554.778" type="curve" smooth="yes"/>
      <point x="306.96999999999997" y="554.778"/>
      <point x="322.52199999999993" y="552.424"/>
      <point x="344.604" y="550.424" type="curve"/>
    </contour>
  </outline>
</glyph>
